<?xml version="1.0" encoding="UTF-8" standalone="no"?><!DOCTYPE svg PUBLIC "-//W3C//DTD SVG 1.1//EN" "http://www.w3.org/Graphics/SVG/1.1/DTD/svg11.dtd"><svg width="100%" height="100%" viewBox="0 0 683 435" version="1.1" xmlns="http://www.w3.org/2000/svg" xmlns:xlink="http://www.w3.org/1999/xlink" xml:space="preserve" xmlns:serif="http://www.serif.com/" style="fill-rule:evenodd;clip-rule:evenodd;stroke-miterlimit:22.926;"><g id="OBJECTS"><path d="M606.641,34.599c-6.24,0 -11.301,-5.059 -11.301,-11.299c0,-6.241 5.061,-11.3 11.301,-11.3c6.24,0 11.299,5.059 11.299,11.3c0,6.24 -5.059,11.299 -11.299,11.299m-479.81,270.924l-58.844,0l-1.531,0c-32.494,0 -59.078,26.585 -59.078,59.078c0,32.494 26.584,59.08 59.078,59.08l510.501,0c52.618,0 95.666,-43.05 95.666,-95.665l0,-0.001c0,-52.615 -43.048,-95.665 -95.666,-95.665c-22.246,0 -40.449,-18.202 -40.449,-40.449c0,-22.247 18.203,-40.449 40.449,-40.449l48.682,0c23.131,0 42.053,-18.924 42.053,-42.055c0,-23.13 -18.924,-42.053 -42.053,-42.053l-61.559,0c-9.003,0 -16.371,-7.369 -16.371,-16.373c0,-9.005 7.368,-16.372 16.371,-16.372l10.852,0c6.213,0 11.299,-5.085 11.299,-11.299c0,-6.216 -5.086,-11.3 -11.299,-11.3l-40.67,0l-30.537,0c-14.996,0 -16.666,17.716 -54.545,17.716l-87.836,0c-8.111,0 -14.744,6.636 -14.744,14.743l0,0.001c0,8.109 6.635,14.744 14.744,14.744l14.158,0c11.75,0 21.364,9.615 21.364,21.363l0,0.001c0,11.75 -9.614,21.364 -21.364,21.364l-42.615,0c-57.544,0 -65.672,15.038 -75.75,44.948c-10.079,29.91 -62.42,32.321 -62.42,32.321l-71.572,0c-17.707,0 -32.194,14.488 -32.194,32.194l0,0.001c0,17.707 14.487,32.195 32.194,32.195l3.686,0c17.031,0 30.966,13.935 30.966,30.966c0,17.032 -13.935,30.966 -30.966,30.966" style="fill:#e1e8f6;"/><path d="M617.809,21.57l-10.326,0l0,12.999c-0.194,0.014 -0.387,0.022 -0.582,0.027l0,-13.026l-11.428,0c0.029,-0.195 0.065,-0.389 0.104,-0.581l22.127,0c0.041,0.192 0.074,0.386 0.105,0.581m-110.416,19.656l0,19.075l-32.873,0l-0.016,0l-32.871,0l0,-19.075l65.76,0Zm-33.17,19.656l0,19.076l-32.873,0l-0.016,0l-32.873,0l0,-19.076l65.762,0Zm66.34,0l0,19.076l-32.873,0l-0.016,0l-32.871,0l0,-19.076l65.76,0Zm-33.17,19.656l0,19.075l-32.873,0l-0.016,0l-32.871,0l0,-19.075l65.76,0Zm66.338,0l0,19.075l-32.871,0l-0.016,0l-32.871,0l0,-19.075l65.758,0Zm66.34,0l0,19.075l-32.871,0l-0.016,0l-32.871,0l0,-19.075l65.758,0Zm-165.848,19.656l0,19.076l-32.873,0l-0.016,0l-32.873,0l0,-19.076l65.762,0Zm66.34,0l0,19.076l-32.873,0l-0.016,0l-32.871,0l0,-19.076l65.76,0Zm66.338,0l0,19.076l-32.871,0l-0.016,0l-32.871,0l0,-19.076l65.758,0Zm-232.19,19.656l0,19.076l-32.871,0l-0.015,0l-32.872,0l0,-19.076l65.758,0Zm66.342,0l0,19.076l-32.873,0l-0.016,0l-32.871,0l0,-19.076l65.76,0Zm66.34,0l0,19.076l-32.873,0l-0.016,0l-32.871,0l0,-19.076l65.76,0Zm66.338,0l0,19.076l-32.871,0l-0.016,0l-32.871,0l0,-19.076l65.758,0Zm66.34,0l0,19.076l-32.871,0l-0.016,0l-32.871,0l0,-19.076l65.758,0Zm-298.53,19.657l0,19.075l-32.871,0l-0.015,0l-32.872,0l0,-19.075l65.758,0Zm66.34,0l0,19.075l-32.871,0l-0.015,0l-32.872,0l0,-19.075l65.758,0Zm66.342,0l0,19.075l-32.873,0l-0.016,0l-32.873,0l0,-19.075l65.762,0Zm66.34,0l0,19.075l-32.873,0l-0.016,0l-32.871,0l0,-19.075l65.76,0Zm-165.852,19.655l0,19.076l-32.871,0l-0.015,0l-32.872,0l0,-19.076l65.758,0Zm66.342,0l0,19.076l-32.873,0l-0.016,0l-32.871,0l0,-19.076l65.76,0Zm66.34,0l0,19.076l-32.873,0l-0.016,0l-32.871,0l0,-19.076l65.76,0Zm-232.19,19.657l0,19.075l-32.873,0l-0.015,0l-32.872,0l0,-19.075l65.76,0Zm66.338,0l0,19.075l-32.871,0l-0.015,0l-32.872,0l0,-19.075l65.758,0Zm66.34,0l0,19.075l-32.871,0l-0.015,0l-32.872,0l0,-19.075l65.758,0Zm66.342,0l0,19.075l-32.873,0l-0.016,0l-32.873,0l0,-19.075l65.762,0Zm-232.19,19.656l0,19.075l-32.873,0l-0.015,0l-32.872,0l0,-19.075l65.76,0Zm66.339,0l0,19.075l-32.872,0l-0.015,0l-32.872,0l0,-19.075l65.759,0Zm66.339,0l0,19.075l-32.871,0l-0.015,0l-32.872,0l0,-19.075l65.758,0Zm66.342,0l0,19.075l-32.873,0l-0.016,0l-32.871,0l0,-19.075l65.76,0Zm66.34,0l0,19.075l-32.873,0l-0.016,0l-32.871,0l0,-19.075l65.76,0Zm-232.19,19.656l0,19.075l-32.873,0l-0.015,0l-32.872,0l0,-19.075l65.76,0Zm66.338,0l0,19.075l-32.871,0l-0.015,0l-32.872,0l0,-19.075l65.758,0Zm66.34,0l0,19.075l-32.871,0l-0.015,0l-32.872,0l0,-19.075l65.758,0Zm66.342,0l0,19.075l-32.873,0l-0.016,0l-32.873,0l0,-19.075l65.762,0Zm66.34,0l0,19.075l-32.873,0l-0.016,0l-32.871,0l0,-19.075l65.76,0Zm-165.852,19.656l0,19.075l-32.871,0l-0.015,0l-32.872,0l0,-19.075l65.758,0Zm66.342,0l0,19.075l-32.873,0l-0.016,0l-32.871,0l0,-19.075l65.76,0Zm66.34,0l0,19.075l-32.873,0l-0.016,0l-32.871,0l0,-19.075l65.76,0Zm66.338,0l0,19.075l-32.871,0l-0.016,0l-32.871,0l0,-19.075l65.758,0Zm-165.85,19.656l0,19.076l-32.871,0l-0.015,0l-32.872,0l0,-19.076l65.758,0Zm66.342,0l0,19.076l-32.873,0l-0.016,0l-32.873,0l0,-19.076l65.762,0Zm66.34,0l0,19.076l-32.873,0l-0.016,0l-32.871,0l0,-19.076l65.76,0Zm66.338,0l0,19.076l-32.871,0l-0.016,0l-32.871,0l0,-19.076l65.758,0Zm-232.19,19.656l0,19.076l-32.871,0l-0.015,0l-32.872,0l0,-19.076l65.758,0Zm66.342,0l0,19.076l-32.873,0l-0.016,0l-32.871,0l0,-19.076l65.76,0Zm66.34,0l0,19.076l-32.873,0l-0.016,0l-32.871,0l0,-19.076l65.76,0Zm66.338,0l0,19.076l-32.871,0l-0.016,0l-32.871,0l0,-19.076l65.758,0Zm66.34,0l0,19.076l-32.871,0l-0.016,0l-32.871,0l0,-19.076l65.758,0Zm-232.19,19.656l0,19.076l-32.871,0l-0.015,0l-32.872,0l0,-19.076l65.758,0Zm66.342,0l0,19.076l-32.873,0l-0.016,0l-32.873,0l0,-19.076l65.762,0Zm66.34,0l0,19.076l-32.873,0l-0.016,0l-32.871,0l0,-19.076l65.76,0Zm66.338,0l0,19.076l-32.871,0l-0.016,0l-32.871,0l0,-19.076l65.758,0Zm-232.19,19.656l0,19.076l-32.871,0l-0.015,0l-32.872,0l0,-19.076l65.758,0Zm66.342,0l0,19.076l-32.873,0l-0.016,0l-32.871,0l0,-19.076l65.76,0Zm66.34,0l0,19.076l-32.873,0l-0.016,0l-32.871,0l0,-19.076l65.76,0Zm66.338,0l0,19.076l-32.871,0l-0.016,0l-32.871,0l0,-19.076l65.758,0Zm66.34,0l0,19.076l-32.871,0l-0.016,0l-32.871,0l0,-19.076l65.758,0Zm-232.19,19.656l0,19.077l-32.871,0l-0.015,0l-32.872,0l0,-19.077l65.758,0Zm66.342,0l0,19.077l-32.873,0l-0.016,0l-32.873,0l0,-19.077l65.762,0Zm66.34,0l0,19.077l-32.873,0l-0.016,0l-32.871,0l0,-19.077l65.76,0Zm66.338,0l0,19.077l-32.871,0l-0.016,0l-32.871,0l0,-19.077l65.758,0Zm-232.19,19.656l0,19.076l-32.871,0l-0.015,0l-32.872,0l0,-19.076l65.758,0Zm66.342,0l0,19.076l-32.873,0l-0.016,0l-32.871,0l0,-19.076l65.76,0Zm66.34,0l0,19.076l-32.873,0l-0.016,0l-32.871,0l0,-19.076l65.76,0Zm66.338,0l0,19.076l-32.871,0l-0.016,0l-32.871,0l0,-19.076l65.758,0Zm66.34,0l0,19.076l-32.871,0l-0.016,0l-32.871,0l0,-19.076l65.758,0Zm-364.868,19.656l0,19.076l-32.873,0l-0.015,0l-32.872,0l0,-19.076l65.76,0Zm66.338,0l0,19.076l-32.871,0l-0.015,0l-32.872,0l0,-19.076l65.758,0Zm66.34,0l0,19.076l-32.871,0l-0.015,0l-32.872,0l0,-19.076l65.758,0Zm66.342,0l0,19.076l-32.873,0l-0.016,0l-32.873,0l0,-19.076l65.762,0Zm66.34,0l0,19.076l-32.873,0l-0.016,0l-32.871,0l0,-19.076l65.76,0Zm66.338,0l0,19.076l-32.871,0l-0.016,0l-32.871,0l0,-19.076l65.758,0Zm-364.868,19.656l0,19.076l-32.873,0l-0.015,0l-32.872,0l0,-19.076l65.76,0Zm66.339,0l0,19.076l-32.872,0l-0.015,0l-32.872,0l0,-19.076l65.759,0Zm66.339,0l0,19.076l-32.871,0l-0.015,0l-32.872,0l0,-19.076l65.758,0Zm66.342,0l0,19.076l-32.873,0l-0.016,0l-32.871,0l0,-19.076l65.76,0Zm66.34,0l0,19.076l-32.873,0l-0.016,0l-32.871,0l0,-19.076l65.76,0Zm66.338,0l0,19.076l-32.871,0l-0.016,0l-32.871,0l0,-19.076l65.758,0Zm-364.869,28.646l0.581,0l0,-8.99l65.76,0l0,8.99l0.58,0l0,-8.99l65.758,0l0,8.99l0.582,0l0,-8.99l65.758,0l0,8.99l0.58,0l0,-8.99l65.762,0l0,8.99l0.58,0l0,-8.99l65.76,0l0,8.99l0.58,0l0,-8.99l65.758,0l0,4.156c0.193,-0.065 0.388,-0.125 0.582,-0.19l0,-3.966l9.828,0c0.41,-0.192 0.818,-0.382 1.225,-0.58l-11.336,0l-0.016,0l-32.871,0l0,-19.076l65.758,0l0,4.714c0.195,-0.172 0.388,-0.343 0.58,-0.515l0,-4.199l4.4,0c0.192,-0.192 0.379,-0.385 0.567,-0.58l-5.248,0l-0.016,0l-32.871,0l0,-19.076l52.506,0c0.111,-0.192 0.216,-0.387 0.326,-0.58l-19.664,0l0,-19.076l27.849,0c0.059,-0.193 0.116,-0.387 0.174,-0.579l-28.304,0l-0.016,0l-32.871,0l0,-19.077l64.795,0c0.017,-0.194 0.037,-0.386 0.052,-0.58l-31.679,0l0,-19.076l31.262,0c-0.024,-0.193 -0.043,-0.387 -0.069,-0.58l-31.474,0l-0.016,0l-32.871,0l0,-19.076l59.857,0c-0.068,-0.194 -0.136,-0.388 -0.205,-0.58l-26.484,0l0,-19.076l17.189,0c-0.121,-0.194 -0.24,-0.388 -0.363,-0.58l-17.107,0l-0.016,0l-32.871,0l0,-19.076l33.887,0c-0.213,-0.196 -0.43,-0.388 -0.647,-0.581l-0.072,0l0,-0.064c-0.192,-0.172 -0.385,-0.344 -0.58,-0.515l0,0.579l-32.871,0l-0.016,0l-32.871,0l0,-19.075l34.338,0c-0.58,-0.206 -1.164,-0.407 -1.75,-0.602l0,0.021l-32.871,0l-0.016,0l-32.871,0l0,-19.075l5.088,0c-0.164,-0.192 -0.328,-0.386 -0.49,-0.581l-4.881,0l-0.016,0l-32.871,0l0,-19.075l29.076,0c-0.031,-0.194 -0.062,-0.386 -0.092,-0.581l-29.267,0l-0.016,0l-32.871,0l0,-19.075l63.891,0c0.068,-0.195 0.136,-0.388 0.205,-0.581l-30.926,0l0,-19.076l45.307,0c0.269,-0.196 0.543,-0.39 0.818,-0.58l-12.955,0l0,-19.075l65.758,0l0,11.945l0.582,0l0,-11.945l47.439,0c0.198,-0.192 0.393,-0.386 0.586,-0.581l-14.857,0l0,-19.076l25.719,0c0.048,-0.193 0.095,-0.386 0.142,-0.58l-26.142,0l-0.016,0l-32.871,0l0,-19.076l59.185,0c-0.043,-0.194 -0.088,-0.388 -0.134,-0.581l-25.883,0l0,-19.075l15.504,0c-0.184,-0.196 -0.371,-0.388 -0.561,-0.58l-15.224,0l-0.016,0l-32.871,0l0,-12.614l-0.582,0l0,12.614l-32.871,0l-0.016,0l-32.871,0l0,-19.076l9.93,0c-0.145,-0.19 -0.287,-0.384 -0.424,-0.581l-9.789,0l-0.016,0l-32.871,0l0,-19.075l42.975,0c0.146,-0.198 0.297,-0.391 0.453,-0.581l-10.258,0l0,-19.075l44.955,0c-0.031,-0.195 -0.066,-0.389 -0.105,-0.581l-11.68,0l0,-8.989l-0.582,0l0,8.989l-32.871,0l-0.016,0l-32.871,0l0,-8.989l-0.58,0l0,8.989l-22.57,0c-0.311,0.194 -0.625,0.388 -0.948,0.581l56.688,0l0,19.075l-32.873,0l-0.016,0l-32.871,0l0,-14.746c-0.191,0.068 -0.387,0.136 -0.58,0.204l0,14.542l-32.873,0l-0.016,0l-32.873,0l0,-10.929l-0.58,0l0,10.929l-32.871,0l-0.015,0l-27.891,0c-0.053,0.193 -0.1,0.386 -0.145,0.581l27.752,0l0,17.978l0.582,0l0,-17.978l65.76,0l0,19.075l-32.873,0l-0.016,0l-25.921,0c0.521,0.175 1.033,0.368 1.535,0.581l24.103,0l0,19.076l-11.025,0c0.006,0.193 0.01,0.385 0.01,0.58l44.187,0l0,19.075l-32.873,0l-0.016,0l-23.011,0c-0.406,0.207 -0.817,0.4 -1.235,0.581l23.963,0l0,19.076l-32.871,0l-0.015,0l-32.872,0l0,-17.338l-0.582,0l0,17.338l-32.871,0l-0.015,0l-32.872,0l0,-5c-0.195,0.154 -0.39,0.308 -0.58,0.464l0,4.536l-4.629,0c-0.164,0.191 -0.327,0.385 -0.489,0.58l38.287,0l0,19.076l-32.872,0l-0.015,0l-15.547,0c-0.072,0.192 -0.143,0.387 -0.215,0.581l15.48,0l0,19.075l-25.157,0c-0.18,0.195 -0.362,0.389 -0.547,0.58l58.873,0l0,19.076l-32.872,0l-0.015,0l-32.872,0l0,-13.336c-0.194,0.131 -0.386,0.265 -0.58,0.395l0,12.941l-32.873,0l-0.015,0l-5.245,0c-1.754,0.251 -3.314,0.44 -4.632,0.581l9.594,0l0,19.075l-32.872,0l-0.014,0l-17.127,0c0.058,0.194 0.115,0.387 0.174,0.581l16.67,0l0,19.075l-7.263,0c0.139,0.195 0.283,0.387 0.424,0.581l40.008,0l0,19.075l-18.396,0c0.356,0.197 0.715,0.39 1.075,0.581l50.492,0l0,8.816c0.193,0.038 0.387,0.073 0.58,0.112l0,-8.928l65.759,0l0,19.075l-32.872,0l-0.015,0l-9.396,0c0.274,0.192 0.547,0.385 0.817,0.581l8.297,0l0,7.151c0.193,0.198 0.389,0.394 0.58,0.596l0,-7.747l65.758,0l0,19.076l-32.871,0l-0.015,0l-24.257,0c0.116,0.192 0.231,0.385 0.345,0.58l23.629,0l0,19.076l-16.304,0c0.039,0.192 0.074,0.387 0.113,0.58l49.36,0l0,19.076l-32.871,0l-0.015,0l-15.659,0c-0.021,0.194 -0.045,0.387 -0.067,0.58l15.443,0l0,19.076l-20.838,0c-0.09,0.194 -0.181,0.387 -0.272,0.58l54.279,0l0,19.077l-32.871,0l-0.015,0l-32.872,0l0,-2.4c-0.191,0.201 -0.387,0.398 -0.58,0.596l0,1.804l-1.834,0c-0.206,0.194 -0.414,0.386 -0.623,0.579l35.626,0l0,19.076l-32.872,0l-0.015,0l-32.872,0l0,-3.581c-0.193,0.04 -0.387,0.075 -0.58,0.113l0,3.468l-32.873,0l-0.015,0l-12.594,0c-0.669,0.184 -1.335,0.375 -1.994,0.58l14.305,0l0,19.076l-32.872,0l-0.014,0l-10.705,0c-0.169,0.193 -0.336,0.386 -0.502,0.58l10.924,0l0,19.076l-22.236,0c-0.072,0.194 -0.148,0.386 -0.219,0.58l55.624,0l0,8.99Z" style="fill:#9fb2d9;"/><path d="M126.831,305.523l-58.844,0l-1.531,0c-32.494,0 -59.078,26.585 -59.078,59.078c0,32.493 26.584,59.079 59.078,59.079l340.845,0l0,-393.965l-45.957,0c-8.111,0 -14.744,6.637 -14.744,14.744l0,0.001c0,8.108 6.635,14.744 14.744,14.744l14.158,0c11.75,0 21.364,9.614 21.364,21.363l0,0.001c0,11.749 -9.614,21.364 -21.364,21.364l-42.615,0c-57.544,0 -65.672,15.038 -75.75,44.947c-10.078,29.911 -62.42,32.322 -62.42,32.322l-71.572,0c-17.707,0 -32.194,14.488 -32.194,32.194l0,0.001c0,17.707 14.487,32.194 32.194,32.194l3.686,0c17.031,0 30.966,13.936 30.966,30.967c0,17.031 -13.935,30.966 -30.966,30.966" style="fill:#c9d3ec;"/><path d="M207.81,423.681l83.39,0l0,-161.59c0,-4.373 -3.577,-7.95 -7.951,-7.95l-67.489,0c-4.373,0 -7.95,3.577 -7.95,7.95l0,161.59Z" style="fill:#b1c1e4;"/><path d="M170.47,423.681l83.39,0l0,-125.279c0,-4.373 -3.578,-7.95 -7.95,-7.95l-67.49,0c-4.373,0 -7.95,3.577 -7.95,7.95l0,125.279Z" style="fill:#bdcae8;"/><path d="M316.524,423.681l68.517,0l0,-101.318c0,-3.593 -2.941,-6.532 -6.533,-6.532l-55.453,0c-3.593,0 -6.531,2.939 -6.531,6.532l0,101.318Z" style="fill:#b1c1e4;"/><path d="M269.68,120.343l52.477,0l0,67.387l-64.032,0l0,-43.748c3.278,-9.478 6.528,-17.36 11.555,-23.639" style="fill:#9fb2d9;"/><path d="M270.512,119.34l53.149,0l0,67.223l-64.032,0l0,-46.804c2.986,-8.105 6.173,-14.915 10.883,-20.419" style="fill:#b4c5e6;"/><path d="M265.042,127.408l0,53.742l53.206,0l0,-56.397l-51.664,0c-0.534,0.861 -1.047,1.745 -1.542,2.655" style="fill:#fff;"/><path d="M265.042,127.408l0,53.742l53.206,0l-52.266,-55.4c-0.32,0.544 -0.634,1.096 -0.94,1.658" style="fill:#ebf2f3;"/><path d="M278.413,138.926l26.464,0l0,28.052l-26.464,0l0,-28.052Zm-8.117,36.654l42.696,0l0,-45.257l-42.696,0l0,45.257Z" style="fill:#c0cdea;"/><path d="M270.296,130.323l0,45.257l42.696,0l-8.115,-8.602l-26.465,0l0,-28.052l-8.116,-8.603Z" style="fill:#b4c5e6;"/><rect x="336" y="120.343" width="64.031" height="52.208" style="fill:#9fb2d9;"/><rect x="337.503" y="119.34" width="64.032" height="52.208" style="fill:#b4c5e6;"/><rect x="342.916" y="124.753" width="53.205" height="41.383" style="fill:#fff;"/><path d="M342.916,124.753l0,41.383l53.205,0l-53.205,-41.383Z" style="fill:#e1e8f6;"/><path d="M411.512,418.364l0,-89.038c0,-0.547 -0.447,-0.993 -0.992,-0.993l-0.733,0c-0.545,0 -0.992,0.446 -0.992,0.993l0,89.038c0,0.547 0.447,0.992 0.992,0.992l0.733,0c0.545,0 0.992,-0.445 0.992,-0.992" style="fill:#00000f;"/><path d="M411.52,325.795l-2.733,0c-2.041,0 -3.71,1.67 -3.71,3.71l0,3.596c0,2.04 1.669,3.71 3.71,3.71l2.733,0c2.041,0 3.711,-1.67 3.711,-3.71l0,-3.596c0,-2.04 -1.671,-3.71 -3.712,-3.71" style="fill:#141a33;"/><path d="M413.289,416.797l-4.506,0c-1.092,0 -1.984,0.893 -1.984,1.983l0,1.462c0,1.092 0.892,1.985 1.984,1.985l4.506,0c1.09,0 1.984,-0.893 1.984,-1.985l0,-1.462c0,-1.09 -0.894,-1.983 -1.984,-1.983" style="fill:#141a33;"/><path d="M422.992,419.512l-23.912,0c-1.676,0 -3.047,1.371 -3.047,3.047l0,2.245c0,1.676 1.371,3.047 3.047,3.047l23.912,0c1.674,0 3.045,-1.371 3.045,-3.047l0,-2.245c0,-1.676 -1.371,-3.047 -3.045,-3.047" style="fill:#0e173f;"/><path d="M429.203,327.64c0,-1.441 -1.18,-2.619 -2.619,-2.619l-32.861,0c-1.44,0 -2.62,1.178 -2.62,2.619c0,1.441 1.18,2.619 2.62,2.619l32.861,0c1.439,0 2.619,-1.178 2.619,-2.619" style="fill:#030822;"/><path d="M436.244,326.561l0,-0.001c0,-0.811 -0.664,-1.477 -1.477,-1.477l-49.179,0c-0.813,0 -1.477,0.666 -1.477,1.477l0,0.001c0,0.812 0.664,1.477 1.477,1.477l49.179,0c0.813,0 1.477,-0.665 1.477,-1.477" style="fill:#00000f;"/><path d="M371.094,319.437l79.436,0c1.959,0 3.562,1.603 3.562,3.562c0,1.959 -1.603,3.562 -3.562,3.562l-79.436,0c-1.959,0 -3.563,-1.603 -3.563,-3.563c0,-1.959 1.604,-3.562 3.563,-3.562" style="fill:#e13c83;"/><path d="M406.678,319.437l43.852,0c1.959,0 3.562,1.603 3.562,3.562c0,1.959 -1.603,3.562 -3.562,3.562l-43.852,0c-1.959,0 -3.563,-1.603 -3.563,-3.563c0,-1.959 1.604,-3.562 3.563,-3.562" style="fill:#b83470;"/><path d="M412.871,398.143l-3.379,2.584l1.981,21.37c0,0 0.076,1.584 0.804,1.584l1.18,0c0,0 0.559,-0.154 0.502,-1.096c-0.057,-0.941 -0.567,-21.18 -0.567,-21.18l-0.521,-3.262Z" style="fill:#2c3049;"/><path d="M488.82,398.143l-3.379,2.584l1.981,21.37c0,0 0.076,1.584 0.804,1.584l1.18,0c0,0 0.559,-0.154 0.502,-1.096c-0.059,-0.941 -0.567,-21.18 -0.567,-21.18l-0.521,-3.262Z" style="fill:#2c3049;"/><path d="M414.186,390.916c-0.001,0 -4.431,2.477 -4.812,3.381c-0.38,0.905 -1.334,4.953 -0.285,6.43c1.048,1.476 4.144,2.618 4.858,3.524c0.715,0.904 4.429,16.62 4.429,16.62c0,0 0.572,2.81 3.81,2.81l19.382,0c0,0 0.93,-0.191 0.904,-1.453c-0.012,-0.695 -0.573,-1.709 -1.077,-2.479c-1.012,-1.551 -2.382,-1.64 -3.397,-1.64l-10.122,-2.692l-5.856,-14.668l-3.762,-10.43c0,0 -2.906,-1 -4.072,0.597" style="fill:#2c3049;"/><path d="M440.951,366.486c-1.852,2.907 -17.623,23.954 -17.047,26.17c0.84,3.233 3.551,12.395 4.475,15.548c2.283,7.81 5.285,7.382 6.666,7.382c1.381,0 2.519,0.909 2.953,2.523l-10.715,0c-2.096,0 -3.525,-1.238 -4.191,-3.238c-0.666,-2 -4.953,-19.86 -5.383,-21.621c-0.428,-1.763 -2.477,-2.525 -3.524,-2.334l11.049,-28.098l15.717,3.668Z" style="fill:#f5ac83;"/><path d="M490.193,390.916c0,0 -4.43,2.477 -4.811,3.381c-0.38,0.905 -1.334,4.953 -0.285,6.43c1.047,1.476 4.143,2.618 4.858,3.524c0.713,0.904 4.427,16.62 4.427,16.62c0,0 0.573,2.81 3.811,2.81l19.383,0c0,0 0.928,-0.191 0.904,-1.453c-0.014,-0.695 -0.576,-1.709 -1.078,-2.479c-1.014,-1.551 -2.383,-1.64 -3.397,-1.64l-10.121,-2.692l-5.859,-14.668l-3.762,-10.43c0,0 -2.904,-1 -4.07,0.597" style="fill:#2c3049;"/><path d="M490.289,366.867c0,0 11.811,33.526 14.096,41.337c2.285,7.81 5.287,7.382 6.668,7.382c1.381,0 2.519,0.909 2.953,2.523l-10.717,0c-2.094,0 -3.523,-1.238 -4.189,-3.238c-0.668,-2 -4.954,-19.859 -5.383,-21.621c-0.428,-1.763 -2.477,-2.525 -3.524,-2.334l-9.144,-18.192l9.24,-5.857Z" style="fill:#f5ac83;"/><path d="M396.982,252.074l-11.158,7.576c0,0 -3.307,-0.471 -5.828,3.739c-4.936,8.241 -10.662,25.257 -9.276,34.711c2.096,14.287 8.192,21.336 27.051,21.336l39.68,0c1.238,0 -24.908,60.243 -25.67,62.91c-0.762,2.667 34.67,13.334 50.48,7.43c0,0 1.047,-0.667 1.239,-2.572c0.191,-1.904 0.095,-4.333 0.095,-4.333c0,0 26.86,-7.716 30.766,-13.906c0,0 0.381,-0.929 -0.025,-2.311c-0.305,-1.04 -11.067,-37.815 -22.303,-59.645c-13.297,-25.835 -20.649,-22.888 -46.469,-22.509c0,0 -0.545,-7.668 -1.598,-11.191c0.286,-4.19 -26.984,-21.235 -26.984,-21.235" style="fill:#030822;"/><path d="M463.596,382.871c0,0 8.682,-2.494 16.891,-5.784c-2.641,-2.469 -6.944,-6.764 -7.467,-8.989c-0.762,-3.24 -5.524,-40.123 -5.977,-40.242c-0.451,-0.119 -0.523,0.429 -0.523,0.429l-2.924,54.586Z" style="fill:#00000f;"/><path d="M429.336,197.49l7.049,7.119c4.545,6.842 27.051,52.894 53.097,61.811c3.583,1.226 -10.978,2.575 -10.691,3.527c0.014,0.053 -13.418,-6.768 -22.525,-13.43c-3.905,-2.857 -21.334,-19.241 -21.334,-19.241c0,0 -12.17,-32.168 -5.596,-39.786" style="fill:#2c3049;"/><path d="M408.324,191.895c4.49,0.581 9.338,1.491 14.994,2.201c6.164,1.803 8.383,5.75 10.297,10.754c1.582,4.142 6.244,23.174 6.08,24.883c0.07,4.03 -2.701,9.777 -8.418,16.15c-2.387,8.581 -6.01,22.763 -6.502,25.495c-2.312,12.84 -49.422,-1.244 -46.994,-6.944c12.109,-28.454 3.488,-44.671 5.244,-55.913c0.084,-0.545 0.17,-1.075 0.254,-1.59l5.613,-3.631l-1.884,-3.268c0,0 6.416,-5.393 19.461,-7.762c0.691,-0.126 1.304,-0.251 1.855,-0.375" style="fill:#1874ba;"/><path d="M408.941,173.75l-0.25,4.748c0,0 -0.924,9.688 -1.064,11.159c-0.122,1.275 -2.426,2.528 -5.846,2.924c-1.627,0.188 0.08,2.942 3.221,5.94c6.322,6.035 10.789,2.414 14.193,2.261c7.441,-0.334 9.189,-6.721 5.742,-7.139c-0.975,-0.119 -2.258,-0.52 -3.31,-1.912c-1.45,-1.919 -0.625,-9.784 1.189,-11.688c1.816,-1.905 -13.875,-6.293 -13.875,-6.293" style="fill:#ee9073;"/><path d="M419.195,200.782c-3.85,22.618 -30.021,-12.247 -14.943,-8.683c0,0 2.902,7.45 14.943,8.683" style="fill:#fff;"/><path d="M424.965,193.659c0,0 0.719,5.496 -5.77,7.124c0,0 2.401,7.213 6.77,6.213c4.367,-1.001 4.312,-14.402 -1,-13.337" style="fill:#fff;"/><path d="M432.861,161.603c0.238,0.12 0.527,0.022 0.648,-0.215c0.12,-0.239 0.022,-0.53 -0.216,-0.648c-0.008,-0.005 -2.877,-1.526 -5.448,0.016c-0.228,0.138 -0.302,0.435 -0.166,0.663c0.137,0.23 0.434,0.304 0.664,0.167c2.102,-1.262 4.51,0.013 4.518,0.017" style="fill:#301814;"/><path d="M404.791,126.479c7.264,0.91 12.416,7.536 11.506,14.799c-0.91,7.264 -7.535,12.416 -14.799,11.507c-7.266,-0.91 -12.416,-7.535 -11.506,-14.8c0.908,-7.264 7.533,-12.415 14.799,-11.506" style="fill:#00000f;"/><path d="M404.523,131.416c2.9,0.363 4.955,3.008 4.594,5.907c-0.364,2.9 -3.008,4.956 -5.908,4.593c-2.899,-0.363 -4.957,-3.008 -4.594,-5.907c0.363,-2.9 3.01,-4.956 5.908,-4.593" style="fill:#e94d90;"/><path d="M400.256,151.963c0.178,-0.01 0.33,0.125 0.34,0.303c0.01,0.177 -0.125,0.33 -0.303,0.34c-0.021,0.001 -7.709,0.582 -11.891,-10.616c-0.062,-0.166 0.024,-0.352 0.19,-0.414c0.166,-0.062 0.351,0.024 0.414,0.19c4.012,10.746 11.229,10.198 11.25,10.197" style="fill:#00000f;"/><path d="M436.516,165.393c-2.861,-0.413 -5.516,1.571 -5.93,4.431c-0.414,2.861 1.573,5.515 4.432,5.929c2.861,0.413 5.516,-1.571 5.93,-4.431c0.412,-2.861 -1.571,-5.515 -4.432,-5.929" style="fill:#e9695b;"/><path d="M442.156,162.22c0,0 -3.688,16 -7.059,15.906c1.614,-9.305 -0.724,-10.172 -2.168,-12.734l9.227,-3.172Z" style="fill:#00000f;"/><path d="M400.354,157.753c-4.94,14.322 -5.014,21.194 1.736,25.381c6.75,4.187 18.534,2.713 18.534,2.713l-20.27,-28.094Z" style="fill:#00000f;stroke:#1a1a18;stroke-width:0.57px;"/><path d="M428.703,129.39c-6.854,-1.503 -11.623,-0.409 -12.896,-0.154c-3.157,0.63 -6.918,5.379 -6.918,5.379c0,0 -2.286,-2.617 -4.821,-1.722c-2.535,0.894 -12.406,14.948 -12.877,18.711c-0.472,3.764 6.899,12.945 6.899,12.945c1.793,-0.114 1.586,1.543 1.586,1.543l-0.34,2.708c0.914,0.115 1.23,-1.198 1.381,-2.391c0.148,-1.193 0.308,-2.478 0.308,-2.478c0,0 2.578,-3.137 3.026,-6.717l6.091,0.762c0.499,0.062 1.045,-0.412 1.221,-0.921c0.176,-0.51 0.942,-3.939 1.154,-4.751c0.213,-0.812 0.541,-1.191 0.678,-0.95c0.139,0.241 -0.109,3.119 -0.064,4.999c0.043,1.85 1.256,2.151 1.295,2.16l6.855,0.858l7.422,-29.981Z" style="fill:#00000f;"/><path d="M400.24,160.21c-0.131,0.001 -0.26,0.006 -0.389,0.017l-0.004,0c-2.377,0.195 -4.39,2.007 -4.746,4.468c-0.414,2.861 1.571,5.515 4.432,5.929c2.859,0.413 5.516,-1.571 5.928,-4.431c0.242,-1.663 -0.328,-3.255 -1.41,-4.379c-0.059,1.55 -0.541,3.417 -2.52,3.362l0.43,-2.987c0.175,-1.209 -0.885,-1.909 -1.721,-1.979" style="fill:#e9695b;"/><path d="M423.742,136.804c-9.758,-1.411 -18.895,5.419 -20.305,15.178l-2.332,16.124c-1.41,9.76 5.42,18.897 15.178,20.307c9.76,1.411 18.897,-5.419 20.309,-15.178l2.33,-16.124c1.41,-9.759 -5.42,-18.896 -15.18,-20.307" style="fill:#f5ac83;"/><path d="M423.742,136.804c-9.758,-1.411 -18.895,5.419 -20.305,15.178l-2.332,16.125c-1.41,9.759 5.42,18.896 15.178,20.306c0.363,0.053 0.727,0.093 1.088,0.123c-11.361,-2.118 -11.717,-13.11 -11.186,-20.112c0.534,-7.004 4.955,-13.737 7.369,-16.151c2.417,-2.413 7.012,-0.2 9.01,3.456c2,3.657 6.774,7.242 6.858,7.313c0.082,0.072 2.605,0.485 2.605,0.485l3.006,-7.165c0,0 -3.379,-11.159 -5.762,-17.808c-1.693,-0.86 -3.55,-1.464 -5.529,-1.75" style="fill:#ee9073;"/><path d="M407.68,154.956c0,0 -3.688,15.999 -7.059,15.906c1.614,-9.305 -0.724,-10.173 -2.168,-12.734l9.227,-3.172Z" style="fill:#00000f;"/><path d="M419.596,141.244l-1.648,2.547c0,0 -3.571,-2.059 -5.35,2.975c-1.547,4.372 -5.268,14.219 -13.221,13.285c-1.205,-0.142 -2.058,0.486 -3.488,-0.262c0,0 1.814,-17.232 8.125,-21.435c6.309,-4.203 15.582,2.89 15.582,2.89" style="fill:#00000f;"/><path d="M418.873,144.576c5.016,3.879 7.016,12.281 11.332,17.852c-3.607,-2.954 -5.746,-7.368 -7.668,-11.336c-1.201,-2.479 -2.322,-4.791 -3.664,-6.516m-6.84,-2.088l0.102,-0.001c0.103,0.106 0.256,0.162 0.416,0.138c4.484,-0.671 6.615,3.725 9.115,8.889c2.527,5.215 5.416,11.176 11.453,13.857c0.49,0.372 1.006,0.712 1.555,1.009c10.01,5.425 20.527,-6.941 14.586,-20.299c-6.369,-14.327 -28.571,-24.939 -37.701,-9.68c0,0 -1.875,3.303 0.474,6.087" style="fill:#00000f;"/><path d="M385.451,201.731c-13.43,17.677 -24.666,37.877 -26.027,38.995c-1.584,1.302 -2.469,1.418 -4.725,0.346c-2.254,-1.071 -26.008,-20.302 -26.811,-20.442c-0.801,-0.139 -5.039,4.155 -5.262,5.161c-0.223,1.005 25.255,27.617 29.386,29.986c4.132,2.369 11.24,1.452 15.058,-1.795c2.77,-2.355 14.092,-14.84 20.117,-21.537c6.387,-7.062 9.616,-20.945 9.725,-21.426c0.775,-5.398 0.336,-10.541 -3.367,-12.486c-2.686,-0.816 -5.678,0.019 -8.094,3.197" style="fill:#2c3049;"/><path d="M337.777,386.85c0,0 -3.967,2.775 -4.197,3.612c-0.228,0.837 -0.509,4.477 0.765,5.604c1.275,1.128 4.515,1.676 5.367,2.356c0.852,0.682 7.075,13.75 7.075,13.75c0,0 1.021,2.351 4.217,1.888c3.193,-0.462 19.123,-2.767 19.123,-2.767c0,0 0.884,-0.297 0.656,-1.385c-0.125,-0.601 -0.846,-1.398 -1.467,-1.992c-1.252,-1.198 -2.617,-1.08 -3.619,-0.934l-10.424,-0.884l-8.166,-11.858l-5.41,-8.487c0,0 -3.029,-0.451 -3.92,1.097" style="fill:#e94d90;"/><path d="M335.975,367.294c0,0 15.091,26.059 18.619,32.49c3.525,6.432 6.418,5.633 7.779,5.436c1.363,-0.198 2.635,0.427 3.324,1.762c0,0 -8.504,1.23 -10.572,1.53c-2.067,0.299 -3.68,-0.57 -4.662,-2.204c-0.983,-1.636 -8.119,-16.479 -8.828,-17.942c-0.71,-1.464 -2.855,-1.831 -3.858,-1.516l-11.919,-14.1l10.117,-5.456Z" style="fill:#f5ac83;"/><path d="M277.956,401.272l-3.38,2.286l1.982,18.914c0,0 0.075,1.401 0.803,1.401l1.181,0c0,0 0.557,-0.137 0.5,-0.969c-0.056,-0.834 -0.566,-18.745 -0.566,-18.745l-0.52,-2.887Z" style="fill:#030822;"/><path d="M279.27,394.876c0,0 -4.43,2.191 -4.81,2.992c-0.382,0.801 -1.334,4.383 -0.286,5.69c1.048,1.306 4.143,2.318 4.857,3.12c0.715,0.8 4.429,14.709 4.429,14.709c0,0 0.571,2.486 3.81,2.486l19.383,0c0,0 0.929,-0.168 0.905,-1.285c-0.014,-0.616 -0.576,-1.513 -1.079,-2.194c-1.012,-1.372 -2.382,-1.452 -3.397,-1.452l-10.121,-2.381l-5.858,-12.983l-3.762,-9.23c0,0 -2.905,-0.885 -4.071,0.528" style="fill:#e94d90;"/><path d="M299.484,381.048c-3.498,4.444 -10.979,13.72 -10.496,15.368c0.839,2.861 3.551,10.97 4.474,13.761c2.285,6.912 5.286,6.532 6.667,6.532c1.381,0 2.52,0.805 2.953,2.234l-10.716,0c-2.095,0 -3.524,-1.096 -4.191,-2.867c-0.666,-1.77 -4.953,-17.576 -5.381,-19.135c-0.429,-1.559 -2.477,-2.233 -3.524,-2.065l7.676,-15.835c1.927,-0.223 13.459,0.836 12.538,2.007" style="fill:#f5ac83;"/><path d="M296.954,384.55c0,0 31.624,-50.929 33.643,-61.372c1.936,-10.022 3.797,-16.618 -56.971,-40.188c-2.491,-0.966 -4.464,-3.131 -7.355,-3.532c-41.852,7.2 -60.927,24.994 -2.755,30.566c47.077,4.507 40.355,20.542 40.355,20.542c0,0 -12.389,34.062 -18.334,49.588c-0.556,1.453 8.285,8.289 11.417,4.396" style="fill:#00000f;"/><path d="M266.378,416.992l0,-89.039c0,-0.546 -0.447,-0.993 -0.992,-0.993l-0.732,0c-0.545,0 -0.992,0.447 -0.992,0.993l0,89.039c0,0.546 0.447,0.992 0.992,0.992l0.732,0c0.545,0 0.992,-0.446 0.992,-0.992" style="fill:#00000f;"/><path d="M266.387,324.422l-2.733,0c-2.041,0 -3.71,1.67 -3.71,3.711l0,3.595c0,2.041 1.669,3.71 3.71,3.71l2.733,0c2.041,0 3.71,-1.669 3.71,-3.71l0,-3.595c0,-2.041 -1.669,-3.711 -3.71,-3.711" style="fill:#141a33;"/><path d="M267.273,415.554l-4.506,0c-1.092,0 -1.984,0.893 -1.984,1.984l0,1.462c0,1.092 0.892,1.985 1.984,1.985l4.506,0c1.091,0 1.984,-0.893 1.984,-1.985l0,-1.462c0,-1.091 -0.893,-1.984 -1.984,-1.984" style="fill:#0e173f;"/><path d="M276.976,418.27l-23.911,0c-1.676,0 -3.047,1.371 -3.047,3.047l0,2.243c0,1.678 1.371,3.048 3.047,3.048l23.911,0c1.676,0 3.046,-1.37 3.046,-3.048l0,-2.243c0,-1.676 -1.37,-3.048 -3.046,-3.048" style="fill:#0e173f;"/><path d="M284.07,326.267c0,-1.441 -1.179,-2.619 -2.62,-2.619l-32.86,0c-1.441,0 -2.62,1.178 -2.62,2.619c0,1.441 1.179,2.62 2.62,2.62l32.86,0c1.441,0 2.62,-1.179 2.62,-2.62" style="fill:#030822;"/><path d="M291.111,325.188c0,-0.813 -0.664,-1.478 -1.477,-1.478l-49.179,0c-0.812,0 -1.477,0.666 -1.477,1.478c0,0.811 0.665,1.477 1.477,1.477l49.179,0c0.813,0 1.477,-0.666 1.477,-1.477" style="fill:#00000f;"/><path d="M225.96,318.063l79.437,0c1.959,0 3.561,1.605 3.561,3.563l0,0.001c0,1.958 -1.602,3.561 -3.561,3.561l-79.437,0c-1.958,0 -3.562,-1.603 -3.562,-3.561l0,-0.001c0,-1.958 1.604,-3.563 3.562,-3.563" style="fill:#e13c83;"/><path d="M261.544,318.063l43.853,0c1.958,0 3.561,1.605 3.561,3.563l0,0.001c0,1.958 -1.603,3.561 -3.561,3.561l-43.853,0c-1.959,0 -3.562,-1.603 -3.562,-3.561l0,-0.001c0,-1.958 1.603,-3.563 3.562,-3.563" style="fill:#b83470;"/><ellipse cx="223.315" cy="137.471" rx="16.591" ry="16.592" style="fill:#030822;"/><circle cx="223.018" cy="133.432" r="6.623" style="fill:#e94d90;"/><path d="M281.953,242.313c0.28,0.443 2.262,0.558 2.796,0.343c0.534,-0.215 17.573,-39.105 17.766,-39.374c0.193,-0.269 0.617,-0.205 0.617,-0.205c0,0 3.637,4.234 6.367,4.541c0,0 0.316,0.663 0.193,0.853c-0.122,0.19 -9.435,38.37 -17.171,49.775c-3.707,5.464 -11.292,7.559 -15.789,2.954c-7.722,-7.911 -16.401,-23.434 -21.55,-37.726c-2.034,-5.647 -3.373,-20.337 3.9,-26.619c1.929,-1.666 4.916,2.777 6.177,5.683c1.261,2.906 16.694,39.775 16.694,39.775" style="fill:#2c3049;"/><path d="M264.127,274.382c2.159,0.972 5.874,9.334 8.576,10.333c10.653,3.938 24.252,8.102 30.693,12.466c6.875,4.656 9.709,11.465 11.807,16.89c2.106,5.446 19.222,42.427 27.174,60.925c1.085,2.524 -10.265,7.371 -11.804,5.107c-7.552,-11.113 -32.359,-47.593 -42.318,-62.098l-41.803,0.059c0,0 -16.193,-2.602 -24.992,-14.012c-9.475,-12.284 -1.659,-42.242 2.514,-42.643c7.912,-0.758 23.811,-4.603 36.499,1.604c7.694,3.763 0.158,11.401 3.654,11.369" style="fill:#030822;"/><path d="M264.839,201.583c2.829,7.66 7.313,22.257 7.644,25.927c0.432,4.794 -1.628,12.256 -3.186,16.67c-2.915,8.258 0.387,20.638 -0.297,29.26c-0.174,2.186 -0.669,4.156 -1.632,5.658c0,0 -16.482,9.567 -47.697,-2.025c0,0 -2.571,-3.469 -1.844,-8.945c4.183,-31.516 1.517,-35.921 -5.438,-67.934c8.114,-8.499 28.653,-9.876 40.581,-7.324c0.01,0.004 7.432,2.888 8.763,4.027c1.333,1.141 3.004,4.757 3.004,4.757l0.102,-0.071Z" style="fill:#1874ba;"/><path d="M234.543,174.371l0.065,4.363c0,0 -0.248,8.928 -0.285,10.283c-0.033,1.175 -2.066,2.466 -5.173,3.039c-1.478,0.273 0.255,2.689 3.315,5.24c6.162,5.136 10.029,1.544 13.137,1.194c6.795,-0.766 7.999,-6.722 4.818,-6.892c-0.901,-0.048 -2.101,-0.337 -3.15,-1.546c-1.445,-1.668 -1.176,-8.92 0.368,-10.776c1.544,-1.856 -13.095,-4.905 -13.095,-4.905" style="fill:#ee9073;"/><path d="M245.602,198.489c-2.127,20.949 -28.245,-9.359 -14.219,-7.027c0,0 3.116,6.642 14.219,7.027" style="fill:#fff;"/><path d="M250.445,191.61c0,0 0.998,4.988 -4.843,6.879c0,0 2.644,6.458 6.582,5.272c3.937,-1.187 3.061,-13.454 -1.739,-12.151" style="fill:#fff;"/><path d="M261.279,158.68c0.142,0.02 0.282,0.042 0.421,0.072l0.004,0.001l0,-0.001c2.56,0.536 4.504,2.783 4.556,5.51c0.06,3.168 -2.461,5.787 -5.63,5.847c-3.169,0.06 -5.788,-2.461 -5.848,-5.629c-0.035,-1.842 0.801,-3.498 2.13,-4.573c-0.145,1.694 0.124,3.791 2.286,4.002l-0.062,-3.31c-0.025,-1.339 1.224,-1.956 2.143,-1.919" style="fill:#e27e67;"/><path d="M222.024,158.68c-0.143,0.02 -0.282,0.042 -0.421,0.072l-0.005,0.001l0.001,-0.001c-2.56,0.536 -4.505,2.783 -4.557,5.51c-0.06,3.168 2.461,5.787 5.63,5.847c3.17,0.06 5.789,-2.461 5.848,-5.629c0.036,-1.842 -0.801,-3.498 -2.13,-4.573c0.146,1.694 -0.123,3.791 -2.286,4.002l0.062,-3.31c0.026,-1.339 -1.224,-1.956 -2.142,-1.919" style="fill:#e27e67;"/><path d="M242.736,130.008l0.003,0c10.806,0 19.65,8.843 19.65,19.652l0,17.875c0,10.808 -8.844,19.652 -19.65,19.652l-0.003,0c-10.806,0 -19.65,-8.844 -19.65,-19.652l0,-17.875c0,-10.809 8.844,-19.652 19.65,-19.652" style="fill:#f5ac83;"/><path d="M223.085,169.92l0,-8.62c0,0 -0.396,-2.042 -2.918,-2.042c-7.735,-8.893 -6.715,-23.009 1.543,-30.328c8.257,-7.319 25.991,-7.788 29.087,-6.756c3.097,1.032 6.287,6.286 6.287,6.286c0,0 2.627,-2.346 5.066,-1.126c2.44,1.22 10.604,16.607 10.604,20.454c0,5.034 -8.489,8.514 -10.365,22.132c-0.935,0 -1.088,-7.212 -1.088,-8.432l0,-2.534c0,0 -2.196,-3.481 -2.196,-7.141l-6.229,0c-0.507,0 -0.999,-0.547 -1.112,-1.081c-0.112,-0.536 -0.45,-4.083 -0.563,-4.927c-0.112,-0.844 -0.394,-1.267 -0.563,-1.042c-0.169,0.225 -0.282,3.153 -0.563,5.039c-0.277,1.857 -1.536,2.007 -1.575,2.011l-0.001,0l-17.871,0.195c1.131,6.201 -7.258,17.912 -7.543,17.912" style="fill:#030822;"/><path d="M298.439,184.389l-2.283,0c-0.166,0 -0.317,0.066 -0.429,0.172l-0.049,-0.004l-17.105,-1.308c-0.959,-0.074 -1.744,0.655 -1.744,1.62l0,23.23c0,0.965 0.785,1.814 1.744,1.888l17.105,1.308c0.125,0.01 0.247,0.006 0.364,-0.01c0.037,0.006 0.076,0.01 0.114,0.01l2.283,0c0.12,0 0.232,-0.034 0.327,-0.093l9.753,-1.645c0.565,-0.095 1.026,-0.648 1.026,-1.229l0,-24.626c0,-0.581 -0.461,-0.978 -1.026,-0.883l-9.778,1.649c-0.089,-0.05 -0.192,-0.079 -0.302,-0.079" style="fill:#fff;"/><path d="M310.394,183.318l-10.893,1.836c-0.61,0.103 -1.11,0.702 -1.11,1.33l0,26.637c0,0.628 0.5,1.057 1.11,0.955l10.893,-1.837c0.611,-0.103 1.11,-0.701 1.11,-1.329l0,-26.637c0,-0.629 -0.499,-1.059 -1.11,-0.955" style="fill:#00000f;"/><path d="M278.002,183.782l18.502,1.416c1.038,0.079 1.886,0.998 1.886,2.041l0,25.127c0,1.043 -0.848,1.832 -1.886,1.752l-18.502,-1.415c-1.037,-0.079 -1.886,-0.998 -1.886,-2.041l0,-25.127c0,-1.044 0.849,-1.833 1.886,-1.753" style="fill:#030822;"/><path d="M299.491,185.016l-2.469,0c-0.371,0 -0.675,0.303 -0.675,0.674l0,27.754c0,0.372 0.304,0.675 0.675,0.675l2.469,0c0.371,0 0.674,-0.303 0.674,-0.675l0,-27.754c0,-0.371 -0.303,-0.674 -0.674,-0.674" style="fill:#2c3049;"/><path d="M219.173,152.826c0.173,-0.024 0.333,0.096 0.357,0.268c0.025,0.173 -0.095,0.333 -0.268,0.357c-0.021,0.003 -7.48,1.206 -12.488,-9.38c-0.075,-0.158 -0.007,-0.347 0.151,-0.421c0.157,-0.074 0.346,-0.006 0.42,0.151c4.807,10.16 11.807,9.028 11.828,9.025" style="fill:#030822;"/><path d="M256.818,137.18c-0.093,0.147 -0.05,0.342 0.097,0.436c0.148,0.093 0.342,0.049 0.436,-0.098c0.012,-0.019 4.173,-6.323 -3.421,-15.24c-0.113,-0.132 -0.313,-0.148 -0.445,-0.035c-0.132,0.113 -0.148,0.312 -0.035,0.445c7.287,8.556 3.379,14.475 3.368,14.492" style="fill:#030822;"/><path d="M315.402,203.626c-0.368,3.04 -3.917,4.832 -3.926,4.939c-0.01,0.107 0.072,-7.33 0.072,-7.33l3.854,2.391Z" style="fill:#ed7862;"/><path d="M312.27,189.252c1.291,-0.46 2.395,-0.552 2.027,0.922c-0.368,1.474 0.093,5.159 0.093,5.159l-2.857,-0.277c0,0 -0.644,-5.251 0.738,-5.804" style="fill:#ed7862;"/><path d="M315.495,194.299c0.552,0.849 0.368,10.017 -0.461,10.696c-0.829,0.679 -6.127,1.061 -6.173,0c-0.046,-1.061 2.119,-2.079 2.119,-2.079c0,0 -3.339,0.403 -3.985,-1.04c-0.644,-1.444 1.13,-1.971 3.479,-2.111c0.946,-0.057 -1.961,-0.746 -3.152,-1.214c-0.682,-0.269 -0.944,-1.239 -0.809,-2.027c0.215,-1.275 3.669,-0.402 4.882,-0.498c0,0 -3.127,-0.532 -4.442,-1.139c-1.031,-0.475 -1.814,-2.236 0.811,-2.263c1.964,-0.02 4.967,0.407 4.967,0.407c-0.019,0.005 1.613,-0.5 2.764,1.268" style="fill:#f5ac83;"/><path d="M273.044,208.178c1.529,-1.977 1.769,-4.029 1.682,-5.362c-0.089,-1.334 -0.718,-3.543 -0.058,-6.534c0.661,-2.991 1.685,-2.094 2.067,-0.351c0.383,1.743 1.332,3.931 1.332,3.931c0,0 4.234,-4.031 5.829,-5.851c1.594,-1.819 3.418,-1.779 3.403,-0.385c-0.014,1.394 -0.548,1.429 -0.001,1.608c0.548,0.178 1.05,0.466 0.9,1.441l-0.151,0.974c0,0 1.185,0.083 1.298,0.986c0.113,0.903 -0.61,2.13 -0.61,2.13c0,0 1.38,0.605 1.156,1.264c-0.225,0.657 -3.09,4.329 -5.182,5.914c-2.093,1.585 -5.55,3.582 -6.526,5.039c-0.976,1.458 -5.139,-4.804 -5.139,-4.804" style="fill:#f5ac83;"/><path d="M273.044,208.178c1.178,-1.521 1.589,-3.087 1.678,-4.336c1.466,3.177 4.731,4.344 8.075,3.288c1.163,-0.368 2.743,-0.928 4.36,-1.523c-0.808,0.892 -1.68,1.755 -2.447,2.336c-2.094,1.585 -5.551,3.582 -6.527,5.039c-0.976,1.458 -5.139,-4.804 -5.139,-4.804" style="fill:#ed7862;"/><path d="M241.548,245.68c0.534,-0.215 31.72,-38.626 31.912,-38.896c0.193,-0.269 0.617,-0.205 0.617,-0.205c0,0 4.515,4.624 7.245,4.93c0,0 0.317,0.664 0.194,0.854c-0.123,0.19 -25.063,36.844 -32.799,48.248c-3.708,5.464 -10.334,7.24 -14.83,2.634c-7.724,-7.912 -19.117,-23.434 -24.266,-37.726c-2.034,-5.647 -3.373,-20.336 3.9,-26.618c1.928,-1.666 4.916,2.776 6.176,5.682c1.575,3.627 21.616,41.192 21.851,41.097" style="fill:#2c3049;"/><path d="M230.373,155.977c9.551,-0.732 23.954,0.188 29.766,0.623c-0.527,-1.31 -1.035,-3.027 -1.035,-4.786l-6.228,0c-0.506,0 -1,-0.547 -1.112,-1.082c-0.112,-0.535 -0.451,-4.082 -0.563,-4.926c-0.112,-0.844 -0.394,-1.267 -0.563,-1.042c-0.169,0.225 -0.282,3.153 -0.563,5.039c-0.277,1.857 -1.536,2.007 -1.576,2.011l-17.168,0.187l-0.703,0.008c0.02,0.11 0.037,0.221 0.051,0.334c0.137,1.089 0.006,2.329 -0.306,3.634" style="fill:#ed7862;"/><path d="M338.494,404.163l-3.379,2.584l1.981,21.371c0,0 0.076,1.584 0.804,1.584l1.18,0c0,0 0.558,-0.155 0.501,-1.097c-0.057,-0.94 -0.566,-21.18 -0.566,-21.18l-0.521,-3.262Z" style="fill:#030822;"/><path d="M461.365,381.951c-1.911,2.585 -2.529,3.408 -2.529,3.408c9.179,11.446 15.21,10.321 20.661,10.49c2.379,0.056 0.412,2.155 0.412,2.155l8.598,2.079l2.492,-4.14c0,0 -14.069,-9.721 -29.634,-13.992" style="fill:#563f2f;"/><path d="M486.914,376.613c-3.297,4.42 -3.971,5.338 -3.971,5.338c0,0 -3.971,0.412 -9.44,0.674c-0.431,0.019 -4.646,-1.386 -6.294,-1.685c-3.24,-0.582 -9.571,-0.281 -4.157,5.694c3.914,4.346 8.484,6.855 13.936,7.192c5.468,0.337 9.102,1.612 9.102,1.612l4.644,1.442c0,0 5.228,-8.972 5.397,-12.288c0.169,-3.297 -9.217,-7.979 -9.217,-7.979" style="fill:#a36e50;"/><path d="M519.488,419.315l0,4.252c14.198,3.709 18.356,-0.786 22.833,-3.913c1.948,-1.351 1.611,1.498 1.611,1.498l8.148,-3.447l-0.449,-4.813c0,0 -17.102,0.562 -32.143,6.423" style="fill:#563f2f;"/><path d="M536.814,399.797l0,6.669c0,0 -2.941,2.679 -7.173,6.144c-0.337,0.282 -4.571,1.666 -6.071,2.416c-2.939,1.442 -7.847,5.47 0.058,7.043c5.732,1.142 10.902,0.45 15.49,-2.528c4.59,-2.979 8.261,-4.121 8.261,-4.121l4.589,-1.611c0,0 -1.144,-10.34 -2.977,-13.093c-1.837,-2.754 -12.178,-0.919 -12.178,-0.919" style="fill:#a36e50;"/><path d="M560.018,137.717c3.055,0.297 5.367,3.055 5.168,6.158c-0.201,3.102 -2.84,5.377 -5.893,5.079c-3.054,-0.297 -5.369,-3.054 -5.168,-6.157c0.202,-3.103 2.84,-5.378 5.893,-5.08" style="fill:#e9695b;"/><path d="M557.016,131.203c-2.242,8.388 1.172,14.337 3.121,17.849c1.951,3.51 3.414,-18.044 3.414,-18.044l-6.535,0.195Z" style="fill:#00000f;stroke:#1a1a18;stroke-width:0.57px;"/><path d="M553.81,175.939c0,0 -3.824,1.807 -6.717,6.274c-1.638,2.527 -20.996,50.17 -22.238,53.27c-1.242,3.1 -0.94,10.619 2.455,14.95c1.379,1.759 5.453,6.819 9.807,12.209c3.855,4.774 11.033,4.444 16.591,4.806c-3.804,-5.686 -15.642,-23.38 -16.279,-24.448c-0.758,-1.275 -1.162,-2.539 0.033,-4.92c1.198,-2.382 17.227,-27.223 17.227,-27.223c0,0 7.287,-27.006 -0.879,-34.918" style="fill:#141a33;"/><path d="M557.307,268.139l-7.312,0c-2.131,0 -3.821,-1.744 -3.751,-3.876c0.071,-2.132 1.872,-3.875 4.004,-3.875l7.311,0c2.133,0 3.818,1.743 3.75,3.875c-0.07,2.132 -1.871,3.876 -4.002,3.876" style="fill:#f08a71;"/><rect x="607.467" y="292.444" width="6.582" height="10.708" style="fill:#101537;"/><path d="M555.932,204.695l0,85.519c0,3.19 2.609,5.801 5.801,5.801l60.234,0c3.192,0 5.801,-2.611 5.801,-5.801l0,-66.184l0,-19.335l0,-5.95c0,-19.755 -16.162,-35.917 -35.918,-35.917c-19.756,0 -35.918,16.162 -35.918,35.917l0,5.95Z" style="fill:#b83470;"/><path d="M551.023,204.695l0,85.519c0,3.19 2.611,5.801 5.801,5.801l60.234,0c3.192,0 5.801,-2.611 5.801,-5.801l0,-66.184l0,-19.335l0,-5.95c0,-19.755 -16.162,-35.917 -35.918,-35.917c-19.754,0 -35.918,16.162 -35.918,35.917l0,5.95Z" style="fill:#e13c83;"/><path d="M570.299,416.899l0,-104.981c0,-0.645 -0.527,-1.171 -1.17,-1.171l-0.861,0c-0.645,0 -1.17,0.526 -1.17,1.171l0,104.981c0,0.646 0.525,1.171 1.17,1.171l0.861,0c0.643,0 1.17,-0.525 1.17,-1.171" style="fill:#00000f;"/><path d="M570.309,307.755l-3.223,0c-2.406,0 -4.373,1.968 -4.373,4.374l0,4.239c0,2.406 1.967,4.374 4.373,4.374l3.223,0c2.406,0 4.375,-1.968 4.375,-4.374l0,-4.239c0,-2.406 -1.969,-4.374 -4.375,-4.374" style="fill:#141a33;"/><path d="M571.395,415.051l-5.313,0c-1.288,0 -2.34,1.053 -2.34,2.34l0,1.723c0,1.289 1.053,2.341 2.341,2.341l5.312,0c1.287,0 2.34,-1.052 2.34,-2.341l0,-1.723c0,-1.287 -1.053,-2.34 -2.341,-2.34" style="fill:#0e173f;"/><path d="M583.834,418.253l-28.191,0c-1.977,0 -3.594,1.615 -3.594,3.592l0,2.647c0,1.976 1.617,3.592 3.594,3.592l28.191,0c1.977,0 3.592,-1.616 3.592,-3.592l0,-2.647c0,-1.977 -1.615,-3.592 -3.592,-3.592" style="fill:#0e173f;"/><path d="M591.158,309.929c0,-1.698 -1.389,-3.088 -3.088,-3.088l-38.744,0c-1.699,0 -3.09,1.39 -3.09,3.088c0,1.699 1.391,3.09 3.09,3.09l38.744,0c1.699,0 3.088,-1.391 3.088,-3.09" style="fill:#030822;"/><path d="M599.461,308.657c0,-0.959 -0.783,-1.742 -1.742,-1.742l-57.985,0c-0.959,0 -1.742,0.783 -1.742,1.742c0,0.957 0.783,1.741 1.742,1.741l57.985,0c0.959,0 1.742,-0.784 1.742,-1.741" style="fill:#00000f;"/><path d="M522.645,300.257l93.659,0c2.31,0 4.2,1.891 4.2,4.2c0,2.31 -1.89,4.2 -4.2,4.2l-93.659,0c-2.312,0 -4.202,-1.89 -4.202,-4.2c0,-2.309 1.89,-4.2 4.202,-4.2" style="fill:#e13c83;"/><path d="M564.6,300.257l51.705,0c2.309,0 4.199,1.891 4.199,4.2c0,2.31 -1.89,4.2 -4.199,4.2l-51.705,0c-2.311,0 -4.199,-1.89 -4.199,-4.2c0,-2.309 1.888,-4.2 4.199,-4.2" style="fill:#b83470;"/><path d="M535.667,401.667c0,0 -27.948,-91.961 -30.22,-102.129c-2.181,-9.756 -16.271,-23.749 43.699,-33.403c2.524,-0.406 4.19,-3.048 6.958,-3.439c0,0 49.084,2.393 54.734,4.587c5.65,2.195 -6.008,20.78 -51.115,25.17c-45.108,4.39 -24.416,19.974 -24.416,19.974c0,0 12.386,82.728 14.041,87.084c1.656,4.355 -14.431,8.656 -13.681,2.156" style="fill:#00000f;"/><path d="M558.002,257.756c-1.176,0.543 -2.768,3.463 -4.395,6.033c-3.541,5.59 -18.431,10.739 -26.156,16.161c-6.461,4.535 -8.97,11.161 -10.814,16.445c-2.42,6.931 -31.135,79.394 -32.844,82.436c-1.711,3.041 0.957,7.169 9.207,8.669c2.421,0.441 4.75,-5.75 4.75,-5.75c0,0 34.104,-64.771 44.916,-81.527l42.023,0.058c34.524,0.047 22.549,-52.945 14.475,-53.727c-7.629,-0.737 -26.012,-5.909 -38.01,0.133c-7.277,3.663 0.209,11.099 -3.152,11.069" style="fill:#030822;"/><path d="M583.143,152.147l0.082,4.472c0,0 0.623,9.515 0.691,10.546c0.067,1.031 0.559,1.373 1.832,2.199c1.76,2.621 -1.982,14.08 -5.15,14.574c-3.17,0.493 -17.986,-0.45 -19.072,-1.241c-0.762,-0.553 6.174,-10.586 5.642,-12.212c0.643,-0.172 1.215,-0.386 1.67,-0.804c2.961,-2.732 2.11,-10.097 -0.316,-12.674c-1.813,-1.922 14.621,-4.86 14.621,-4.86" style="fill:#ee9073;"/><path d="M558.051,187.03c2.58,-1.566 4.191,-0.337 7.287,2.473c3.094,2.81 5.83,2.494 7.479,3.097c1.648,0.604 3.324,27.01 -6.916,31.199c-3.791,1.549 -6.307,0.03 -8.012,-3.091c-3.061,-5.605 -6.541,-29.606 0.162,-33.678" style="fill:#f6f5f4;"/><path d="M609.203,258.187c-1.145,2.85 -5.318,5.209 -10.344,6.986c-7.67,-2.998 -20.379,1.594 -30.08,1.125c-11.027,-0.529 -15.619,-3.078 -15.619,-3.078l-0.695,0.507c-0.346,-0.25 -0.617,-0.509 -0.799,-0.776l-0.002,-0.001l0,-0.002c-1.318,-1.949 -0.795,-4.851 -0.389,-7.439c0.733,-4.65 4.68,-1.399 2.299,-23.372c-2.383,-21.972 -9.357,-59.452 13.815,-62.241c0,0 -0.219,0.538 -0.543,1.525l0.97,0.037c0,0 -1.869,6.686 2.574,8.868c4.446,2.181 9.1,-0.922 11.083,-3.482c0.287,-0.37 0.638,-0.53 1.029,-0.532c1.385,-1.893 2.918,-3.805 4.619,-5.745c4.975,0.772 12.945,4.452 12.945,4.452c4.02,1.76 8.432,5.461 9.344,9.468c1.291,5.688 -3.725,25.001 -7.201,37.435c-5.817,20.817 10.328,27.942 6.994,36.264" style="fill:#cfc9d0;"/><path d="M569.082,187.394c0,0 -9.301,41.042 -10.607,49.218c0,0 -0.233,1.724 0.976,3.782c1.207,2.059 5.1,8.908 5.703,9.705c0.602,0.796 1.004,0.212 1.715,-0.478c0.711,-0.691 5.268,-5.683 6.022,-6.637c0.423,-0.536 0.767,-1.24 0.67,-3.081c-0.61,-11.413 -1.889,-21.843 -1.715,-34.184c0.093,-6.667 0.371,-13.042 0.859,-17.343l-1.008,-3.594c0,0 -2.603,1.284 -2.615,2.612" style="fill:#ea574d;"/><path d="M564.463,208.06c-2.543,11.515 -5.318,24.358 -5.988,28.553c0,0 -0.233,1.723 0.976,3.782c0.36,0.614 0.959,1.654 1.639,2.833l2.902,-26.341c0,0 0.205,-3.884 0.471,-8.827" style="fill:#d84743;"/><path d="M567.42,183.041l1.662,4.354c0,0 2.072,-0.77 3.623,0.982l3.221,-3.319l-1.537,-2.947c0,0 -1.924,-1.089 -4.092,-0.903c-2.17,0.186 -2.877,1.832 -2.877,1.832" style="fill:#ea574d;"/><path d="M587.523,169.452c0.4,0.252 1.219,0.774 1.889,1.454c0,0 0.453,0.752 0.05,1.927c-0.402,1.176 -10.972,15.139 -10.972,15.139c0,0 -0.352,0.5 -0.862,-0.051c-0.511,-0.551 -4.98,-6.913 -4.98,-6.913l13.42,-11.949c0.398,-0.459 1.064,0.144 1.455,0.393" style="fill:#fff;"/><path d="M569.016,169.508c0.004,-0.008 -0.016,-0.006 -0.051,-0.018c-0.972,-0.314 -2.883,0.049 -3.51,0.734c-1.908,1.905 0.12,13.534 0.764,15.516c0.006,0.018 0.004,0.027 0.004,0.027c0,0 0.494,0.558 1.107,0.17c0.614,-0.388 3.807,-5.294 3.807,-5.294c-0.545,-0.973 -4.582,-5.895 -2.121,-11.135" style="fill:#fff;"/><path d="M588.508,170.124c0,0 -14.49,33.522 -15.703,49.292c-1.213,15.771 12.701,48.635 13.599,50.44c0.897,1.805 17.366,9.577 24.881,9.62c0,0 1.198,-0.037 1.475,-0.381c0.277,-0.346 1.361,-1.646 1.738,-2.151c0.377,-0.505 0.662,-1.408 0.28,-2.681c-0.383,-1.275 -9.235,-41.201 -10.348,-46.406c-1.113,-5.202 4.91,-32.705 5.791,-37.802c0.883,-5.097 2.039,-14.442 -21.713,-19.931" style="fill:#1874ba;"/><path d="M585.021,178.602c-4.369,10.998 -11.389,30.044 -12.216,40.815c-0.072,0.935 -0.091,1.93 -0.061,2.975c1.712,-4.467 3.25,-7.207 6.35,-10.48c2.76,-2.917 6.818,-6.738 9.202,-8.81c3.673,-3.186 8.289,-6.265 7.546,-9.769c-0.743,-3.504 -3.393,-14.017 -3.393,-14.017l-7.428,-0.714Z" style="fill:#3f4154;"/><path d="M565.455,170.224c0,0 -1.773,41.015 -2.453,45.899c-0.68,4.885 -6.395,43.663 -6.899,46.573c-0.503,2.91 -8.498,3.691 -8.498,3.691c0,0 3.307,-38.371 3.327,-39.432c0.017,-1.063 -0.809,-29.574 -0.924,-33.078c-0.114,-3.505 3.478,-16.301 4.09,-17.681c0.609,-1.379 4.92,-4.699 11.357,-5.972" style="fill:#1874ba;"/><path d="M564.961,181.211c-0.576,12.519 -1.508,31.67 -1.959,34.912c-0.129,0.919 -0.436,3.037 -0.85,5.89c0,0 -5.33,-32.398 -5.052,-33.566c0.275,-1.168 4.906,-10.3 4.906,-10.3l2.955,3.064Z" style="fill:#3f4154;"/><path d="M565.455,170.224c0,0 -0.291,6.694 -0.68,14.996c-2.336,-2.981 -5.287,-6.925 -4.984,-7.445c0.496,-0.848 3.992,-7.148 4.002,-7.166c0.535,-0.143 1.09,-0.272 1.662,-0.385" style="fill:#575a6d;"/><path d="M593.465,171.429c0.014,0.053 2.736,10.385 2.813,11.18c0.062,0.625 -11.395,6.865 -16.342,9.529c4.158,-11.802 8.572,-22.014 8.572,-22.014c1.791,0.414 3.437,0.85 4.957,1.305" style="fill:#575a6d;"/><path d="M603.922,175.939c0,0 3.822,1.807 6.717,6.274c1.637,2.527 20.998,50.17 22.238,53.27c1.242,3.1 0.94,10.619 -2.455,14.95c-1.379,1.759 -5.455,6.819 -9.809,12.209c-3.853,4.774 -11.031,4.444 -16.589,4.806c3.804,-5.686 15.642,-23.38 16.277,-24.448c0.76,-1.275 1.164,-2.539 -0.031,-4.92c-1.2,-2.382 -17.227,-27.223 -17.227,-27.223c0,0 -7.289,-27.006 0.879,-34.918" style="fill:#141a33;"/><path d="M559.416,172.203c-2.875,3.278 -7.6,10.064 -9.297,20.685c-0.01,0.066 -0.041,0.122 -0.086,0.164c0.16,-2.091 0.975,-5.776 1.842,-9.18c1.855,-4.933 4.242,-8.565 6.158,-10.956c0.432,-0.241 0.893,-0.481 1.383,-0.713" style="fill:#030822;"/><path d="M605.117,206.118c0.008,0.166 -0.117,0.303 -0.279,0.306c-0.164,0.003 -0.303,-0.128 -0.313,-0.294c-0.002,-0.071 -1.129,-20.68 3.528,-27.103c0.125,0.124 0.252,0.253 0.377,0.385c-4.438,6.079 -3.315,26.636 -3.313,26.706" style="fill:#030822;"/><path d="M600.426,268.139l7.312,0c2.133,0 3.819,-1.744 3.749,-3.876c-0.069,-2.132 -1.87,-3.875 -4.002,-3.875l-7.311,0c-2.133,0 -3.82,1.743 -3.75,3.875c0.07,2.132 1.871,3.876 4.002,3.876" style="fill:#f08a71;"/><path d="M597.902,141.409c3.055,0.298 5.367,3.055 5.168,6.158c-0.201,3.103 -2.84,5.377 -5.895,5.08c-3.052,-0.298 -5.367,-3.055 -5.166,-6.158c0.2,-3.103 2.838,-5.378 5.893,-5.08" style="fill:#e9695b;"/><path d="M579.531,111.025c10.418,1.015 18.383,10.506 17.699,21.092l-1.131,17.49c-0.683,10.585 -9.765,18.415 -20.185,17.399c-10.418,-1.015 -18.383,-10.506 -17.699,-21.091l0.566,-8.738l0.564,-8.752c0.684,-10.586 9.768,-18.415 20.186,-17.4" style="fill:#f5ac83;"/><path d="M587.158,113.468l0.041,0.022c6.371,3.669 10.533,10.853 10.031,18.626l-1.131,17.491c-0.683,10.585 -9.765,18.414 -20.185,17.399c-2.393,-0.233 -4.656,-0.914 -6.715,-1.953c19.396,4.193 21.4,-10.648 22.092,-21.357c1.021,-15.814 -14.879,-5.051 -32.315,-7.968c-0.613,-0.103 0.828,-5.304 0.246,-5.389l0.124,-1.915c0.111,-1.726 0.447,-3.379 0.976,-4.932c7.789,-4.054 18.551,-9.248 23.494,-9.779c1.473,-0.159 2.49,-0.267 3.176,-0.338l0.115,0.065c-0.103,0.022 -0.117,0.033 0.051,0.028" style="fill:#ee9073;"/><path d="M593.004,133.024c0,0 -0.35,5.424 -0.576,8.93c-0.227,3.507 -0.25,4.311 1.392,5.754c0,0 -0.009,4.651 1.86,5.634c0,0 1.443,-8.545 3.527,-12.21l0.221,-14.651c-1.401,2.036 -3.471,3.712 -6.506,4.533c0.094,0.632 0.127,1.299 0.082,2.01" style="fill:#00000f;"/><path d="M558.84,136.253c0,0 -4.125,-3.544 -5.252,-7.377c-2.951,-10.039 11.471,-31.308 30.834,-18.48c5.898,3.907 11.006,-1.401 11.93,8.917c0,0 1.404,-1.347 2.533,-0.888c1.131,0.459 -0.57,2.868 -0.57,2.868c0,0 3.771,2.971 4.257,5.199c0.487,2.23 -4.4,12.376 -4.132,15.265l-2.069,-8.8l-9.976,-9.524l-18.657,-1.934l-8.5,8.604l-0.398,6.15Z" style="fill:#00000f;"/><path d="M594.756,137.457c0,0 -5.258,-1.595 -5.051,-6.577c-1.781,2.644 -6.039,2.837 -3.619,-1.3c0,0 -11.996,7.954 -27.623,4.337c0,0 -1.371,-16.016 1.693,-17.347c3.063,-1.33 23.094,2.367 25.319,3.398c2.222,1.031 13.873,7.752 13.873,7.752l-4.592,9.737Z" style="fill:#00000f;"/><path d="M607.826,273.309c-0.164,-2.471 -2.301,-4.341 -4.771,-4.177c-2.471,0.165 -4.342,2.303 -4.176,4.773c0.648,9.492 1.683,20.041 3.211,31.75l-81.409,0c1.612,-11.642 2.897,-22.131 3.911,-31.575c0.261,-2.46 -1.522,-4.668 -3.985,-4.929c-2.461,-0.262 -4.668,1.52 -4.929,3.982c-2.002,18.648 -5.061,41.384 -9.618,69.005c-3.88,23.521 -8.839,50.544 -15.144,81.543l9.135,0c6.177,-30.465 11.041,-57.008 14.853,-80.104c1.701,-10.312 3.193,-19.944 4.502,-28.939l83.918,0c1.303,9.023 2.883,18.684 4.779,29.025c4.243,23.124 10.071,49.644 17.93,80.018l9.25,0c-8.098,-31.093 -14.062,-58.138 -18.371,-81.631c-2.123,-11.573 -3.842,-22.285 -5.217,-32.197c-0.015,-0.221 -0.045,-0.438 -0.09,-0.648c-1.843,-13.385 -3.056,-25.303 -3.779,-35.896" style="fill:#d7bda4;"/><path d="M318.406,273.309c-0.166,-2.471 -2.302,-4.341 -4.772,-4.177c-2.471,0.165 -4.341,2.303 -4.177,4.773c0.648,9.492 1.685,20.041 3.211,31.75l-81.406,0c1.61,-11.642 2.894,-22.131 3.909,-31.575c0.261,-2.46 -1.522,-4.668 -3.983,-4.929c-2.462,-0.262 -4.669,1.52 -4.93,3.982c-2.004,18.648 -5.061,41.384 -9.619,69.005c-3.88,23.521 -8.839,50.544 -15.145,81.543l9.137,0c6.177,-30.465 11.041,-57.008 14.851,-80.104c1.702,-10.312 3.195,-19.944 4.504,-28.939l83.917,0c1.303,9.023 2.883,18.684 4.78,29.025c4.241,23.124 10.069,49.644 17.929,80.018l9.249,0c-8.096,-31.093 -14.061,-58.138 -18.37,-81.631c-2.122,-11.573 -3.842,-22.285 -5.217,-32.197c-0.014,-0.221 -0.044,-0.438 -0.09,-0.648c-1.843,-13.385 -3.056,-25.303 -3.778,-35.896" style="fill:#fff;"/><path d="M219.362,269.122l398.054,0c1.886,0 3.429,1.544 3.429,3.43c0,1.886 -1.543,3.43 -3.429,3.43l-398.054,0c-1.886,0 -3.431,-1.543 -3.431,-3.43c0,-1.886 1.544,-3.43 3.431,-3.43" style="fill:#00000f;"/><path d="M212.06,263.801l412.659,0c2.406,0 4.375,1.97 4.375,4.376c0,2.406 -1.971,4.375 -4.375,4.375l-412.659,0c-2.406,0 -4.375,-1.968 -4.375,-4.375c0,-2.407 1.968,-4.376 4.375,-4.376" style="fill:#bf8862;"/><path d="M573.641,263.801l4.729,0l0,8.751l-4.729,0l0,-8.751Zm9.695,0l2.365,0l0,8.751l-2.365,0l0,-8.751Zm10.463,0l10.184,0l0,8.751l-10.184,0l0,-8.751Zm17.863,0l5.092,0l0,8.751l-5.092,0l0,-8.751Zm-51.857,0l9.105,0l0,8.751l-9.105,0l0,-8.751Z" style="fill:#a36e50;"/><path d="M212.414,265.222l207.204,0c1.429,0 2.601,1.171 2.601,2.602c0,1.43 -1.172,2.6 -2.601,2.6l-207.204,0c-1.43,0 -2.601,-1.17 -2.601,-2.6c0,-1.431 1.17,-2.602 2.601,-2.602" style="fill:#d49f81;"/><path d="M28.517,432l620.739,0c2.291,0 4.16,-1.872 4.16,-4.159l0,-0.001c0,-2.287 -1.869,-4.159 -4.16,-4.159l-620.739,0c-2.291,0 -4.161,1.872 -4.161,4.159l0,0.001c0,2.287 1.87,4.159 4.161,4.159" style="fill:#00000f;"/><path d="M130.929,318.746c12.813,-6.811 16.065,8.008 11.083,20.277c-4.982,12.269 -30.542,53.537 -31.877,69.905c-0.518,6.343 -1.701,5.651 -2.713,1.203c-5.05,-22.188 5.869,-82.011 23.507,-91.385" style="fill:#1c2b3f;"/><path d="M103.799,262.528c-14.692,-13.228 -23.878,5.288 -21.338,23.15c2.54,17.862 22.718,80.845 19.085,102.921c-1.409,8.558 0.384,8.032 3.189,2.486c13.993,-27.666 19.289,-110.348 -0.936,-128.557" style="fill:#1874ba;"/><path d="M101.239,394.733c0.314,0.82 1.012,0.413 1.948,-0.951c15.312,-51.007 -8.541,-127.214 -8.616,-127.459c-0.13,-0.419 -0.576,-0.655 -0.995,-0.527c-0.42,0.13 -0.656,0.576 -0.526,0.997c0.076,0.245 24.254,77.493 8.189,127.94" style="fill:#002846;"/><path d="M71.71,304.908c-14.237,-6.197 -16.471,9.881 -10.133,22.554c6.337,12.674 37.044,54.567 39.833,71.916c1.08,6.723 2.284,5.885 2.994,1.056c3.537,-24.089 -13.097,-86.996 -32.694,-95.526" style="fill:#e94d90;"/><path d="M102.707,404.023c0.438,0.532 0.857,0.056 1.215,-1.195c-1.29,-41.804 -38.025,-92.634 -38.142,-92.797c-0.2,-0.28 -0.591,-0.345 -0.871,-0.144c-0.281,0.2 -0.346,0.592 -0.145,0.871c0.118,0.165 37.354,51.688 37.943,93.265" style="fill:#e13c83;"/><path d="M91.755,394.767l27.35,0l7.14,6.444l-5.833,22.47l-14.982,0l-14.983,0l-5.833,-22.47l7.141,-6.444Z" style="fill:#3b405f;"/><path d="M84.614,386.405l41.63,0c1.246,0 2.265,1.018 2.265,2.264l0,10.278c0,1.245 -1.019,2.264 -2.265,2.264l-41.63,0c-1.246,0 -2.264,-1.019 -2.264,-2.264l0,-10.278c0,-1.246 1.018,-2.264 2.264,-2.264" style="fill:#3b405f;"/><path d="M126.245,401.211l-1.199,4.618l-39.233,0l-1.199,-4.618l41.631,0Z" style="fill:#101537;"/><path d="M507.945,263.801l63.043,0c1.102,0 2.055,-0.9 2.121,-2.001l0,-0.001c0.066,-1.102 -0.781,-2.002 -1.883,-2.002l-63.041,0c-1.101,0 -2.056,0.9 -2.121,2.002l0,0.001c-0.066,1.101 0.779,2.001 1.881,2.001" style="fill:#a8a6b6;"/><path d="M507.945,263.801l63.043,0c0.713,0 1.365,-0.378 1.754,-0.943c-0.322,-0.566 -0.928,-0.944 -1.641,-0.944l-63.043,0c-0.713,0 -1.365,0.378 -1.754,0.944c0.323,0.565 0.928,0.943 1.641,0.943" style="fill:#9895a2;"/><path d="M506.629,259.797l50.424,0c1.441,0 2.545,-1.179 2.453,-2.619l-2.064,-32.661c-0.092,-1.441 -1.344,-2.619 -2.786,-2.619l-50.422,0c-1.441,0 -2.544,1.178 -2.455,2.619l2.065,32.661c0.092,1.44 1.346,2.619 2.785,2.619" style="fill:#9895a2;"/><path d="M506.629,259.797l48.936,0c1.441,0 2.544,-1.179 2.453,-2.619l-2.063,-32.661c-0.092,-1.441 -1.346,-2.619 -2.785,-2.619l-48.936,0c-1.441,0 -2.544,1.178 -2.455,2.619l2.065,32.661c0.092,1.44 1.346,2.619 2.785,2.619" style="fill:#fff;"/><path d="M549.703,221.898l-45.537,36.395c-0.184,-0.339 -0.297,-0.718 -0.322,-1.115l-0.321,-5.079l37.787,-30.201l8.393,0Zm-40.408,37.899l5.035,0l41.746,-33.364l-0.121,-1.916c-0.037,-0.572 -0.258,-1.103 -0.598,-1.535l-46.062,36.815Z" style="fill:#f3f2f4;"/><path d="M559.531,263.801l11.457,0c1.102,0 2.055,-0.9 2.121,-2.001l0,-0.001c0.067,-1.102 -0.781,-2.002 -1.883,-2.002l-11.455,0c-1.101,0 -2.056,0.9 -2.123,2.002l0,0.001c-0.066,1.101 0.781,2.001 1.883,2.001" style="fill:#fff;"/><path d="M507.125,260.798l52.457,0c0.553,0 1.029,-0.45 1.063,-1.001c0.033,-0.551 -0.391,-1.001 -0.942,-1.001l-52.459,0c-0.551,0 -1.027,0.45 -1.06,1.001c-0.034,0.551 0.39,1.001 0.941,1.001" style="fill:#d4d1d8;"/><path d="M488.295,257.503l-21.068,0c-0.868,0 -1.655,0.354 -2.225,0.925c-0.57,0.57 -0.924,1.358 -0.924,2.224c0,0.867 0.354,1.655 0.924,2.224c0.57,0.57 1.357,0.925 2.225,0.925l21.068,0c0.867,0 1.654,-0.355 2.225,-0.925c0.572,-0.569 0.925,-1.357 0.925,-2.224c0,-0.866 -0.353,-1.654 -0.925,-2.224c-0.571,-0.571 -1.358,-0.925 -2.225,-0.925" style="fill:#3b3a3a;"/><path d="M441.168,257.87l26.943,0c1.53,0 2.784,1.252 2.784,2.782c0,1.53 -1.254,2.782 -2.784,2.782l-26.943,0l0,-5.564Z" style="fill:#fff;"/><path d="M441.168,257.503c-0.203,0 -0.367,0.164 -0.367,0.367c0,0.202 0.164,0.366 0.367,0.366l26.943,0c0.664,0 1.268,0.273 1.705,0.71c0.438,0.438 0.711,1.042 0.711,1.706c0,0.664 -0.273,1.268 -0.711,1.706c-0.437,0.438 -1.041,0.71 -1.705,0.71l-26.943,0c-0.203,0 -0.367,0.164 -0.367,0.367c0,0.202 0.164,0.366 0.367,0.366l26.943,0c0.866,0 1.655,-0.355 2.225,-0.925c0.57,-0.569 0.924,-1.357 0.924,-2.224c0,-0.866 -0.354,-1.654 -0.924,-2.224c-0.57,-0.571 -1.359,-0.925 -2.225,-0.925l-26.943,0Z" style="fill:#242525;"/><path d="M487.326,260.652c0,-0.866 -0.355,-1.654 -0.926,-2.225c-0.57,-0.57 -1.357,-0.924 -2.224,-0.924l2.74,0c0.865,0 1.652,0.354 2.222,0.924c0.573,0.571 0.926,1.359 0.926,2.225c0,0.866 -0.353,1.654 -0.926,2.224c-0.57,0.57 -1.357,0.924 -2.222,0.924l-2.74,0c0.867,0 1.654,-0.354 2.224,-0.924c0.571,-0.57 0.926,-1.358 0.926,-2.224" style="fill:#242525;"/><path d="M483.357,260.652c0,-0.866 -0.355,-1.654 -0.926,-2.225c-0.57,-0.57 -1.357,-0.924 -2.224,-0.924l2.74,0c0.865,0 1.652,0.354 2.224,0.924c0.571,0.571 0.924,1.359 0.924,2.225c0,0.866 -0.353,1.654 -0.924,2.224c-0.572,0.57 -1.359,0.924 -2.224,0.924l-2.74,0c0.867,0 1.654,-0.354 2.224,-0.924c0.571,-0.57 0.926,-1.358 0.926,-2.224" style="fill:#242525;"/><path d="M446.707,251.988l18.449,0c0.76,0 1.447,0.31 1.947,0.81c0.5,0.499 0.811,1.188 0.811,1.947c0,0.76 -0.311,1.449 -0.811,1.948c-0.5,0.499 -1.187,0.81 -1.947,0.81l-18.449,0c-0.76,0 -1.449,-0.311 -1.947,-0.81c-0.5,-0.499 -0.811,-1.188 -0.811,-1.948c0,-0.759 0.311,-1.448 0.811,-1.947c0.498,-0.5 1.187,-0.81 1.947,-0.81" style="fill:#c8dee1;"/><path d="M487.975,252.31l-23.592,0c-1.34,0 -2.437,1.096 -2.437,2.436c0,1.34 1.097,2.436 2.437,2.436l23.592,0l0,-4.872Z" style="fill:#fff;"/><path d="M487.975,251.988c0.178,0 0.32,0.144 0.32,0.321c0,0.178 -0.142,0.322 -0.32,0.322l-23.592,0c-0.582,0 -1.111,0.237 -1.494,0.621c-0.383,0.382 -0.621,0.913 -0.621,1.493c0,0.581 0.238,1.111 0.621,1.494c0.383,0.383 0.912,0.621 1.494,0.621l23.592,0c0.178,0 0.32,0.144 0.32,0.321c0,0.178 -0.142,0.322 -0.32,0.322l-23.592,0c-0.76,0 -1.449,-0.311 -1.949,-0.81c-0.5,-0.499 -0.809,-1.188 -0.809,-1.948c0,-0.759 0.309,-1.448 0.809,-1.947c0.5,-0.5 1.189,-0.81 1.949,-0.81l23.592,0Z" style="fill:#7a9297;"/><path d="M447.557,254.745c0,-0.759 0.311,-1.448 0.811,-1.947c0.5,-0.5 1.189,-0.81 1.947,-0.81l-2.399,0c-0.759,0 -1.449,0.31 -1.947,0.81c-0.5,0.499 -0.81,1.188 -0.81,1.947c0,0.76 0.31,1.449 0.81,1.948c0.498,0.499 1.188,0.81 1.947,0.81l2.399,0c-0.758,0 -1.447,-0.311 -1.947,-0.81c-0.5,-0.499 -0.811,-1.188 -0.811,-1.948" style="fill:#7a9297;"/><path d="M451.031,254.745c0,-0.759 0.312,-1.448 0.811,-1.947c0.5,-0.5 1.189,-0.81 1.947,-0.81l-2.399,0c-0.757,0 -1.447,0.31 -1.947,0.81c-0.5,0.499 -0.808,1.188 -0.808,1.947c0,0.76 0.308,1.449 0.808,1.948c0.5,0.499 1.19,0.81 1.947,0.81l2.399,0c-0.758,0 -1.447,-0.311 -1.947,-0.81c-0.499,-0.499 -0.811,-1.188 -0.811,-1.948" style="fill:#7a9297;"/><path d="M480.809,246.473l-13.719,0c-0.76,0 -1.449,0.311 -1.949,0.811c-0.498,0.499 -0.809,1.188 -0.809,1.947c0,0.759 0.311,1.448 0.809,1.947c0.5,0.5 1.189,0.811 1.949,0.811l13.719,0c0.76,0 1.449,-0.311 1.949,-0.811c0.5,-0.499 0.811,-1.188 0.811,-1.947c0,-0.759 -0.311,-1.448 -0.811,-1.947c-0.5,-0.5 -1.189,-0.811 -1.949,-0.811" style="fill:#e9695b;"/><path d="M451.391,246.794l16.473,0c1.339,0 2.437,1.096 2.437,2.437c0,1.339 -1.098,2.436 -2.437,2.436l-16.473,0l0,-4.873Z" style="fill:#fff;"/><path d="M451.391,246.473c-0.178,0 -0.32,0.144 -0.32,0.321c0,0.178 0.142,0.322 0.32,0.322l16.473,0c0.582,0 1.109,0.238 1.494,0.621c0.383,0.383 0.621,0.913 0.621,1.494c0,0.581 -0.238,1.11 -0.621,1.494c-0.385,0.383 -0.912,0.621 -1.494,0.621l-16.473,0c-0.178,0 -0.32,0.144 -0.32,0.321c0,0.178 0.142,0.322 0.32,0.322l16.473,0c0.759,0 1.447,-0.311 1.949,-0.811c0.498,-0.499 0.808,-1.188 0.808,-1.947c0,-0.759 -0.31,-1.448 -0.808,-1.947c-0.502,-0.5 -1.19,-0.811 -1.949,-0.811l-16.473,0Z" style="fill:#f08a71;"/><path d="M479.959,249.231c0,-0.759 -0.309,-1.448 -0.809,-1.947c-0.5,-0.5 -1.189,-0.811 -1.947,-0.811l2.399,0c0.757,0 1.447,0.311 1.947,0.811c0.5,0.499 0.81,1.188 0.81,1.947c0,0.758 -0.31,1.448 -0.81,1.947c-0.5,0.5 -1.19,0.811 -1.947,0.811l-2.399,0c0.758,0 1.447,-0.311 1.947,-0.811c0.5,-0.499 0.809,-1.189 0.809,-1.947" style="fill:#f08a71;"/><path d="M476.484,249.231c0,-0.759 -0.311,-1.448 -0.809,-1.947c-0.5,-0.5 -1.189,-0.811 -1.949,-0.811l2.399,0c0.759,0 1.449,0.311 1.949,0.811c0.498,0.499 0.808,1.188 0.808,1.947c0,0.758 -0.31,1.448 -0.808,1.947c-0.5,0.5 -1.19,0.811 -1.949,0.811l-2.399,0c0.76,0 1.449,-0.311 1.949,-0.811c0.498,-0.499 0.809,-1.189 0.809,-1.947" style="fill:#f08a71;"/><path d="M429.041,53.215l84.82,0c3.145,0 5.719,2.574 5.719,5.72l0,34.051c0,3.146 -2.574,5.72 -5.719,5.72l-84.82,0c-3.145,0 -5.719,-2.574 -5.719,-5.72l0,-34.051c0,-3.146 2.574,-5.72 5.719,-5.72" style="fill:#c0cdea;"/><path d="M426.76,50.438l84.82,0c3.147,0 5.721,2.574 5.721,5.72l0,34.051c0,3.146 -2.574,5.72 -5.721,5.72l-84.82,0c-3.145,0 -5.719,-2.574 -5.719,-5.72l0,-34.051c0,-3.146 2.574,-5.72 5.719,-5.72" style="fill:#fff;"/><path d="M437.928,79.306c-1.277,-1.276 -3.039,-2.065 -4.986,-2.065c-1.948,0 -3.711,0.789 -4.987,2.065c-1.277,1.276 -2.066,3.039 -2.066,4.986c0,1.948 0.789,3.711 2.066,4.987c1.276,1.276 3.039,2.065 4.987,2.065c1.947,0 3.709,-0.789 4.986,-2.065c1.275,-1.276 2.064,-3.039 2.064,-4.987c0,-1.947 -0.789,-3.71 -2.064,-4.986m-4.986,-3.564c2.359,0 4.498,0.957 6.045,2.504c1.548,1.547 2.505,3.685 2.505,6.046c0,2.361 -0.957,4.499 -2.505,6.046c-1.547,1.548 -3.686,2.505 -6.045,2.505c-2.362,0 -4.5,-0.957 -6.047,-2.505c-1.547,-1.547 -2.506,-3.685 -2.506,-6.046c0,-2.361 0.959,-4.499 2.506,-6.046c1.547,-1.547 3.685,-2.504 6.047,-2.504" style="fill:#e13c83;"/><path d="M435.402,81.831c-0.629,-0.63 -1.5,-1.02 -2.461,-1.02c-0.963,0 -1.832,0.39 -2.463,1.02c-0.629,0.63 -1.019,1.5 -1.019,2.462c0,0.961 0.39,1.832 1.019,2.462c0.631,0.63 1.5,1.019 2.463,1.019c0.961,0 1.832,-0.389 2.461,-1.019c0.631,-0.63 1.02,-1.501 1.02,-2.462c0,-0.962 -0.389,-1.832 -1.02,-2.462m-2.461,-2.519c1.373,0 2.619,0.558 3.522,1.459c0.9,0.901 1.459,2.147 1.459,3.522c0,1.375 -0.559,2.621 -1.459,3.522c-0.903,0.901 -2.149,1.458 -3.522,1.458c-1.377,0 -2.621,-0.557 -3.523,-1.458c-0.901,-0.901 -1.459,-2.147 -1.459,-3.522c0,-1.375 0.558,-2.621 1.459,-3.522c0.902,-0.901 2.146,-1.459 3.523,-1.459" style="fill:#e13c83;"/><path d="M432.941,85.813c0.836,0 1.52,-0.683 1.52,-1.521c0,-0.837 -0.684,-1.521 -1.52,-1.521c-0.838,0 -1.521,0.684 -1.521,1.521c0,0.838 0.683,1.521 1.521,1.521" style="fill:#e13c83;"/><path d="M428.908,55.203l80.525,0c0.58,0 1.057,0.476 1.057,1.058c0,0.582 -0.477,1.057 -1.057,1.057l-80.525,0c-0.582,0 -1.059,-0.475 -1.059,-1.057c0,-0.582 0.477,-1.058 1.059,-1.058" style="fill:#e1e8f6;"/><path d="M428.908,61.682l80.525,0c0.58,0 1.057,0.476 1.057,1.058c0,0.582 -0.477,1.058 -1.057,1.058l-80.525,0c-0.582,0 -1.059,-0.476 -1.059,-1.058c0,-0.582 0.477,-1.058 1.059,-1.058" style="fill:#e1e8f6;"/><path d="M428.908,68.161l80.525,0c0.58,0 1.057,0.476 1.057,1.058c0,0.582 -0.477,1.057 -1.057,1.057l-80.525,0c-0.582,0 -1.059,-0.475 -1.059,-1.057c0,-0.582 0.477,-1.058 1.059,-1.058" style="fill:#e1e8f6;"/><path d="M447.154,74.64l62.279,0c0.58,0 1.057,0.476 1.057,1.058c0,0.582 -0.477,1.058 -1.057,1.058l-62.279,0c-0.582,0 -1.059,-0.476 -1.059,-1.058c0,-0.582 0.477,-1.058 1.059,-1.058" style="fill:#e1e8f6;"/><path d="M447.154,81.383l62.279,0c0.58,0 1.057,0.476 1.057,1.058c0,0.582 -0.477,1.058 -1.057,1.058l-62.279,0c-0.582,0 -1.059,-0.476 -1.059,-1.058c0,-0.582 0.477,-1.058 1.059,-1.058" style="fill:#e1e8f6;"/><path d="M447.154,88.127l62.279,0c0.58,0 1.057,0.476 1.057,1.058c0,0.582 -0.477,1.058 -1.057,1.058l-62.279,0c-0.582,0 -1.059,-0.476 -1.059,-1.058c0,-0.582 0.477,-1.058 1.059,-1.058" style="fill:#e1e8f6;"/><path d="M326.285,95.326l-42.687,0c-3.1,0 -5.637,2.537 -5.637,5.638l0,39.766c0,0.26 0.149,0.482 0.389,0.581c0.24,0.1 0.502,0.048 0.686,-0.136l9.605,-9.606l37.644,0c3.102,0 5.638,-2.537 5.638,-5.638l0,-24.967c0,-3.101 -2.536,-5.638 -5.638,-5.638" style="fill:#e94d90;"/><path d="M317.52,116.552c1.709,0 3.103,-1.395 3.103,-3.104c0,-1.71 -1.394,-3.105 -3.103,-3.105c-1.71,0 -3.106,1.395 -3.106,3.105c0,1.709 1.396,3.104 3.106,3.104" style="fill:#fff;"/><path d="M304.942,116.552c1.709,0 3.104,-1.395 3.104,-3.104c0,-1.71 -1.395,-3.105 -3.104,-3.105c-1.71,0 -3.104,1.395 -3.104,3.105c0,1.709 1.394,3.104 3.104,3.104" style="fill:#fff;"/><path d="M292.364,116.552c1.709,0 3.104,-1.395 3.104,-3.104c0,-1.71 -1.395,-3.105 -3.104,-3.105c-1.71,0 -3.104,1.395 -3.104,3.105c0,1.709 1.394,3.104 3.104,3.104" style="fill:#fff;"/><path d="M586.891,55.126l-42.688,0c-3.099,0 -5.636,2.537 -5.636,5.638l0,39.766c0,0.26 0.148,0.482 0.388,0.581c0.241,0.1 0.502,0.048 0.686,-0.136l9.605,-9.606l37.645,0c3.1,0 5.637,-2.537 5.637,-5.638l0,-24.967c0,-3.101 -2.537,-5.638 -5.637,-5.638" style="fill:#1874ba;"/><path d="M578.125,76.352c1.709,0 3.104,-1.395 3.104,-3.104c0,-1.71 -1.395,-3.105 -3.104,-3.105c-1.711,0 -3.105,1.395 -3.105,3.105c0,1.709 1.394,3.104 3.105,3.104" style="fill:#fff;"/><path d="M565.547,76.352c1.711,0 3.105,-1.395 3.105,-3.104c0,-1.71 -1.394,-3.105 -3.105,-3.105c-1.709,0 -3.104,1.395 -3.104,3.105c0,1.709 1.395,3.104 3.104,3.104" style="fill:#fff;"/><path d="M552.971,76.352c1.709,0 3.104,-1.395 3.104,-3.104c0,-1.71 -1.395,-3.105 -3.104,-3.105c-1.711,0 -3.105,1.395 -3.105,3.105c0,1.709 1.394,3.104 3.105,3.104" style="fill:#fff;"/><path d="M142.815,158.173c0,-0.634 0.515,-1.148 1.148,-1.148c0.635,0 1.149,0.514 1.149,1.148l0,2.701l2.701,0c0.634,0 1.148,0.514 1.148,1.148c0,0.634 -0.514,1.149 -1.148,1.149l-2.701,0l0,2.701c0,0.634 -0.514,1.148 -1.149,1.148c-0.633,0 -1.148,-0.514 -1.148,-1.148l0,-2.701l-2.701,0c-0.633,0 -1.148,-0.515 -1.148,-1.149c0,-0.634 0.515,-1.148 1.148,-1.148l2.701,0l0,-2.701Z" style="fill:#9fb2d9;"/><path d="M61.473,171.642c0.928,0.268 1.808,0.646 2.625,1.118c0.837,0.484 1.61,1.068 2.302,1.735c0.135,0.13 0.337,0.149 0.491,0.06l3.111,-1.797l0.017,-0.01c0.178,-0.097 0.382,-0.115 0.568,-0.065c0.191,0.051 0.363,0.175 0.468,0.358l0.013,0.021l2.189,3.792c0.106,0.183 0.127,0.393 0.075,0.586c-0.051,0.191 -0.175,0.363 -0.358,0.468l-0.021,0.013l-3.086,1.782c-0.162,0.093 -0.236,0.281 -0.194,0.454c0.113,0.459 0.2,0.931 0.259,1.414c0.058,0.471 0.087,0.953 0.087,1.443c0,0.49 -0.029,0.972 -0.087,1.442c-0.059,0.484 -0.146,0.957 -0.259,1.415c-0.048,0.191 0.047,0.384 0.217,0.467l3.085,1.781l-0.001,0.001c0.183,0.105 0.307,0.277 0.358,0.468c0.052,0.193 0.031,0.404 -0.075,0.587l-2.201,3.813l-0.001,-0.001c-0.105,0.183 -0.277,0.306 -0.468,0.358c-0.192,0.051 -0.403,0.03 -0.585,-0.075l-0.023,-0.012l-3.09,-1.784c-0.162,-0.093 -0.36,-0.063 -0.489,0.059c-0.692,0.667 -1.464,1.251 -2.302,1.735c-0.822,0.476 -1.708,0.855 -2.642,1.123c-0.181,0.052 -0.299,0.217 -0.299,0.396l0,3.589c0,0.211 -0.087,0.404 -0.227,0.543c-0.14,0.14 -0.332,0.227 -0.543,0.227l-4.404,0c-0.212,0 -0.405,-0.087 -0.544,-0.227c-0.14,-0.139 -0.227,-0.332 -0.227,-0.543l0,-3.589c0,-0.195 -0.135,-0.358 -0.316,-0.401c-0.927,-0.267 -1.808,-0.645 -2.624,-1.117c-0.839,-0.485 -1.611,-1.069 -2.303,-1.736c-0.142,-0.136 -0.354,-0.15 -0.511,-0.047l-3.09,1.784c-0.183,0.106 -0.394,0.126 -0.586,0.075c-0.191,-0.052 -0.362,-0.175 -0.468,-0.358l-0.013,-0.021l-2.19,-3.793l0.001,0c-0.106,-0.183 -0.126,-0.393 -0.075,-0.585c0.051,-0.191 0.174,-0.363 0.356,-0.468l3.109,-1.795c0.162,-0.093 0.237,-0.28 0.194,-0.454l0.001,0c-0.114,-0.458 -0.202,-0.931 -0.26,-1.415c-0.058,-0.47 -0.087,-0.952 -0.087,-1.442c0,-0.49 0.029,-0.972 0.087,-1.443c0.058,-0.483 0.146,-0.955 0.26,-1.414c0.047,-0.191 -0.048,-0.384 -0.218,-0.467l-3.086,-1.782c-0.182,-0.104 -0.305,-0.276 -0.356,-0.468c-0.051,-0.192 -0.031,-0.402 0.075,-0.585l0.012,-0.023l2.189,-3.792l0.001,0.001c0.106,-0.183 0.277,-0.307 0.468,-0.358c0.192,-0.051 0.403,-0.03 0.585,0.074l0,0.001l3.111,1.797c0.166,0.096 0.372,0.063 0.5,-0.069c0.69,-0.663 1.459,-1.244 2.294,-1.726c0.822,-0.476 1.707,-0.855 2.641,-1.123c0.181,-0.051 0.299,-0.216 0.299,-0.395l0,-3.59c0,-0.211 0.087,-0.404 0.227,-0.543c0.139,-0.14 0.332,-0.227 0.544,-0.227l4.404,0c0.211,0 0.403,0.087 0.543,0.227c0.14,0.139 0.227,0.332 0.227,0.543l0,3.59c0,0.194 0.135,0.357 0.316,0.4m1.447,6.637c-1.213,-1.212 -2.886,-1.961 -4.736,-1.961c-1.848,0 -3.522,0.749 -4.734,1.961c-1.212,1.212 -1.962,2.886 -1.962,4.735c0,1.849 0.75,3.523 1.962,4.735c1.212,1.212 2.886,1.961 4.734,1.961c1.85,0 3.523,-0.749 4.736,-1.961c1.211,-1.212 1.961,-2.886 1.961,-4.735c0,-1.849 -0.75,-3.523 -1.961,-4.735m3.481,13.255l0.001,0l0,-0.001l-0.001,0l0,0.001Z" style="fill:#c0cdea;"/><path d="M53.981,224.913c1.017,0.433 2.003,0.927 2.952,1.475c0.967,0.559 1.896,1.175 2.779,1.84c0.886,0.668 1.733,1.392 2.535,2.165c0.03,0.029 0.068,0.046 0.11,0.051c0.042,0.005 0.086,-0.002 0.122,-0.022c2.349,-1.358 4.702,-2.708 7.047,-4.072c0.28,-0.151 0.58,-0.243 0.883,-0.277c0.313,-0.035 0.628,-0.012 0.927,0.069c0.309,0.083 0.603,0.226 0.863,0.424c0.249,0.191 0.467,0.433 0.632,0.72c1.703,2.758 3.32,5.746 4.949,8.566c0.165,0.288 0.266,0.598 0.306,0.912c0.041,0.326 0.019,0.653 -0.064,0.96c-0.082,0.308 -0.227,0.602 -0.424,0.862c-0.191,0.25 -0.433,0.467 -0.72,0.632c-2.247,1.388 -4.685,2.706 -6.984,4.033c-0.037,0.021 -0.064,0.055 -0.081,0.091c-0.015,0.039 -0.019,0.083 -0.009,0.123l0.16,0.652l-0.009,0.003c0.07,0.316 0.135,0.638 0.195,0.965c0.102,0.558 0.187,1.108 0.253,1.647c0.065,0.535 0.115,1.088 0.149,1.656c0.034,0.57 0.052,1.128 0.052,1.672c0,0.543 -0.018,1.101 -0.052,1.67c-0.034,0.569 -0.084,1.121 -0.149,1.657c-0.066,0.539 -0.151,1.088 -0.253,1.646c-0.102,0.557 -0.219,1.097 -0.349,1.621c-0.01,0.043 -0.005,0.088 0.014,0.126c0.02,0.043 0.05,0.076 0.086,0.095c2.567,1.371 5.172,2.982 7.709,4.449l-0.09,0.113l0.078,0.097c0.198,0.259 0.342,0.554 0.424,0.862c0.083,0.308 0.105,0.634 0.064,0.959c-0.04,0.315 -0.141,0.624 -0.307,0.912l-5.317,9.209l-0.099,-0.06c-0.053,0.048 -0.107,0.095 -0.164,0.137c-0.26,0.198 -0.554,0.341 -0.863,0.424c-0.306,0.082 -0.632,0.105 -0.957,0.064c-0.306,-0.038 -0.606,-0.135 -0.887,-0.291c-2.325,-1.234 -4.72,-2.726 -7.017,-4.053c-0.034,-0.018 -0.076,-0.025 -0.117,-0.02c-0.043,0.005 -0.084,0.024 -0.114,0.053c-0.802,0.773 -1.648,1.495 -2.534,2.162c-0.882,0.666 -1.81,1.281 -2.777,1.839c-0.955,0.553 -1.948,1.048 -2.971,1.484c-1.017,0.432 -2.063,0.804 -3.13,1.11c-0.043,0.012 -0.078,0.037 -0.102,0.068c-0.027,0.037 -0.042,0.079 -0.04,0.119l0,8.065c0,0.329 -0.066,0.647 -0.188,0.939c-0.126,0.302 -0.31,0.574 -0.537,0.798c-0.227,0.227 -0.498,0.41 -0.797,0.536c-0.291,0.12 -0.609,0.187 -0.938,0.187l-9.896,0c-0.33,0 -0.648,-0.067 -0.939,-0.187c-0.3,-0.126 -0.571,-0.309 -0.799,-0.536c-0.225,-0.224 -0.409,-0.496 -0.535,-0.798c-0.122,-0.292 -0.189,-0.61 -0.189,-0.939l0,-8.065c0,-0.048 -0.014,-0.091 -0.038,-0.122c-0.025,-0.032 -0.064,-0.057 -0.11,-0.068l-0.032,-0.011c-1.074,-0.31 -2.112,-0.679 -3.109,-1.104c-1.017,-0.433 -2.003,-0.927 -2.953,-1.476c-0.967,-0.558 -1.896,-1.173 -2.778,-1.839c-0.887,-0.668 -1.734,-1.392 -2.536,-2.166c-0.033,-0.032 -0.074,-0.049 -0.114,-0.053c-0.043,-0.004 -0.088,0.007 -0.126,0.031l-6.984,4.031c-0.287,0.166 -0.596,0.268 -0.907,0.307c-0.325,0.041 -0.651,0.017 -0.958,-0.065c-0.309,-0.083 -0.603,-0.225 -0.863,-0.424c-0.243,-0.186 -0.457,-0.42 -0.621,-0.699c-1.835,-2.951 -3.568,-6.182 -5.319,-9.212l0.094,-0.056c-0.017,-0.077 -0.031,-0.154 -0.04,-0.233c-0.042,-0.325 -0.019,-0.649 0.063,-0.957c0.083,-0.308 0.226,-0.603 0.425,-0.862c0.19,-0.251 0.432,-0.468 0.718,-0.633l6.985,-4.033c0.036,-0.02 0.064,-0.053 0.079,-0.09c0.017,-0.039 0.022,-0.085 0.012,-0.127l-0.182,-0.738l0.011,-0.002c-0.063,-0.287 -0.122,-0.579 -0.177,-0.875c-0.101,-0.56 -0.186,-1.109 -0.252,-1.648c-0.065,-0.537 -0.115,-1.089 -0.149,-1.658c-0.034,-0.569 -0.053,-1.127 -0.053,-1.67c0,-0.543 0.019,-1.101 0.053,-1.67c0.034,-0.569 0.084,-1.123 0.149,-1.661c0.066,-0.535 0.15,-1.084 0.252,-1.647c0.103,-0.554 0.219,-1.094 0.348,-1.617c0.012,-0.041 0.005,-0.087 -0.012,-0.129c-0.018,-0.038 -0.05,-0.071 -0.09,-0.091l-6.977,-4.027c-0.288,-0.168 -0.528,-0.384 -0.716,-0.633c-0.199,-0.262 -0.342,-0.557 -0.424,-0.861c-0.083,-0.307 -0.105,-0.633 -0.063,-0.957c0.038,-0.306 0.136,-0.608 0.294,-0.891c1.663,-3.079 3.569,-6.185 5.328,-9.232l0.099,0.06c0.052,-0.049 0.108,-0.094 0.165,-0.138c0.26,-0.198 0.554,-0.341 0.863,-0.424c0.306,-0.082 0.633,-0.106 0.957,-0.064c0.315,0.04 0.625,0.14 0.907,0.302l0.517,0.297l-0.002,0.006l6.479,3.739c0.039,0.021 0.083,0.029 0.124,0.024c0.042,-0.006 0.082,-0.026 0.11,-0.054l0.018,-0.019c0.793,-0.763 1.638,-1.483 2.529,-2.154c0.886,-0.667 1.81,-1.28 2.764,-1.831c0.955,-0.552 1.948,-1.049 2.971,-1.483c1.017,-0.431 2.063,-0.804 3.13,-1.11c0.042,-0.013 0.078,-0.037 0.102,-0.069c0.026,-0.035 0.043,-0.078 0.039,-0.118l0,-8.065c0,-0.329 0.067,-0.648 0.189,-0.939c0.126,-0.302 0.31,-0.574 0.537,-0.799c0.227,-0.226 0.497,-0.409 0.797,-0.534c0.291,-0.121 0.609,-0.189 0.939,-0.189l9.896,0c0.329,0 0.647,0.068 0.938,0.189c0.299,0.125 0.57,0.308 0.8,0.534c0.445,0.446 0.722,1.061 0.722,1.738l0,8.065c0,0.046 0.017,0.089 0.04,0.122c0.026,0.032 0.064,0.057 0.108,0.068l0.032,0.011c1.075,0.309 2.113,0.679 3.111,1.104m-3.479,0.305c0.987,0.285 1.958,0.633 2.908,1.036c0.963,0.41 1.896,0.877 2.792,1.395c0.911,0.528 1.79,1.11 2.631,1.743c0.845,0.638 1.648,1.323 2.403,2.052c0.268,0.258 0.601,0.407 0.945,0.449c0.349,0.043 0.713,-0.028 1.028,-0.21c2.316,-1.337 4.752,-2.663 7.022,-4.055c0.109,-0.058 0.225,-0.093 0.341,-0.106c0.131,-0.013 0.262,-0.004 0.387,0.03c0.129,0.035 0.25,0.093 0.355,0.173c0.1,0.077 0.188,0.175 0.256,0.292c1.689,2.554 3.384,5.856 4.948,8.566c0.067,0.116 0.108,0.24 0.124,0.364c0.016,0.13 0.005,0.267 -0.03,0.4c-0.034,0.128 -0.093,0.249 -0.173,0.354c-0.077,0.101 -0.175,0.189 -0.291,0.256c-2.085,1.378 -4.769,2.756 -6.979,4.032c-0.324,0.187 -0.561,0.465 -0.696,0.781c-0.048,0.111 -0.082,0.227 -0.104,0.345l-0.144,0.048l0.161,0.651c0.127,0.512 0.238,1.024 0.331,1.534c0.091,0.495 0.17,1.014 0.236,1.556c0.064,0.528 0.112,1.052 0.144,1.569c0.029,0.505 0.046,1.036 0.046,1.587c-0.001,0.551 -0.017,1.08 -0.047,1.584c-0.032,0.518 -0.08,1.043 -0.144,1.572c-0.066,0.54 -0.145,1.059 -0.236,1.554c-0.093,0.511 -0.204,1.024 -0.332,1.536c-0.093,0.379 -0.047,0.76 0.105,1.089c0.151,0.328 0.411,0.602 0.747,0.774l6.18,3.568l-0.002,0.003l0.733,0.423c0.116,0.067 0.214,0.154 0.291,0.256c0.08,0.104 0.139,0.226 0.173,0.354c0.035,0.133 0.046,0.27 0.03,0.399c-0.016,0.125 -0.057,0.249 -0.124,0.365l-4.576,7.928l-0.002,-0.002l-0.37,0.64c-0.067,0.117 -0.155,0.214 -0.256,0.291c-0.105,0.081 -0.226,0.139 -0.355,0.173c-0.131,0.035 -0.267,0.046 -0.397,0.03c-0.123,-0.016 -0.246,-0.056 -0.362,-0.123c-2.213,-1.391 -4.711,-2.718 -6.994,-4.037c-0.327,-0.186 -0.684,-0.251 -1.022,-0.21c-0.351,0.042 -0.684,0.197 -0.945,0.447l-0.003,0.003c-0.755,0.728 -1.559,1.414 -2.404,2.051c-0.841,0.633 -1.719,1.216 -2.629,1.742c-0.902,0.521 -1.842,0.991 -2.812,1.404c-0.952,0.404 -1.941,0.755 -2.959,1.047c-0.359,0.102 -0.657,0.316 -0.867,0.594c-0.211,0.281 -0.333,0.631 -0.333,0.997l-0.003,8.065c0,0.135 -0.027,0.264 -0.075,0.379c-0.049,0.119 -0.126,0.23 -0.22,0.325c-0.091,0.094 -0.203,0.17 -0.326,0.221c-0.114,0.048 -0.243,0.074 -0.378,0.074l-9.896,0c-0.136,0 -0.265,-0.026 -0.38,-0.074c-0.122,-0.052 -0.234,-0.127 -0.327,-0.22c-0.092,-0.096 -0.168,-0.207 -0.218,-0.326c-0.048,-0.115 -0.075,-0.244 -0.075,-0.379l0,-8.065c0,-0.384 -0.134,-0.74 -0.359,-1.024c-0.228,-0.29 -0.549,-0.5 -0.914,-0.587c-0.988,-0.284 -1.958,-0.632 -2.907,-1.036c-0.964,-0.41 -1.897,-0.876 -2.793,-1.395c-0.911,-0.526 -1.789,-1.109 -2.63,-1.743c-0.845,-0.636 -1.649,-1.323 -2.404,-2.05c-0.28,-0.27 -0.633,-0.421 -0.994,-0.454c-0.368,-0.034 -0.744,0.055 -1.062,0.265l-6.904,3.987c-0.114,0.066 -0.239,0.106 -0.365,0.122c-0.13,0.016 -0.266,0.005 -0.398,-0.03c-0.129,-0.034 -0.25,-0.092 -0.355,-0.173c-0.101,-0.077 -0.188,-0.174 -0.256,-0.291c-1.64,-2.86 -3.306,-5.708 -4.948,-8.568c-0.066,-0.115 -0.107,-0.239 -0.123,-0.364c-0.016,-0.13 -0.006,-0.266 0.029,-0.398c0.035,-0.13 0.093,-0.252 0.173,-0.355c0.075,-0.103 0.171,-0.19 0.285,-0.255l6.985,-4.033c0.324,-0.186 0.561,-0.464 0.696,-0.78c0.037,-0.086 0.066,-0.175 0.088,-0.266l0.182,-0.036l-0.183,-0.742c-0.127,-0.512 -0.238,-1.024 -0.331,-1.534c-0.092,-0.496 -0.17,-1.015 -0.236,-1.556c-0.064,-0.529 -0.112,-1.053 -0.144,-1.571c-0.03,-0.505 -0.046,-1.034 -0.046,-1.585c0,-0.551 0.016,-1.08 0.046,-1.585c0.032,-0.517 0.08,-1.041 0.143,-1.569c0.067,-0.548 0.147,-1.069 0.237,-1.561c0.093,-0.509 0.204,-1.02 0.331,-1.531c0.094,-0.381 0.048,-0.764 -0.105,-1.091c-0.154,-0.328 -0.412,-0.602 -0.743,-0.773l-6.917,-3.993c-0.115,-0.065 -0.211,-0.152 -0.288,-0.255c-0.079,-0.101 -0.138,-0.224 -0.173,-0.355c-0.035,-0.132 -0.045,-0.268 -0.029,-0.398c0.016,-0.125 0.057,-0.25 0.123,-0.364c1.689,-2.512 3.381,-5.867 4.948,-8.568c0.068,-0.117 0.155,-0.215 0.256,-0.292c0.104,-0.08 0.226,-0.138 0.355,-0.173c0.131,-0.035 0.268,-0.046 0.397,-0.03c0.122,0.016 0.247,0.057 0.366,0.125l6.988,4.035c0.329,0.192 0.698,0.256 1.048,0.208c0.351,-0.048 0.685,-0.208 0.945,-0.466c0.759,-0.731 1.558,-1.413 2.392,-2.04c0.831,-0.626 1.706,-1.205 2.621,-1.735c0.902,-0.521 1.841,-0.99 2.811,-1.402c0.953,-0.405 1.941,-0.757 2.959,-1.048c0.358,-0.102 0.657,-0.317 0.866,-0.594c0.213,-0.281 0.334,-0.63 0.334,-0.997l0.003,-8.065c0,-0.136 0.027,-0.264 0.074,-0.379c0.05,-0.12 0.126,-0.23 0.22,-0.325c0.092,-0.094 0.204,-0.17 0.326,-0.22c0.115,-0.049 0.244,-0.075 0.38,-0.075l9.896,0c0.135,0 0.264,0.026 0.378,0.075c0.123,0.05 0.235,0.126 0.328,0.218c0.18,0.183 0.293,0.433 0.293,0.706l0,8.065c0,0.386 0.133,0.742 0.356,1.024c0.231,0.288 0.552,0.5 0.917,0.586m-1.744,11.609c1.746,0.724 3.323,1.787 4.646,3.11c1.323,1.324 2.387,2.9 3.11,4.646c0.698,1.684 1.083,3.534 1.083,5.477c0,1.943 -0.385,3.793 -1.083,5.477c-0.723,1.746 -1.788,3.322 -3.11,4.645c-1.323,1.323 -2.9,2.387 -4.646,3.111c-1.683,0.697 -3.533,1.082 -5.477,1.082c-1.941,0 -3.79,-0.385 -5.473,-1.082c-1.75,-0.724 -3.326,-1.788 -4.649,-3.111c-1.323,-1.323 -2.387,-2.899 -3.11,-4.645c-0.698,-1.684 -1.083,-3.534 -1.083,-5.477c0,-1.943 0.385,-3.793 1.083,-5.477c0.723,-1.746 1.787,-3.322 3.11,-4.646c1.323,-1.323 2.899,-2.386 4.646,-3.11c1.683,-0.697 3.533,-1.082 5.476,-1.082c1.944,0 3.794,0.385 5.477,1.082m5.679,2.077c-1.451,-1.451 -3.189,-2.623 -5.125,-3.425c-1.861,-0.77 -3.898,-1.196 -6.031,-1.196c-2.132,0 -4.169,0.426 -6.03,1.196c-1.936,0.802 -3.674,1.974 -5.125,3.425c-1.452,1.451 -2.624,3.191 -3.425,5.125c-0.77,1.862 -1.196,3.899 -1.196,6.031c0,2.131 0.426,4.169 1.196,6.031c0.802,1.934 1.973,3.674 3.425,5.125c1.45,1.45 3.188,2.622 5.123,3.423c1.86,0.772 3.899,1.198 6.032,1.198c2.133,0 4.17,-0.426 6.031,-1.196c1.935,-0.802 3.674,-1.974 5.125,-3.425c1.451,-1.451 2.623,-3.191 3.424,-5.125c0.771,-1.862 1.197,-3.899 1.197,-6.031c0,-2.132 -0.426,-4.169 -1.197,-6.031c-0.801,-1.934 -1.973,-3.674 -3.424,-5.125" style="fill:#c0cdea;"/><path d="M336.904,66.494c0,-0.635 0.514,-1.149 1.148,-1.149c0.635,0 1.149,0.514 1.149,1.149l0,2.7l2.699,0c0.637,0 1.15,0.514 1.15,1.149c0,0.634 -0.513,1.149 -1.15,1.149l-2.699,0l0,2.7c0,0.634 -0.514,1.149 -1.149,1.149c-0.634,0 -1.148,-0.515 -1.148,-1.149l0,-2.7l-2.701,0c-0.634,0 -1.149,-0.515 -1.149,-1.149c0,-0.635 0.515,-1.149 1.149,-1.149l2.701,0l0,-2.7Z" style="fill:#9fb2d9;"/><path d="M646.08,183.532c0,-0.634 0.514,-1.149 1.15,-1.149c0.633,0 1.147,0.515 1.147,1.149l0,2.701l2.701,0c0.635,0 1.148,0.513 1.148,1.148c0,0.634 -0.513,1.149 -1.148,1.149l-2.701,0l0,2.7c0,0.635 -0.514,1.149 -1.147,1.149c-0.636,0 -1.15,-0.514 -1.15,-1.149l0,-2.7l-2.699,0c-0.635,0 -1.151,-0.515 -1.151,-1.149c0,-0.635 0.516,-1.148 1.151,-1.148l2.699,0l0,-2.701Z" style="fill:#9fb2d9;"/><path d="M135.013,285.94c0,-0.634 0.514,-1.148 1.148,-1.148c0.635,0 1.149,0.514 1.149,1.148l0,2.701l2.701,0c0.634,0 1.148,0.514 1.148,1.148c0,0.634 -0.514,1.148 -1.148,1.148l-2.701,0l0,2.701c0,0.635 -0.514,1.149 -1.149,1.149c-0.634,0 -1.148,-0.514 -1.148,-1.149l0,-2.701l-2.701,0c-0.633,0 -1.148,-0.514 -1.148,-1.148c0,-0.634 0.515,-1.148 1.148,-1.148l2.701,0l0,-2.701Z" style="fill:#9fb2d9;"/><path d="M600.467,46.358c0,-0.634 0.514,-1.148 1.148,-1.148c0.635,0 1.149,0.514 1.149,1.148l0,2.701l2.699,0c0.635,0 1.149,0.514 1.149,1.149c0,0.634 -0.514,1.148 -1.149,1.148l-2.699,0l0,2.701c0,0.634 -0.514,1.148 -1.149,1.148c-0.634,0 -1.148,-0.514 -1.148,-1.148l0,-2.701l-2.701,0c-0.635,0 -1.149,-0.514 -1.149,-1.148c0,-0.635 0.514,-1.149 1.149,-1.149l2.701,0l0,-2.701Z" style="fill:#9fb2d9;"/><path d="M172.061,214.849c0,-0.634 0.514,-1.148 1.148,-1.148c0.635,0 1.148,0.514 1.148,1.148l0,2.701l2.701,0c0.634,0 1.149,0.514 1.149,1.148c0,0.634 -0.515,1.149 -1.149,1.149l-2.701,0l0,2.701c0,0.634 -0.513,1.148 -1.148,1.148c-0.634,0 -1.148,-0.514 -1.148,-1.148l0,-2.701l-2.701,0c-0.634,0 -1.149,-0.515 -1.149,-1.149c0,-0.634 0.515,-1.148 1.149,-1.148l2.701,0l0,-2.701Z" style="fill:#fff;"/><path d="M54.062,368.842c0,-0.634 0.514,-1.147 1.148,-1.147c0.635,0 1.149,0.513 1.149,1.147l0,2.701l2.701,0c0.634,0 1.148,0.515 1.148,1.149c0,0.634 -0.514,1.149 -1.148,1.149l-2.701,0l0,2.699c0,0.636 -0.514,1.15 -1.149,1.15c-0.634,0 -1.148,-0.514 -1.148,-1.15l0,-2.699l-2.701,0c-0.634,0 -1.148,-0.515 -1.148,-1.149c0,-0.634 0.514,-1.149 1.148,-1.149l2.701,0l0,-2.701Z" style="fill:#fff;"/><path d="M347.633,192.897c0,-0.634 0.514,-1.149 1.148,-1.149c0.635,0 1.149,0.515 1.149,1.149l0,2.7l2.699,0c0.637,0 1.15,0.514 1.15,1.149c0,0.634 -0.513,1.149 -1.15,1.149l-2.699,0l0,2.7c0,0.634 -0.514,1.149 -1.149,1.149c-0.634,0 -1.148,-0.515 -1.148,-1.149l0,-2.7l-2.699,0c-0.637,0 -1.151,-0.515 -1.151,-1.149c0,-0.635 0.514,-1.149 1.151,-1.149l2.699,0l0,-2.7Z" style="fill:#fff;"/><path d="M389.432,369.801c0,-0.634 0.514,-1.147 1.148,-1.147c0.635,0 1.149,0.513 1.149,1.147l0,2.701l2.701,0c0.635,0 1.148,0.515 1.148,1.149c0,0.633 -0.513,1.148 -1.148,1.148l-2.701,0l0,2.7c0,0.635 -0.514,1.149 -1.149,1.149c-0.634,0 -1.148,-0.514 -1.148,-1.149l0,-2.7l-2.701,0c-0.633,0 -1.149,-0.515 -1.149,-1.148c0,-0.634 0.516,-1.149 1.149,-1.149l2.701,0l0,-2.701Z" style="fill:#fff;"/><path d="M637.303,335.682c0,-0.634 0.514,-1.148 1.148,-1.148c0.635,0 1.149,0.514 1.149,1.148l0,2.701l2.701,0c0.635,0 1.148,0.514 1.148,1.148c0,0.634 -0.513,1.148 -1.148,1.148l-2.701,0l0,2.701c0,0.635 -0.514,1.149 -1.149,1.149c-0.634,0 -1.148,-0.514 -1.148,-1.149l0,-2.701l-2.701,0c-0.635,0 -1.149,-0.514 -1.149,-1.148c0,-0.634 0.514,-1.148 1.149,-1.148l2.701,0l0,-2.701Z" style="fill:#fff;"/><path d="M472.223,133.928c0,-0.634 0.514,-1.148 1.148,-1.148c0.635,0 1.149,0.514 1.149,1.148l0,2.701l2.699,0c0.635,0 1.15,0.514 1.15,1.149c0,0.634 -0.515,1.148 -1.15,1.148l-2.699,0l0,2.701c0,0.634 -0.514,1.148 -1.149,1.148c-0.634,0 -1.148,-0.514 -1.148,-1.148l0,-2.701l-2.701,0c-0.635,0 -1.149,-0.514 -1.149,-1.148c0,-0.635 0.514,-1.149 1.149,-1.149l2.701,0l0,-2.701Z" style="fill:#fff;"/><path d="M521.828,16.572c0,-0.634 0.516,-1.148 1.148,-1.148c0.635,0 1.149,0.514 1.149,1.148l0,2.7l2.701,0c0.635,0 1.148,0.515 1.148,1.149c0,0.634 -0.513,1.149 -1.148,1.149l-2.701,0l0,2.7c0,0.635 -0.514,1.149 -1.149,1.149c-0.632,0 -1.148,-0.514 -1.148,-1.149l0,-2.7l-2.701,0c-0.633,0 -1.149,-0.515 -1.149,-1.149c0,-0.634 0.516,-1.149 1.149,-1.149l2.701,0l0,-2.7Z" style="fill:#fff;"/><path d="M389.432,36.228c0,-0.634 0.514,-1.148 1.148,-1.148c0.635,0 1.149,0.514 1.149,1.148l0,2.701l2.701,0c0.635,0 1.148,0.513 1.148,1.148c0,0.634 -0.513,1.149 -1.148,1.149l-2.701,0l0,2.7c0,0.635 -0.514,1.149 -1.149,1.149c-0.634,0 -1.148,-0.514 -1.148,-1.149l0,-2.7l-2.701,0c-0.633,0 -1.149,-0.515 -1.149,-1.149c0,-0.635 0.516,-1.148 1.149,-1.148l2.701,0l0,-2.701Z" style="fill:#fff;"/><path d="M311.841,259.386l32.141,0c1.143,0 2.078,-0.936 2.078,-2.078l0,-40.632c0,-1.143 -0.935,-2.077 -2.078,-2.077l-32.141,0c-1.143,0 -2.078,0.934 -2.078,2.077l0,40.632c0,1.142 0.935,2.078 2.078,2.078" style="fill:#e4e1e8;"/><path d="M344.504,259.386l27.045,0c0.963,0 1.748,-0.787 1.748,-1.749l0,-41.291c0,-0.961 -0.785,-1.747 -1.748,-1.747l-27.045,0c-0.961,0 -1.75,0.786 -1.75,1.747l0,41.291c0,0.962 0.789,1.749 1.75,1.749" style="fill:#fff;"/><path d="M305.035,231.607l32.992,0c0,-4.388 4.727,-4.872 4.727,-4.872l-32.99,0c0,0 -4.729,0.484 -4.729,4.872" style="fill:#fff;"/><path d="M309.764,252.177l33.846,0c0.754,0 1.367,0.615 1.367,1.368l0,8.889c0,0.753 -0.613,1.367 -1.367,1.367l-33.846,0c-0.752,0 -1.368,-0.614 -1.368,-1.367l0,-8.889c0,-0.753 0.616,-1.368 1.368,-1.368" style="fill:#101537;"/><path d="M342.813,252.177l5.564,0c0.125,0.002 1.483,0.054 2.243,1.71c0.796,1.738 0.71,3.476 3.075,3.476l8.947,0c2.363,0 2.279,-1.738 3.077,-3.476c0.76,-1.656 2.115,-1.708 2.24,-1.71l5.281,0c0.752,0 1.368,0.616 1.368,1.368l0,8.889c0,0.753 -0.615,1.367 -1.368,1.367l-30.428,0c-0.752,0 -1.367,-0.614 -1.367,-1.367l0,-8.889c0,-0.752 0.615,-1.368 1.368,-1.368" style="fill:#3b405f;"/><path d="M305.035,246.951l32.992,0c0,-4.388 4.727,-4.871 4.727,-4.871l-32.99,0c0,0 -4.729,0.483 -4.729,4.871" style="fill:#fff;"/><path d="M377.277,239.637l-30.195,0c0,-4.388 -4.328,-4.872 -4.328,-4.872l30.195,0c0,0 4.328,0.484 4.328,4.872" style="fill:#aeabba;"/><path d="M346.299,219.463l24.994,0c0.414,0 0.754,0.339 0.754,0.752c0,0.415 -0.34,0.753 -0.754,0.753l-24.994,0c-0.414,0 -0.752,-0.338 -0.752,-0.753c0,-0.413 0.338,-0.752 0.752,-0.752" style="fill:#e4e1e8;"/><path d="M346.299,227.754l24.994,0c0.414,0 0.754,0.339 0.754,0.753c0,0.414 -0.34,0.752 -0.754,0.752l-24.994,0c-0.414,0 -0.752,-0.338 -0.752,-0.752c0,-0.414 0.338,-0.753 0.752,-0.753" style="fill:#e4e1e8;"/><path d="M346.299,245.065l24.994,0c0.414,0 0.754,0.339 0.754,0.753c0,0.414 -0.34,0.752 -0.754,0.752l-24.994,0c-0.414,0 -0.752,-0.338 -0.752,-0.752c0,-0.414 0.338,-0.753 0.752,-0.753" style="fill:#e4e1e8;"/><path d="M313.382,218.854l24.994,0c0.414,0 0.753,0.338 0.753,0.752c0,0.414 -0.339,0.752 -0.753,0.752l-24.994,0c-0.414,0 -0.752,-0.338 -0.752,-0.752c0,-0.414 0.338,-0.752 0.752,-0.752" style="fill:#aeabba;"/><path d="M313.382,237.526l24.994,0c0.414,0 0.753,0.339 0.753,0.752c0,0.414 -0.339,0.753 -0.753,0.753l-24.994,0c-0.414,0 -0.752,-0.339 -0.752,-0.753c0,-0.413 0.338,-0.752 0.752,-0.752" style="fill:#aeabba;"/><path d="M313.382,249.474l24.994,0c0.414,0 0.753,0.339 0.753,0.753c0,0.414 -0.339,0.752 -0.753,0.752l-24.994,0c-0.414,0 -0.752,-0.338 -0.752,-0.752c0,-0.414 0.338,-0.753 0.752,-0.753" style="fill:#aeabba;"/></g></svg>