<svg xmlns="http://www.w3.org/2000/svg" enable-background="new 0 0 512 512" viewBox="0 0 512 512" width="256" height="256"><path fill="#8fc046" d="M424.5 52l-39.4 51.9c-3.6 4.7-2.7 11.4 2.1 15l0 0c4.7 3.6 11.4 2.7 15-2.1l39.4-51.9c3.6-4.7 2.7-11.4-2.1-15l0 0C434.8 46.3 428.1 47.3 424.5 52zM470.8 107.3l-56.4 32.5c-5.1 3-6.9 9.5-3.9 14.6l0 0c3 5.1 9.5 6.9 14.6 3.9l56.4-32.5c5.1-3 6.9-9.5 3.9-14.6l0 0C482.5 106.1 476 104.4 470.8 107.3zM431 199.1l65-4.1c5.9-.4 10.4-5.5 10-11.4l0 0c-.4-5.9-5.5-10.4-11.4-10l-65 4.1c-5.9.4-10.4 5.5-10 11.4l0 0C420 195 425.1 199.5 431 199.1zM421.1 230.2L421.1 230.2c-1.5 5.7 2 11.6 7.7 13l63.1 16.1c5.7 1.5 11.5-2 13-7.7l0 0c1.5-5.7-2-11.6-7.7-13l-63.1-16C428.3 221 422.5 224.4 421.1 230.2z" class="color8fc046 svgShape"></path><path fill="#1a76bc" d="M367.8 190.3l10.4 36.6c14-7.8 23.5-22.8 23.4-40-.1-25.2-20.6-45.5-45.7-45.4-.7 0-1.3 0-2 .1L367.8 190.3zM394.6 314.4l-34.6-122L321 55.4c-1.6-5.7-7.6-9.1-13.3-7.4l-5.4 1.5c-5.7 1.6-9.1 7.6-7.4 13.3l1.7 5.9c-17.6 24.7-72.6 92.1-168.1 127.9l0 .1 0-.1c-1.9-6.8-9.2-10.8-16-8.9L37.7 209c-6.8 1.9-10.8 9.1-8.9 16l.7 2.5c-18.1 10.4-27.6 32-21.7 52.8l.5 1.9 2.9 10c5.9 20.8 25.4 34.2 46.2 33.5l.1.5c1.5 5.2 6.1 8.8 11.2 9.3l5.2 7.5 0 0 8.4 12.3c2 2.9 5.9 3.7 8.9 1.7l24.9 93.2.9 3.4 1.7 6c1 3.4 4.6 5.4 8 4.5l42.9-12.2c3.4-1 5.4-4.6 4.5-8l-2.7-9.4c-.9-3.4-4.8-5.4-8-4.5 0 0-9.8-25-13-36.3-2.2-7.8-6.5-22.8-10.5-36.8l7.1-5.8-15-21.9 0-.1 11.6-8c2.2-1.5 3.2-4.3 2.6-6.7l0 0 1.7-.5c2.3-.6 4.2-1.9 5.7-3.5l0 0 0 0c2.6-2.8 4-6.7 3.5-10.6l.1-.4c101-20.5 182.2 5.9 209.2 16.7l1.6 5.7c1.6 5.7 7.6 9.1 13.3 7.4l5.4-1.5C392.9 326.1 396.3 320.1 394.6 314.4z" class="color1a76bc svgShape"></path></svg>