<svg xmlns="http://www.w3.org/2000/svg" enable-background="new 0 0 66 66" viewBox="0 0 66 66" width="50" height="50"><path d="M60.8,1.8H5.2C2.9,1.8,1,3.7,1,5.9v54.1c0,2.3,1.9,4.1,4.2,4.1h55.7c2.3,0,4.2-1.9,4.2-4.1V5.9C65,3.7,63.1,1.8,60.8,1.8z
		 M57,5.9h0.8c0.5,0,1,0.4,1,1s-0.5,1-1,1H57c-0.6,0-1-0.4-1-1S56.4,5.9,57,5.9z M53.2,5.9H54c0.6,0,1,0.4,1,1s-0.4,1-1,1h-0.8
		c-0.6,0-1-0.4-1-1S52.7,5.9,53.2,5.9z M49.5,5.9h0.8c0.5,0,1,0.4,1,1s-0.5,1-1,1h-0.8c-0.6,0-1-0.4-1-1S48.9,5.9,49.5,5.9z
		 M6.2,5.9h40.3c0.6,0,1,0.4,1,1s-0.4,1-1,1H6.2c-0.6,0-1-0.4-1-1S5.7,5.9,6.2,5.9z M63,60.1c0,1.2-1,2.1-2.2,2.1H5.2
		c-1.2,0-2.2-1-2.2-2.1V12h60V60.1z" fill="#000000" class="color000 svgShape"></path><path d="M59.9 38.3h-2.7c-.3-1.3-.8-2.6-1.5-3.7l1.9-1.9c.4-.4.4-1 0-1.4l-3-3c-.2-.2-.4-.3-.7-.3-.3 0-.5.1-.7.3l-1.9 1.9c-1.1-.7-2.4-1.2-3.7-1.5V26c0-.6-.4-1-1-1h-4.2c-.6 0-1 .4-1 1v2.7c-1.3.3-2.6.8-3.7 1.5l-1.9-1.9c-.2-.2-.4-.3-.7-.3-.3 0-.5.1-.7.3l-3 3c-.4.4-.4 1 0 1.4l1.9 1.9c-.7 1.2-1.2 2.4-1.5 3.7h-2.7c-.6 0-1 .4-1 1v4.2c0 .6.4 1 1 1h2.7c.3 1.3.8 2.6 1.5 3.7l-1.9 1.9c-.4.4-.4 1 0 1.4l3 3c.4.4 1 .4 1.4 0l1.9-1.9c1.1.7 2.4 1.2 3.7 1.5v2.7c0 .6.4 1 1 1h4.2c.6 0 1-.4 1-1v-2.7c1.3-.3 2.6-.8 3.7-1.5l1.9 1.9c.2.2.4.3.7.3.3 0 .5-.1.7-.3l3-3c.4-.4.4-1 0-1.4l-1.9-1.9c.7-1.2 1.2-2.4 1.5-3.7h2.7c.6 0 1-.4 1-1v-4.2C60.9 38.7 60.5 38.3 59.9 38.3zM51.1 41.4c0 3.7-3 6.6-6.6 6.6s-6.6-3-6.6-6.6c0-3.6 3-6.6 6.6-6.6S51.1 37.7 51.1 41.4zM23.7 28c0 3.4-1.9 6.3-4.7 7.8v21.4c0 1.4-1.2 2.6-2.6 2.6h-2.9c-1.4 0-2.6-1.2-2.6-2.6V35.8c-2.8-1.5-4.7-4.4-4.7-7.8 0-3.5 2.1-6.7 5.3-8.1.3-.1.7-.1.9.1.3.2.4.5.4.8v5.6h4.1v-5.6c0-.3.2-.6.4-.8.3-.2.6-.2.9-.1C21.6 21.3 23.7 24.5 23.7 28zM29.9 17h7.4c.6 0 1-.4 1-1s-.4-1-1-1h-7.4c-.6 0-1 .4-1 1S29.3 17 29.9 17zM25.5 21h16.1c.6 0 1-.4 1-1s-.4-1-1-1H25.5c-.6 0-1 .4-1 1S24.9 21 25.5 21z" fill="#000000" class="color000 svgShape"></path></svg>