<?xml version="1.0" encoding="UTF-8" standalone="no"?><!DOCTYPE svg PUBLIC "-//W3C//DTD SVG 1.1//EN" "http://www.w3.org/Graphics/SVG/1.1/DTD/svg11.dtd"><svg width="50" height="50" viewBox="0 0 100 100" version="1.1" xmlns="http://www.w3.org/2000/svg" xmlns:xlink="http://www.w3.org/1999/xlink" xml:space="preserve" xmlns:serif="http://www.serif.com/" style="fill-rule:evenodd;clip-rule:evenodd;stroke-linejoin:round;stroke-miterlimit:1.41421;"><path d="M50.5,42.502l3.123,0l0,-1.468c0,-4.935 -2.723,-6.743 -6.562,-8.754l-0.478,-0.255c0.636,-1.058 0.97,-2.253 0.967,-3.468c0,-3.643 -2.88,-6.606 -6.42,-6.606c-3.542,0 -6.422,2.963 -6.422,6.606c0,1.254 0.348,2.422 0.938,3.421l-0.567,0.307c-3.651,1.973 -6.444,3.87 -6.444,8.749l0,1.468l3.124,0l0,-1.467c0,-3.23 1.486,-4.37 4.877,-6.203l1.171,-0.633c0.981,0.625 2.138,0.96 3.323,0.965c1.193,0 2.306,-0.343 3.265,-0.929l1.137,0.606c3.604,1.888 4.968,2.912 4.968,6.193l0,1.468Zm-11.12,-10.846c-0.427,-0.305 -0.778,-0.693 -1.029,-1.138c-0.343,-0.603 -0.522,-1.276 -0.521,-1.96c0,-2.024 1.48,-3.67 3.299,-3.67c1.818,0 3.297,1.646 3.297,3.67c0,0.749 -0.205,1.444 -0.552,2.025c-0.263,0.443 -0.629,0.825 -1.07,1.117c-0.494,0.327 -1.061,0.527 -1.675,0.527c-0.644,0 -1.24,-0.215 -1.749,-0.571Zm26.425,-12.642c-2.397,0.003 -4.37,1.856 -4.373,4.11l0,7.928c0.003,2.254 1.976,4.107 4.373,4.11l9.997,0c1.741,-0.002 3.322,-0.979 4.014,-2.479l5.045,1.579l0,-14.224l-5.128,1.286c-0.732,-1.41 -2.261,-2.309 -3.931,-2.31l-9.997,0Zm11.245,4.11l0,1.91l4.686,-1.174l0,6.328l-4.686,-1.468l0,2.331c0,0.644 -0.564,1.174 -1.249,1.174l-9.996,0c-0.685,0 -1.249,-0.53 -1.249,-1.174l0,-7.928c0,-0.644 0.564,-1.174 1.249,-1.175l9.997,0c0.685,0.002 1.248,0.532 1.248,1.176Zm11.714,44.332c-1.157,0 -2.227,0.341 -3.112,0.92c-0.886,-1.914 -2.464,-3.473 -4.454,-4.4c1.367,-1.588 2.109,-3.572 2.099,-5.614c0,-4.7 -3.772,-8.521 -8.411,-8.521c-4.637,0 -8.411,3.821 -8.411,8.521c-0.011,2.123 0.792,4.18 2.26,5.793c-1.64,1.098 -2.617,2.878 -2.618,4.771l0,5.308l-1.183,3.595l-12.081,1.032l-3.953,0.337c-3.5,-0.137 -6.062,1.638 -6.209,4.33c-0.06,1.088 0.321,2.12 0.965,3.014l-17.058,0l0,-3.102c0.385,0.097 0.781,0.163 1.195,0.163l5.258,0l-4.295,-32.295l23.796,0l8.144,5.248l1.861,-5.248l0.436,0c3.426,-0.004 6.245,-2.652 6.248,-5.873l0,-7.34l-3.123,0l0,7.34c-0.001,1.61 -1.41,2.935 -3.123,2.936l-2.687,0l-1.262,3.559l-5.524,-3.559l-25.155,0l-0.391,-2.936l-4.088,0c-1.342,0 -2.622,0.542 -3.512,1.49c-0.396,0.424 -0.701,0.915 -0.899,1.447l-0.214,0c-1.713,-0.002 -3.122,-1.326 -3.124,-2.935l0,-35.23c0.002,-1.61 1.411,-2.934 3.124,-2.936l43.729,0c1.712,0.002 3.121,1.326 3.123,2.936l0,5.871l3.125,0l0,-5.871c-0.004,-3.22 -2.822,-5.869 -6.248,-5.873l-43.729,0c-3.426,0.004 -6.243,2.653 -6.247,5.873l0,35.231c0.004,3.22 2.821,5.868 6.247,5.873l0.098,0l1.984,14.916l-5.092,6.476l-3.393,13.84l-6.091,0l0,8.807l2.615,0l0.068,2.966l3.123,-0.064l-0.033,-1.436l-0.035,-1.466l25.022,0l0,2.935l3.123,0l0,-2.935l19.129,0l0,-1.468c0,-0.485 0.024,-0.954 0.045,-1.402c0.05,-1.022 0.097,-2.065 -0.152,-3.004l6.443,0l0,8.807l3.123,0l0,-8.808l0.083,0.001c4.523,-0.001 5.633,-3.841 6.1,-5.461l4.142,-13.321l-2.998,-0.823l-0.508,1.628l-3.643,11.719c-0.813,2.815 -1.685,3.308 -3.177,3.321l-14.053,0l0,-4.932l10.932,-0.935l1.183,-0.101l0.379,-1.152l1.563,-4.746l1.269,-3.856l0.382,-1.162l-1.651,-0.481l0,-0.253c0,-1.318 0.935,-2.424 2.211,-2.793c0.291,-0.084 0.592,-0.143 0.912,-0.143l4.686,0c3.425,0.005 6.243,2.653 6.246,5.873l0,26.424l3.124,0l0,-25.687c0,-1.214 1.051,-2.203 2.343,-2.203c1.292,0 2.342,0.988 2.342,2.203l0,25.69l3.124,0l0,-25.69c-0.004,-2.818 -2.469,-5.135 -5.467,-5.139Zm-11.714,-4.403l-4.685,0c-0.106,0 -0.209,0.01 -0.313,0.015c-1.471,-0.993 -2.452,-2.728 -2.452,-4.706c0,-3.08 2.373,-5.585 5.288,-5.585c2.914,0 5.286,2.505 5.286,5.585c0,1.988 -0.991,3.732 -2.476,4.723c-0.215,-0.016 -0.429,-0.032 -0.648,-0.032Zm-20.341,29.291l-0.004,0.069l-46.811,0l0,-2.937l44.715,0c1.35,0 1.758,0.259 1.871,0.37c0.333,0.33 0.279,1.433 0.229,2.498Zm-34.37,-42.32c-0.009,-0.062 -0.005,-0.122 -0.005,-0.183c0,-0.005 0,-0.011 0,-0.016c0,-0.797 0.698,-1.453 1.546,-1.453c0.003,0 0.007,0 0.01,0l1.33,0l0.195,1.468l0.194,1.468l3.905,29.358l-1.721,0c-0.477,0 -0.906,-0.205 -1.195,-0.527c-0.194,-0.216 -0.317,-0.479 -0.355,-0.758l-2.204,-16.581l-1.529,-11.493l-0.171,-1.283Zm0.804,29.723c0.053,0.393 0.177,0.761 0.331,1.114l0,5.679l-7.407,0l3.084,-12.584l2.757,-3.506l1.235,9.297Zm22.669,3.933c0.079,-1.435 2.183,-1.549 2.849,-1.549c0.11,0 0.179,0.003 0.196,0.004l0.111,0.005l3.093,-0.264l0,4.666l-1.475,0.001l-1.566,0.001l-0.005,-0.001c-1.537,-0.078 -3.27,-1.628 -3.203,-2.863Zm-23.425,-64.666l0,-2.936l-3.123,0l0,-2.935l3.123,0l0,-2.936l3.124,0l0,2.936l3.123,0l0,2.935l-3.123,0l0,2.936l-3.124,0Zm40.608,-5.873l-29.675,0l0,-2.935l29.673,0l0,2.935l0.002,0Zm-10.933,5.873l-6.248,0l0,-2.936l6.248,0l0,2.936Zm-9.371,0l-9.371,0l0,-2.936l9.371,0l0,2.936Z" style="fill-rule:nonzero;"/></svg>