<svg id="SvgjsSvg1011" width="100" height="100" xmlns="http://www.w3.org/2000/svg" version="1.1" xmlns:xlink="http://www.w3.org/1999/xlink" xmlns:svgjs="http://svgjs.com/svgjs"><defs id="SvgjsDefs1012"></defs><g id="SvgjsG1013"><svg xmlns="http://www.w3.org/2000/svg" viewBox="0 0 100 100" width="256" height="256"><path d="M50 43.247h2.247v-1.124c0-3.777-1.959-5.161-4.721-6.7l-.344-.195a5.377 5.377 0 0 0 .696-2.655c0-2.788-2.072-5.056-4.619-5.056-2.548 0-4.62 2.268-4.62 5.056 0 .96.25 1.854.675 2.619l-.408.235c-2.627 1.51-4.636 2.962-4.636 6.696v1.124h2.247v-1.123c0-2.472 1.069-3.345 3.509-4.748l.842-.484a4.294 4.294 0 0 0 2.391.738c.858 0 1.659-.262 2.349-.711l.818.464C49.019 38.828 50 39.612 50 42.123v1.124zm-8-8.302a2.644 2.644 0 0 1-.74-.871 3.166 3.166 0 0 1-.375-1.5c0-1.549 1.065-2.809 2.373-2.809 1.308 0 2.372 1.26 2.372 2.809 0 .573-.147 1.105-.397 1.55a2.596 2.596 0 0 1-.77.855c-.355.25-.763.403-1.205.403-.463 0-.892-.164-1.258-.437zm19.011-9.676a3.15 3.15 0 0 0-3.146 3.146v6.068a3.15 3.15 0 0 0 3.146 3.146h7.192a3.153 3.153 0 0 0 2.888-1.898l3.629 1.209V26.053l-3.689.984a3.149 3.149 0 0 0-2.828-1.768h-7.192zm8.09 3.146v1.462l3.371-.899v4.844l-3.371-1.124v1.784a.9.9 0 0 1-.899.899h-7.191a.9.9 0 0 1-.899-.899v-6.068a.9.9 0 0 1 .899-.899h7.192a.9.9 0 0 1 .898.9zm8.427 33.932c-.832 0-1.602.261-2.239.704a6.776 6.776 0 0 0-3.204-3.368 6.784 6.784 0 0 0 1.51-4.297c0-3.597-2.714-6.522-6.051-6.522-3.336 0-6.051 2.925-6.051 6.522a6.77 6.77 0 0 0 1.626 4.434 4.486 4.486 0 0 0-1.884 3.652v4.063l-.851 2.751-8.691.79-2.844.258c-2.518-.105-4.361 1.254-4.467 3.314-.043.833.231 1.623.694 2.307H32.804v-2.374c.277.074.562.125.86.125h3.783l-3.09-24.719h17.119l5.859 4.017 1.339-4.017h.314a4.5 4.5 0 0 0 4.495-4.495v-5.618h-2.247v5.618a2.249 2.249 0 0 1-2.247 2.247h-1.933l-.908 2.724-3.974-2.724H34.077l-.281-2.247h-2.941c-.966 0-1.887.415-2.527 1.14a3.369 3.369 0 0 0-.647 1.108h-.154a2.25 2.25 0 0 1-2.247-2.247V18.528a2.249 2.249 0 0 1 2.247-2.247h31.46a2.25 2.25 0 0 1 2.247 2.247v4.494h2.248v-4.494a4.5 4.5 0 0 0-4.495-4.495h-31.46a4.5 4.5 0 0 0-4.494 4.495v26.966a4.5 4.5 0 0 0 4.494 4.495h.071l1.427 11.417-3.663 4.957-2.441 10.593h-4.382v6.741h1.881l.049 2.27 2.247-.049-.024-1.099-.025-1.122h18.001V85.943h2.247v-2.246h13.762v-1.124c0-.371.017-.73.032-1.073.036-.782.07-1.58-.109-2.299h4.635v6.741h2.247V79.2l.06.001c3.254-.001 4.052-2.94 4.388-4.18l2.98-10.196-2.157-.63-.365 1.246-2.621 8.97c-.585 2.155-1.212 2.532-2.286 2.542h-10.11v-3.775l7.865-.716.851-.077.273-.882 1.124-3.632.913-2.952.275-.889-1.188-.368v-.194c0-1.009.673-1.855 1.591-2.138.209-.064.426-.109.656-.109h3.371a4.5 4.5 0 0 1 4.494 4.495v20.225h2.247V66.28c0-.929.756-1.686 1.686-1.686.929 0 1.685.756 1.685 1.686v19.663h2.247V66.28a3.938 3.938 0 0 0-3.933-3.933zm-8.427-3.37H65.73c-.076 0-.15.007-.225.011-1.058-.76-1.764-2.088-1.764-3.602 0-2.357 1.707-4.275 3.804-4.275 2.097 0 3.803 1.918 3.803 4.275 0 1.522-.713 2.857-1.781 3.615-.155-.012-.309-.024-.466-.024zM54.467 81.396l-.003.053H20.787V79.201h32.169c.971 0 1.265.198 1.346.283.24.253.201 1.097.165 1.912zM29.74 49.004c-.006-.047-.003-.093-.003-.14a1.112 1.112 0 0 1 1.119-1.124h.957l.14 1.123.14 1.124 2.809 22.471h-1.238c-.343 0-.652-.157-.86-.404a1.119 1.119 0 0 1-.255-.58l-1.586-12.691-1.1-8.797-.123-.982zm.579 22.75c.038.301.127.583.238.853v4.347h-5.329l2.219-9.632 1.983-2.684.889 7.116zm16.308 3.011c.057-1.099 1.571-1.186 2.05-1.186.079 0 .129.002.141.003l.08.004 2.225-.202v3.571l-1.061.001-1.127.001-.003-.001c-1.106-.06-2.353-1.246-2.305-2.191zM29.775 25.269v-2.247h-2.247v-2.247h2.247v-2.247h2.247v2.247h2.247v2.247h-2.247v2.247h-2.247zm29.214-4.495H37.64v-2.247h21.348v2.247zm-7.865 4.495h-4.495v-2.247h4.495v2.247zm-6.742 0H37.64v-2.247h6.742v2.247z" fill="#000000" class="color000 svgShape"></path></svg></g></svg>