<?xml version="1.0" encoding="UTF-8" standalone="no"?><!DOCTYPE svg PUBLIC "-//W3C//DTD SVG 1.1//EN" "http://www.w3.org/Graphics/SVG/1.1/DTD/svg11.dtd"><svg width="50" height="50" viewBox="0 0 100 100" version="1.1" xmlns="http://www.w3.org/2000/svg" xmlns:xlink="http://www.w3.org/1999/xlink" xml:space="preserve" xmlns:serif="http://www.serif.com/" style="fill-rule:evenodd;clip-rule:evenodd;stroke-linejoin:round;stroke-miterlimit:1.41421;"><path d="M73.333,40.818l-4.12,0l-11.866,-8.06c-0.48,-0.319 -1.094,-0.152 -1.374,0.394c-0.28,0.545 -0.133,1.242 0.347,1.56l8.987,6.106l-30.867,0l10.947,-8.121c1,1.682 2.693,2.803 4.613,2.803c1.96,0 3.667,-1.152 4.667,-2.894c0.013,-0.015 0.026,-0.03 0.04,-0.061c0.013,-0.015 0.013,-0.045 0.013,-0.06c0.533,-0.97 0.84,-2.091 0.84,-3.318c0,-0.622 -0.453,-1.137 -1,-1.137c-0.547,0 -1,0.515 -1,1.137c0,0.454 -0.08,0.878 -0.2,1.272l-4.227,-2.56c-0.32,-0.197 -0.706,-0.182 -1.013,0.045l-1.68,1.243l0,-0.015c0,-2.228 1.6,-4.046 3.56,-4.046c0.547,0 1,-0.515 1,-1.136l0,-3.667l5.133,0c0.32,0 0.614,-0.167 0.8,-0.455l4.734,-7.257c0.133,-0.197 0.2,-0.439 0.2,-0.682l0,-1.045l0,-7.485c0,-0.621 -0.454,-1.137 -1,-1.137l-21.747,0c-0.547,0 -1,0.516 -1,1.137l0,8.545c0,0.243 0.067,0.485 0.2,0.682l4.733,7.258c0.187,0.288 0.494,0.454 0.8,0.454l5.134,0l0,2.621c-2.6,0.531 -4.56,3.122 -4.56,6.228c0,0.485 0.053,0.939 0.146,1.394l-13.813,10.242l-4.093,0c-3.707,0 -6.72,3.424 -6.72,7.636l0,41.667c0,4.212 3.013,7.636 6.72,7.636l46.666,0c3.707,0 6.72,-3.424 6.72,-7.636l0,-41.667c0,-4.197 -3.013,-7.621 -6.72,-7.621Zm-32.92,-28.818l19.174,0l-3.947,6.061l-11.28,0l-3.947,-6.061Zm8.307,18.212l3.493,2.106c-0.613,0.546 -1.373,0.894 -2.213,0.894c-1.227,0 -2.307,-0.697 -2.947,-1.773l1.667,-1.227Zm29.333,59.909c0,2.955 -2.12,5.364 -4.72,5.364l-46.666,0c-2.6,0 -4.72,-2.409 -4.72,-5.364l0,-41.666c0,-2.955 2.12,-5.364 4.72,-5.364l12.826,0l0,14.424c0,0.424 0.2,0.803 0.534,1c0.333,0.197 0.72,0.167 1.026,-0.076l2.614,-2.03l2.613,2.03c0.173,0.137 0.373,0.197 0.56,0.197c0.187,0 0.4,-0.06 0.56,-0.197l2.6,-2.03l2.6,2.03c0.347,0.273 0.787,0.273 1.133,0l2.6,-2.03l2.6,2.03c0.307,0.243 0.707,0.273 1.027,0.076c0.333,-0.197 0.533,-0.591 0.533,-1l0,-14.424l12.827,0c2.6,0 4.72,2.409 4.72,5.364l0,41.666l0.013,0Z" style="fill-rule:nonzero;"/><path d="M37.52,69.152l24.973,0c0.547,0 1,-0.516 1,-1.137c0,-0.621 -0.453,-1.136 -1,-1.136l-24.973,0c-0.547,0 -1,0.515 -1,1.136c0,0.621 0.44,1.137 1,1.137Zm31.107,5.53l-37.254,0c-0.546,0 -1,0.515 -1,1.136c0,0.621 0.454,1.137 1,1.137l37.254,0c0.546,0 1,-0.516 1,-1.137c0,-0.621 -0.454,-1.136 -1,-1.136Zm0,7.803l-37.254,0c-0.546,0 -1,0.515 -1,1.136c0,0.621 0.454,1.137 1,1.137l37.254,0c0.546,0 1,-0.516 1,-1.137c0,-0.621 -0.454,-1.136 -1,-1.136Z" style="fill-rule:nonzero;"/></svg>