<svg id="SvgjsSvg1016" width="100" height="100" xmlns="http://www.w3.org/2000/svg" version="1.1" xmlns:xlink="http://www.w3.org/1999/xlink" xmlns:svgjs="http://svgjs.com/svgjs"><defs id="SvgjsDefs1017"></defs><g id="SvgjsG1018"><svg xmlns="http://www.w3.org/2000/svg" enable-background="new 0 0 66 66" viewBox="0 0 66 66" width="256" height="256"><path d="M50.5,26.94h-3.09l-8.9-5.32c-0.36-0.21-0.82-0.1-1.03,0.26s-0.1,0.82,0.26,1.03l6.74,4.03H21.33l8.21-5.36c0.75,1.11,2.02,1.85,3.46,1.85c1.47,0,2.75-0.76,3.5-1.91c0.01-0.01,0.02-0.02,0.03-0.04c0.01-0.01,0.01-0.03,0.01-0.04c0.4-0.64,0.63-1.38,0.63-2.19c0-0.41-0.34-0.75-0.75-0.75s-0.75,0.34-0.75,0.75c0,0.3-0.06,0.58-0.15,0.84l-3.17-1.69c-0.24-0.13-0.53-0.12-0.76,0.03l-1.26,0.82c0-0.01,0-0.01,0-0.01c0-1.47,1.2-2.67,2.67-2.67c0.41,0,0.75-0.34,0.75-0.75v-2.42h3.85c0.24,0,0.46-0.11,0.6-0.3l3.55-4.79c0.1-0.13,0.15-0.29,0.15-0.45V7.17V2.23c0-0.41-0.34-0.75-0.75-0.75H24.84c-0.41,0-0.75,0.34-0.75,0.75v4.93v0.71c0,0.16,0.05,0.32,0.15,0.45l3.55,4.79c0.14,0.19,0.37,0.3,0.6,0.3h3.85v1.73c-1.95,0.35-3.42,2.06-3.42,4.11c0,0.32,0.04,0.62,0.11,0.92l-10.36,6.76H15.5c-2.78,0-5.04,2.26-5.04,5.04v27.5c0,2.78,2.26,5.04,5.04,5.04h35c2.78,0,5.04-2.26,5.04-5.04v-27.5C55.54,29.2,53.28,26.94,50.5,26.94z M25.81,7.92h14.38l-2.96,4h-8.46L25.81,7.92z M32.04,19.94l2.62,1.39c-0.46,0.36-1.03,0.59-1.66,0.59c-0.92,0-1.73-0.46-2.21-1.17L32.04,19.94z M54.04,59.48c0,1.95-1.59,3.54-3.54,3.54h-35c-1.95,0-3.54-1.59-3.54-3.54v-27.5c0-1.95,1.59-3.54,3.54-3.54h9.62v9.52c0,0.28,0.15,0.53,0.4,0.66c0.25,0.13,0.54,0.11,0.77-0.05l1.96-1.34l1.96,1.34c0.13,0.09,0.28,0.13,0.42,0.13s0.3-0.04,0.42-0.13l1.95-1.34l1.95,1.34c0.26,0.18,0.59,0.18,0.85,0l1.95-1.34l1.95,1.34c0.23,0.16,0.53,0.18,0.77,0.05c0.25-0.13,0.4-0.39,0.4-0.66v-9.52h9.62c1.95,0,3.54,1.59,3.54,3.54V59.48z" fill="#000000" class="color000 svgShape"></path><path d="M23.64 45.64h18.73c.41 0 .75-.34.75-.75s-.34-.75-.75-.75H23.64c-.41 0-.75.34-.75.75S23.22 45.64 23.64 45.64zM46.97 49.29H19.03c-.41 0-.75.34-.75.75s.34.75.75.75h27.94c.41 0 .75-.34.75-.75S47.38 49.29 46.97 49.29zM46.97 54.44H19.03c-.41 0-.75.34-.75.75s.34.75.75.75h27.94c.41 0 .75-.34.75-.75S47.38 54.44 46.97 54.44z" fill="#000000" class="color000 svgShape"></path></svg></g></svg>