<svg xmlns="http://www.w3.org/2000/svg" version="1.1" xmlns:xlink="http://www.w3.org/1999/xlink" width="50" height="50" x="0" y="0" viewBox="0 0 64 64" style="enable-background:new 0 0 512 512" xml:space="preserve" class=""><g><path d="M61.8 28.1H45.4c-1.2 0-2.2 1-2.2 2.2V40c0 1.2 1 2.2 2.2 2.2V44c0 .4 0 1.1.4 1.3.1.1.3.1.4.1.2 0 .7-.5.9-.6l3.1-2.7H62c1.2 0 2.2-1 2.2-2.2v-9.7c-.2-1.1-1.2-2.1-2.4-2.1zM54 38h-5.4c-.6 0-1-.4-1-1s.4-1 1-1H54c.6 0 1 .5 1 1s-.5 1-1 1zm4.5-3.8h-9.9c-.6 0-1-.5-1-1 0-.6.4-1 1-1h9.9c.6 0 1 .4 1 1s-.4 1-1 1zM23.4 30.6h-2.1l.1 1.9 2.1-.3-.1-.9v-.1z" fill="#000000" opacity="1" data-original="#000000" class=""></path><path d="m13.9 33.9-.2-.3C12 30.4 11 26.3 11 21.8c0-1.6.1-3.2.4-4.8 0-.2.1-.3.2-.4l3.2-3c.1-.1.3-.2.5-.2s.3.1.5.1c.1.1 7.3 5.1 16 5.1h.5c.4 0 .8.3.8.7.1.7.1 1.4.1 2.5 0 2.5-.3 4.9-.9 7.2-.4 1.7-1 3.2-1.8 4.6l-.2.3H36l.3-12.4c0-3.7-1.5-7.3-4.1-9.9-2.7-2.7-6.2-4.1-9.9-4.1-7.8 0-14.1 6.3-14.1 14.1L8.5 34h5.4z" fill="#000000" opacity="1" data-original="#000000" class=""></path><path d="M24.9 30v.2c1.8-.3 4.2-1.1 5.9-2.1.5-1.9.7-4.1.7-6.4v-1.4c-7.6-.2-13.9-3.7-15.9-5l-2.3 2.2c-.2 1.4-.3 2.8-.3 4.2 0 9 4.1 16.1 9.3 16.1 3.3 0 6.1-2.8 7.8-7.1-1.7.7-3.5 1.2-5 1.5v.4c0 .5-.4 1-.9 1.1l-3.1.3H21c-.2 0-.5-.1-.6-.2-.2-.2-.4-.4-.4-.7l-.2-3c0-.3.1-.6.3-.8s.5-.3.7-.3h3.1c.5.1.9.5 1 1zM22.2 39.9c-1.7 0-3.3-.6-4.8-1.6-.5 1-1.3 1.8-2.2 2.4l7.1 5.2 6.8-5.2c-.9-.6-1.7-1.4-2.2-2.4-1.4 1-3 1.6-4.7 1.6z" fill="#000000" opacity="1" data-original="#000000" class=""></path><path d="M33.7 42.5c-.9-.3-1.7-.6-2.5-.9L23 47.9c-.2.1-.4.2-.6.2s-.4-.1-.6-.2l-8.5-6.3c-.8.3-1.7.6-2.6.9C5.8 44.1.3 45.8 0 54.4c14.7 2.8 29.7 2.8 44.4 0-.3-8.6-5.8-10.3-10.7-11.9z" fill="#000000" opacity="1" data-original="#000000" class=""></path></g></svg>