<?xml version="1.0" encoding="UTF-8" standalone="no"?><!DOCTYPE svg PUBLIC "-//W3C//DTD SVG 1.1//EN" "http://www.w3.org/Graphics/SVG/1.1/DTD/svg11.dtd"><svg width="100%" height="100%" viewBox="0 0 75 76" version="1.1" xmlns="http://www.w3.org/2000/svg" xmlns:xlink="http://www.w3.org/1999/xlink" xml:space="preserve" xmlns:serif="http://www.serif.com/" style="fill-rule:evenodd;clip-rule:evenodd;stroke-linejoin:round;stroke-miterlimit:1.41421;"><path d="M32.544,37.619l0,18.332c0,0.263 0.213,0.477 0.478,0.477l6.806,0c0.264,0 0.478,-0.214 0.478,-0.477l0,-18.63l4.935,0c0.248,0 0.455,-0.19 0.476,-0.438l0.474,-5.613c0.024,-0.278 -0.196,-0.518 -0.475,-0.518l-5.41,0l0,-3.982c0,-0.934 0.757,-1.69 1.69,-1.69l3.803,0c0.265,0 0.477,-0.214 0.477,-0.478l0,-5.613c0,-0.264 -0.212,-0.477 -0.477,-0.477l-6.427,0c-3.771,0 -6.828,3.057 -6.828,6.829l0,5.411l-3.404,0c-0.264,0 -0.478,0.214 -0.478,0.478l0,5.613c0,0.264 0.214,0.478 0.478,0.478l3.404,0l0,0.298Z"/><path d="M70.134,37.47c0,18.011 -14.653,32.665 -32.664,32.665c-18.012,0 -32.665,-14.654 -32.665,-32.665c0,-18.012 14.653,-32.665 32.665,-32.665c18.011,0 32.664,14.653 32.664,32.665m-32.664,-37.47c-20.661,0 -37.47,16.809 -37.47,37.47c0,20.661 16.809,37.47 37.47,37.47c20.661,0 37.47,-16.809 37.47,-37.47c0,-20.661 -16.809,-37.47 -37.47,-37.47" style="fill-rule:nonzero;"/></svg>