<?xml version="1.0" encoding="UTF-8" standalone="no"?><!DOCTYPE svg PUBLIC "-//W3C//DTD SVG 1.1//EN" "http://www.w3.org/Graphics/SVG/1.1/DTD/svg11.dtd"><svg width="30" height="30" viewBox="0 0 100 100" version="1.1" xmlns="http://www.w3.org/2000/svg" xmlns:xlink="http://www.w3.org/1999/xlink" xml:space="preserve" xmlns:serif="http://www.serif.com/" style="fill-rule:evenodd;clip-rule:evenodd;stroke-linejoin:round;stroke-miterlimit:1.41421;"><path d="M99.3,49.308c0,27.426 -22.233,49.659 -49.658,49.659c-27.426,0 -49.658,-22.233 -49.658,-49.659c0,-27.425 22.232,-49.658 49.658,-49.658c27.425,0 49.658,22.233 49.658,49.658Z" style="fill:#325397;fill-rule:nonzero;"/><path d="M52.561,87.713l0,-32.725l10.985,0l1.644,-12.754l-12.629,0l0,-8.144c0,-3.691 1.024,-6.207 6.32,-6.207l6.754,-0.003l0,-11.408c-1.169,-0.155 -5.177,-0.502 -9.843,-0.502c-9.735,0 -16.402,5.944 -16.402,16.859l0,9.405l-11.012,0l0,12.754l11.012,0l0,32.725l13.171,0Z" style="fill:#fff;fill-rule:nonzero;"/></svg>