<svg xmlns="http://www.w3.org/2000/svg" version="1.1" xmlns:xlink="http://www.w3.org/1999/xlink" width="50" height="50" x="0" y="0" viewBox="0 0 64 64" style="enable-background:new 0 0 512 512" xml:space="preserve" class=""><g><path d="M59 20A12.009 12.009 0 0 0 48 8.051V7a6.006 6.006 0 0 0-6-6H20a6.006 6.006 0 0 0-6 6v25a1 1 0 0 0-1 1v1.521a8.826 8.826 0 0 0-.758.307l-1.535-1.535a1 1 0 0 0-1.414 0l-3 3a1 1 0 0 0 0 1.414l1.535 1.535a8.96 8.96 0 0 0-.307.758H6a1 1 0 0 0-1 1v4a1 1 0 0 0 1 1h1.521c.091.259.194.512.307.758l-1.535 1.535a1 1 0 0 0 0 1.414l3 3a1 1 0 0 0 1.414 0l1.535-1.535c.246.113.5.216.758.307V53a1 1 0 0 0 1 1v3a6.006 6.006 0 0 0 6 6h22a6.006 6.006 0 0 0 6-6V31.949A12.009 12.009 0 0 0 59 20ZM39.586 3l-2 2H24.414l-2-2ZM16 7a3.991 3.991 0 0 1 3.624-3.962l3.669 3.669A1 1 0 0 0 24 7h14a1 1 0 0 0 .707-.293l3.669-3.669A3.991 3.991 0 0 1 46 7v1.051A12.009 12.009 0 0 0 35 20c0 .335.015.668.043 1H19a1 1 0 0 0-1 1v8h2v-7h15.388a11.959 11.959 0 0 0 .72 2H22v2h15.274c.044.061.082.125.127.185l-2.108 2.108a1 1 0 0 0 .817 1.7l4.994-.556c.29.165.595.3.9.435V41H27a1 1 0 0 0-1-1h-1.521a8.826 8.826 0 0 0-.307-.758l1.535-1.535a1 1 0 0 0 0-1.414l-3-3a1 1 0 0 0-1.414 0l-1.535 1.535a8.96 8.96 0 0 0-.758-.307V33a1 1 0 0 0-1-1h-2Zm-3.456 42.082a1 1 0 0 0-1.2.162L10 50.586 8.414 49l1.342-1.342a1 1 0 0 0 .162-1.2 6.986 6.986 0 0 1-.689-1.707A1 1 0 0 0 8.262 44H7v-2h1.262a1 1 0 0 0 .967-.749 6.986 6.986 0 0 1 .689-1.707 1 1 0 0 0-.162-1.2L8.414 37 10 35.414l1.342 1.342a1 1 0 0 0 1.2.162 6.986 6.986 0 0 1 1.707-.689 1 1 0 0 0 .751-.967V34h2v1.262a1 1 0 0 0 .749.967 6.986 6.986 0 0 1 1.707.689 1 1 0 0 0 1.2-.162L22 35.414 23.586 37l-1.342 1.342a1 1 0 0 0-.162 1.2 6.986 6.986 0 0 1 .689 1.707 1 1 0 0 0 .967.749H25v2h-1.262a1 1 0 0 0-.967.749 6.986 6.986 0 0 1-.689 1.707 1 1 0 0 0 .162 1.2L23.586 49 22 50.586l-1.342-1.342a1 1 0 0 0-1.2-.162 6.986 6.986 0 0 1-1.707.689 1 1 0 0 0-.749.967V52H15v-1.262a1 1 0 0 0-.749-.967 6.986 6.986 0 0 1-1.707-.689ZM38 61H24v-1a1 1 0 0 1 1-1h12a1 1 0 0 1 1 1Zm4 0h-2v-1a3 3 0 0 0-3-3H25a3 3 0 0 0-3 3v1h-2a4 4 0 0 1-4-4v-3h2a1 1 0 0 0 1-1v-1.521c.259-.091.512-.194.758-.307l1.535 1.535a1 1 0 0 0 1.414 0l3-3a1 1 0 0 0 0-1.414l-1.535-1.535c.113-.246.216-.5.307-.758H26a1 1 0 0 0 1-1v-2h16a1 1 0 0 0 1-1V31.612a12.048 12.048 0 0 0 2 .323V57a4 4 0 0 1-4 4Zm5-31a9.979 9.979 0 0 1-5.16-1.447 1 1 0 0 0-.518-.145 1.014 1.014 0 0 0-.11.006l-2.488.277.729-.73a1 1 0 0 0 .044-1.367A9.99 9.99 0 1 1 47 30Z" fill="#000000" opacity="1" data-original="#000000"></path><path d="M47 15a2 2 0 0 1 2 2h2a4 4 0 0 0-3-3.858V11h-2v2.142A3.992 3.992 0 0 0 47 21a2 2 0 1 1-2 2h-2a4 4 0 0 0 3 3.858V29h2v-2.142A3.992 3.992 0 0 0 47 19a2 2 0 0 1 0-4ZM27 33h13v2H27zM27 37h13v2H27zM21 43a5 5 0 1 0-5 5 5.006 5.006 0 0 0 5-5Zm-8 0a3 3 0 1 1 3 3 3 3 0 0 1-3-3ZM22 29h11v2H22z" fill="#000000" opacity="1" data-original="#000000"></path></g></svg>