<?xml version="1.0" encoding="UTF-8" standalone="no"?><!DOCTYPE svg PUBLIC "-//W3C//DTD SVG 1.1//EN" "http://www.w3.org/Graphics/SVG/1.1/DTD/svg11.dtd"><svg width="100%" height="100%" viewBox="0 0 75 76" version="1.1" xmlns="http://www.w3.org/2000/svg" xmlns:xlink="http://www.w3.org/1999/xlink" xml:space="preserve" xmlns:serif="http://www.serif.com/" style="fill-rule:evenodd;clip-rule:evenodd;stroke-linejoin:round;stroke-miterlimit:1.41421;"><path d="M32.484,50.942l7.153,0l0,-11.389c0,-3.003 0.568,-5.911 4.294,-5.911c3.667,0 3.719,3.434 3.719,6.106l0,11.194l7.152,0l0,-12.628c0,-6.201 -1.336,-10.967 -8.582,-10.967c-3.485,0 -5.82,1.908 -6.777,3.72l-0.094,0l0,-3.149l-6.865,0l0,23.024Zm-8.073,-34.467c2.292,0 4.149,1.861 4.149,4.148c0,2.29 -1.857,4.152 -4.149,4.152c-2.298,0 -4.156,-1.862 -4.156,-4.152c0,-2.287 1.858,-4.148 4.156,-4.148m-3.585,11.443l7.168,0l0,23.024l-7.168,0l0,-23.024Z" style="fill-rule:nonzero;"/><path d="M37.529,70.194c-18.011,0 -32.664,-14.653 -32.664,-32.665c0,-18.011 14.653,-32.664 32.664,-32.664c18.012,0 32.665,14.653 32.665,32.664c0,18.012 -14.653,32.665 -32.665,32.665m0,-70.135c-20.661,0 -37.47,16.809 -37.47,37.47c0,20.661 16.809,37.471 37.47,37.471c20.661,0 37.471,-16.81 37.471,-37.471c0,-20.661 -16.81,-37.47 -37.471,-37.47" style="fill-rule:nonzero;"/></svg>