<?xml version="1.0" encoding="UTF-8" standalone="no"?>
<!DOCTYPE svg PUBLIC "-//W3C//DTD SVG 1.1//EN" "http://www.w3.org/Graphics/SVG/1.1/DTD/svg11.dtd"><svg width="100%" height="100%" viewBox="0 0 288 49" version="1.1" xmlns="http://www.w3.org/2000/svg" xmlns:xlink="http://www.w3.org/1999/xlink" xml:space="preserve" xmlns:serif="http://www.serif.com/" style="fill-rule:evenodd;clip-rule:evenodd;stroke-linejoin:round;stroke-miterlimit:1.41421;"><g><path d="M0,9.467l16.445,-2.261l0,15.87l-16.445,0l0,-13.609Zm16.445,15.64l0,15.689l-16.445,-2.256l0,-13.432l16.446,0l-0.001,-0.001Zm1.819,-18.149l21.883,-3.007l0,19.127l-21.883,0l0,-16.12Zm21.882,18.149l0,18.945l-21.882,-3.006l0,-15.939l21.883,0l-0.001,0Z" style="fill:#0da0ea;fill-rule:nonzero;"/><path d="M77.297,35.852l-3.801,0l0,-14.697c0,-1.205 0.075,-2.678 0.225,-4.42l-0.064,0c-0.157,0.727 -0.367,1.443 -0.628,2.14l-6.894,16.977l-2.642,0l-6.911,-16.852c-0.26,-0.739 -0.464,-1.496 -0.611,-2.265l-0.06,0c0.087,0.908 0.13,2.392 0.129,4.45l0,14.667l-3.544,0l0,-22.707l5.396,0l6.073,15.127c0.354,0.846 0.655,1.713 0.901,2.597l0.083,0c0.397,-1.193 0.72,-2.081 0.966,-2.662l6.18,-15.062l5.203,0l0,22.714l-0.001,-0.007Zm7.136,-19.625c-0.579,0.013 -1.141,-0.197 -1.57,-0.586c-0.428,-0.375 -0.668,-0.922 -0.652,-1.492c-0.013,-0.572 0.226,-1.123 0.652,-1.505c0.425,-0.397 0.989,-0.613 1.57,-0.602c0.595,-0.015 1.172,0.201 1.611,0.602c0.432,0.379 0.675,0.931 0.663,1.505c0.003,0.562 -0.239,1.097 -0.663,1.466c-0.436,0.406 -1.014,0.627 -1.611,0.614l0,-0.002Zm1.852,19.625l-3.736,0l0,-16.218l3.736,0l0,16.218Zm16.705,-0.746c-1.438,0.779 -3.055,1.167 -4.689,1.125c-2.201,0.095 -4.347,-0.722 -5.928,-2.257c-1.524,-1.557 -2.34,-3.675 -2.254,-5.852c-0.012,-0.178 -0.018,-0.356 -0.018,-0.535c0,-4.582 3.771,-8.352 8.353,-8.352c0.191,0 0.382,0.006 0.573,0.019c1.366,-0.027 2.722,0.238 3.977,0.778l0,3.421c-1.053,-0.812 -2.342,-1.257 -3.672,-1.268c-1.458,-0.049 -2.87,0.524 -3.881,1.575c-1.036,1.117 -1.581,2.604 -1.515,4.125c-0.081,1.464 0.433,2.899 1.424,3.978c1.016,0.998 2.404,1.527 3.826,1.458c1.391,-0.018 2.734,-0.515 3.8,-1.409l0.004,3.194Zm13.287,-11.974c-0.574,-0.384 -1.259,-0.568 -1.949,-0.522c-1.109,0.001 -2.148,0.554 -2.77,1.472c-0.799,1.178 -1.19,2.586 -1.112,4.007l0,7.763l-3.738,0l0,-16.218l3.738,0l0,3.342l0.063,0c0.296,-1.031 0.88,-1.957 1.684,-2.668c0.7,-0.618 1.602,-0.959 2.536,-0.959c0.533,-0.03 1.065,0.073 1.548,0.301l0,3.484l0,-0.002Zm9.987,13.099c-2.256,0.109 -4.462,-0.713 -6.097,-2.273c-1.556,-1.608 -2.382,-3.79 -2.279,-6.026c-0.137,-2.365 0.726,-4.682 2.376,-6.381c1.741,-1.591 4.049,-2.419 6.404,-2.298c2.232,-0.13 4.419,0.682 6.024,2.238c1.513,1.694 2.289,3.925 2.155,6.192c0.012,0.181 0.018,0.363 0.018,0.545c0,4.404 -3.625,8.029 -8.029,8.029c-0.192,0 -0.383,-0.007 -0.573,-0.02l0.001,-0.006Zm0.177,-14.05c-1.324,-0.059 -2.603,0.497 -3.463,1.504c-0.908,1.186 -1.36,2.659 -1.272,4.15c-0.083,1.451 0.376,2.882 1.288,4.014c0.87,0.982 2.138,1.52 3.448,1.466c1.293,0.077 2.55,-0.457 3.392,-1.441c0.859,-1.188 1.278,-2.64 1.184,-4.103c0.094,-1.473 -0.325,-2.934 -1.184,-4.134c-0.839,-0.991 -2.098,-1.53 -3.394,-1.452l0.001,-0.004Zm11.196,13.163l0,-3.401c1.324,1.02 2.95,1.572 4.622,1.568c2.256,0 3.383,-0.655 3.383,-1.964c0.01,-0.337 -0.092,-0.669 -0.29,-0.942c-0.213,-0.278 -0.479,-0.512 -0.782,-0.688c-0.368,-0.218 -0.756,-0.399 -1.16,-0.539c-0.446,-0.159 -0.944,-0.339 -1.492,-0.539c-0.626,-0.24 -1.237,-0.521 -1.828,-0.839c-0.5,-0.264 -0.956,-0.603 -1.352,-1.005c-0.355,-0.366 -0.632,-0.8 -0.813,-1.276c-0.193,-0.533 -0.286,-1.097 -0.274,-1.663c-0.014,-0.729 0.182,-1.447 0.564,-2.067c0.387,-0.607 0.904,-1.121 1.514,-1.504c0.664,-0.42 1.392,-0.73 2.154,-0.918c0.816,-0.208 1.655,-0.311 2.497,-0.309c1.393,-0.023 2.779,0.208 4.09,0.68l0,3.215c-1.181,-0.788 -2.575,-1.197 -3.994,-1.172c-0.431,-0.004 -0.861,0.043 -1.281,0.142c-0.344,0.079 -0.673,0.213 -0.975,0.396c-0.253,0.153 -0.467,0.361 -0.628,0.609c-0.149,0.234 -0.228,0.506 -0.226,0.783c-0.009,0.311 0.069,0.619 0.226,0.887c0.17,0.263 0.399,0.482 0.668,0.642c0.337,0.205 0.693,0.374 1.064,0.506c0.414,0.154 0.888,0.32 1.426,0.498c0.65,0.258 1.286,0.549 1.906,0.871c0.525,0.268 1.01,0.606 1.443,1.006c0.391,0.366 0.703,0.808 0.917,1.299c0.227,0.555 0.337,1.151 0.323,1.75c0.018,0.759 -0.184,1.508 -0.58,2.155c-0.393,0.618 -0.921,1.138 -1.546,1.52c-0.689,0.419 -1.443,0.722 -2.231,0.894c-0.874,0.2 -1.769,0.298 -2.666,0.293c-1.608,0.041 -3.206,-0.261 -4.688,-0.884l0.009,-0.004Zm22.583,0.886c-2.257,0.109 -4.463,-0.713 -6.098,-2.272c-1.556,-1.609 -2.381,-3.791 -2.278,-6.027c-0.136,-2.365 0.726,-4.682 2.377,-6.381c1.74,-1.591 4.047,-2.418 6.402,-2.297c2.231,-0.131 4.418,0.681 6.024,2.237c1.513,1.694 2.289,3.925 2.154,6.192c0.013,0.182 0.019,0.364 0.019,0.546c0,4.404 -3.624,8.028 -8.029,8.028c-0.192,0 -0.383,-0.007 -0.574,-0.02l0.003,-0.006Zm0.176,-14.049c-1.323,-0.06 -2.603,0.496 -3.464,1.504c-0.908,1.185 -1.36,2.658 -1.273,4.149c-0.082,1.451 0.377,2.882 1.289,4.014c0.87,0.982 2.138,1.521 3.448,1.466c1.292,0.076 2.548,-0.457 3.39,-1.44c0.86,-1.188 1.279,-2.639 1.184,-4.103c0.094,-1.473 -0.324,-2.934 -1.184,-4.134c-0.838,-0.99 -2.096,-1.529 -3.39,-1.452l0,-0.004Zm21.552,-7.35c-0.527,-0.29 -1.121,-0.438 -1.723,-0.427c-1.816,0 -2.723,1.008 -2.722,3.025l0,2.202l3.834,0l0,2.887l-3.818,0l0,13.334l-3.738,0l0,-13.334l-2.817,0l0,-2.883l2.817,0l0,-2.629c-0.074,-1.537 0.555,-3.027 1.707,-4.047c1.19,-1.006 2.712,-1.534 4.269,-1.482c0.742,-0.027 1.483,0.075 2.19,0.301l0,3.057l0.001,-0.004Zm10.774,20.845c-0.909,0.394 -1.895,0.578 -2.884,0.538c-3.2,0 -4.799,-1.509 -4.799,-4.529l0,-9.166l-2.754,0l0,-2.882l2.754,0l0,-3.757l3.737,-1.045l0,4.799l3.947,0l0,2.882l-3.947,0l0,8.115c-0.067,0.727 0.121,1.455 0.531,2.059c0.471,0.456 1.12,0.682 1.772,0.617c0.593,0.014 1.173,-0.176 1.642,-0.539l0.001,2.908Zm31.7,0.174l-4.204,0l-2.077,-5.782l-9.081,0l-1.997,5.782l-4.188,0l8.647,-22.705l4.316,0l8.584,22.707l0,-0.002Zm-7.293,-8.855l-3.204,-9.06c-0.135,-0.467 -0.237,-0.944 -0.306,-1.425l-0.064,0c-0.069,0.483 -0.177,0.959 -0.322,1.425l-3.178,9.065l7.069,0l0.005,-0.005Zm22.244,-5.829l-8.91,11.82l8.875,0l0,2.866l-14.111,0l0,-1.376l9.101,-11.975l-8.23,0l0,-2.867l13.273,0l0,1.537l0.002,-0.005Zm17.538,14.686l-3.736,0l0,-2.569l-0.064,0c-0.957,1.887 -2.941,3.043 -5.055,2.946c-3.898,0 -5.847,-2.302 -5.847,-6.906l0,-9.689l3.737,0l0,9.314c0,2.915 1.144,4.372 3.432,4.371c1.043,0.028 2.046,-0.414 2.73,-1.203c0.741,-0.877 1.124,-2.002 1.071,-3.149l0,-9.333l3.738,0l-0.006,16.218Zm14.449,-12.719c-0.574,-0.384 -1.26,-0.568 -1.949,-0.522c-1.11,0.001 -2.149,0.553 -2.771,1.472c-0.799,1.178 -1.189,2.586 -1.112,4.007l0,7.762l-3.736,0l0,-16.218l3.736,0l0,3.342l0.064,0c0.295,-1.031 0.88,-1.957 1.683,-2.668c0.701,-0.618 1.603,-0.959 2.537,-0.959c0.532,-0.03 1.063,0.073 1.545,0.301l0,3.484l0.003,-0.001Zm16.639,5.607l-11.244,0c-0.04,1.302 0.472,2.563 1.409,3.469c1.033,0.86 2.355,1.296 3.697,1.219c1.739,0.007 3.436,-0.537 4.848,-1.552l0,2.961c-1.819,1.008 -3.883,1.491 -5.96,1.395c-2.132,0.116 -4.213,-0.69 -5.71,-2.211c-1.382,-1.473 -2.072,-3.545 -2.072,-6.215c-0.093,-2.278 0.729,-4.5 2.281,-6.17c1.461,-1.564 3.522,-2.432 5.662,-2.383c1.977,-0.116 3.903,0.671 5.234,2.137c1.322,1.687 1.982,3.8 1.854,5.939l0,1.409l0.001,0.002Zm-3.607,-2.596c0.055,-1.106 -0.281,-2.197 -0.951,-3.08c-0.644,-0.743 -1.596,-1.149 -2.578,-1.1c-1.032,-0.016 -2.025,0.406 -2.73,1.16c-0.775,0.833 -1.258,1.895 -1.377,3.025l7.636,0l0,-0.005Z" style="fill:#009fef;fill-rule:nonzero;"/></g></svg>