<?xml version="1.0" encoding="UTF-8" standalone="no"?><!DOCTYPE svg PUBLIC "-//W3C//DTD SVG 1.1//EN" "http://www.w3.org/Graphics/SVG/1.1/DTD/svg11.dtd"><svg width="100%" height="100%" viewBox="0 0 1430 673" version="1.1" xmlns="http://www.w3.org/2000/svg" xmlns:xlink="http://www.w3.org/1999/xlink" xml:space="preserve" xmlns:serif="http://www.serif.com/" style="fill-rule:evenodd;clip-rule:evenodd;stroke-linejoin:round;stroke-miterlimit:1.41421;"><g><path d="M468.257,489.91l100.464,7.399l0,85.81c0,0 -187.715,184.881 -461.241,-34.017l93.209,0l10.33,-84.32c0,0 106.374,107.959 257.238,25.128Z" style="fill-rule:nonzero;"/><path d="M128.043,93.482c0,0 -204.147,190.07 -36.995,433.423l93.305,8.889l8.889,-90.231c0,0 -85.762,-140.534 25.032,-251.473l-99.359,-7.687l9.128,-92.921Z" style="fill-rule:nonzero;"/><path d="M150.241,80.173c0,0 254.643,-164.173 448.221,34.017l-85.81,-5.91l-8.889,96.092c0,0 -97.629,-118.289 -260.313,-26.569l-99.119,-4.42l5.91,-93.21Z" style="fill-rule:nonzero;"/><path d="M525.96,228.107l5.91,-99.119l90.23,8.889l272.181,303.218l-93.161,0l-8.889,84.321l-266.271,-297.309Z" style="fill-rule:nonzero;"/></g><g><path d="M493.433,473.67l344.634,-380.188l91.72,8.888l-5.909,93.21l-338.725,377.161l1.441,-97.63l-93.161,-1.441Z" style="fill-rule:nonzero;"/><path d="M851.376,79.789l95.419,7.783l-6.63,90.999c0,0 140.871,-89.894 244.074,5.526l100.897,4.42l9.08,-88.597c0,0 -157.687,-177.77 -442.84,-20.131Z" style="fill-rule:nonzero;"/><path d="M1198.65,198.511l100.896,5.909l7.784,-89.125c0,0 220.771,245.947 -17.777,457.446l-97.582,-6.774l8.889,-100.897c0,0 132.03,-147.838 -2.21,-266.559Z" style="fill-rule:nonzero;"/><path d="M917.968,464.782l-101.906,-8.889l-5.717,89.894c0,0 180.845,208.568 453.746,42.137l-93.209,-7.544l8.889,-96.524c0,0 -118.722,95.179 -261.803,-19.074Z" style="fill-rule:nonzero;"/></g><text x="893.29px" y="388.442px" style="font-family:'ArialMT', 'Arial', sans-serif;font-size:155px;">Ops</text><text x="221.676px" y="394.314px" style="font-family:'ArialMT', 'Arial', sans-serif;font-size:164px;">Sec</text></svg>