<svg xmlns="http://www.w3.org/2000/svg" viewBox="0 0 500 500" width="500" height="500" preserveAspectRatio="xMidYMid meet" style="width: 100%; height: 100%; transform: translate3d(0px, 0px, 0px);"><defs><clipPath id="__lottie_element_33"><rect width="500" height="500" x="0" y="0"></rect></clipPath><clipPath id="__lottie_element_57"><path d="M0,0 L500,0 L500,500 L0,500z"></path></clipPath></defs><g clip-path="url(#__lottie_element_33)"><g transform="matrix(-2.799999952316284,0,0,-2.799999952316284,332.1708984375,262.27099609375)" opacity="1" style="display: block;"><g opacity="1" transform="matrix(1,0,0,1,0,0)"><path stroke-linecap="round" stroke-linejoin="round" fill-opacity="0" stroke="rgb(234,111,44)" stroke-opacity="1" stroke-width="2.1" d=" M7.791999816894531,23.44499969482422 C6.374000072479248,22.55699920654297 5.033999919891357,21.496999740600586 3.799999952316284,20.26300048828125 C-5.007999897003174,11.454999923706055 -5.007999897003174,-2.825000047683716 3.799999952316284,-11.633000373840332 C7.443999767303467,-15.277000427246094 12.02400016784668,-17.413000106811523 16.766000747680664,-18.04199981689453"></path></g></g><g transform="matrix(-2.7995736598968506,-0.04886673763394356,0.04886673763394356,-2.7995736598968506,330.9459228515625,262.69854736328125)" opacity="1" style="display: block;"><g opacity="1" transform="matrix(1,0,0,1,0,0)"><path stroke-linecap="round" stroke-linejoin="round" fill-opacity="0" stroke="rgb(234,111,44)" stroke-opacity="1" stroke-width="2.1" d=" M8.980999946594238,11.10099983215332 C8.980999946594238,11.10099983215332 8.968000411987305,24.93000030517578 8.968000411987305,24.93000030517578 C8.968000411987305,24.93000030517578 -4.831999778747559,24.945999145507812 -4.831999778747559,24.945999145507812"></path></g></g><g transform="matrix(2.799999952316284,0,0,2.799999952316284,221.58209228515625,238.10699462890625)" opacity="1" style="display: block;"><g opacity="1" transform="matrix(1,0,0,1,0,0)"><path stroke-linecap="round" stroke-linejoin="round" fill-opacity="0" stroke="rgb(234,111,44)" stroke-opacity="1" stroke-width="2.1" d=" M7.791999816894531,23.44499969482422 C6.374000072479248,22.55699920654297 5.033999919891357,21.496999740600586 3.799999952316284,20.26300048828125 C-5.007999897003174,11.454999923706055 -5.007999897003174,-2.825000047683716 3.799999952316284,-11.633000373840332 C7.443999767303467,-15.277000427246094 12.02400016784668,-17.413000106811523 16.766000747680664,-18.04199981689453"></path></g></g><g transform="matrix(2.7995736598968506,0.04886673763394356,-0.04886673763394356,2.7995736598968506,222.80706787109375,237.679443359375)" opacity="1" style="display: block;"><g opacity="1" transform="matrix(1,0,0,1,0,0)"><path stroke-linecap="round" stroke-linejoin="round" fill-opacity="0" stroke="rgb(234,111,44)" stroke-opacity="1" stroke-width="2.1" d=" M8.980999946594238,11.10099983215332 C8.980999946594238,11.10099983215332 8.968000411987305,24.93000030517578 8.968000411987305,24.93000030517578 C8.968000411987305,24.93000030517578 -4.831999778747559,24.945999145507812 -4.831999778747559,24.945999145507812"></path></g></g><g transform="matrix(3.5,0,0,3.5,250,229.875)" opacity="1" style="display: block;"><g opacity="1" transform="matrix(1,0,0,1,0,0)"><path stroke-linecap="round" stroke-linejoin="round" fill-opacity="0" stroke="rgb(56,61,85)" stroke-opacity="1" stroke-width="1.75" d=" M34.66299819946289,-13.180000305175781 C29.535999298095703,-25.198999404907227 17.61400032043457,-33.625 3.7219998836517334,-33.625 C-9.26200008392334,-33.625 -20.518999099731445,-26.26099967956543 -26.121999740600586,-15.486000061035156 C-27.139999389648438,-15.817000389099121 -28.225000381469727,-16 -29.354000091552734,-16 C-35.132999420166016,-16 -39.81700134277344,-11.3149995803833 -39.81700134277344,-5.535999774932861 C-39.81700134277344,-4.76200008392334 -39.72700119018555,-4.010000228881836 -39.56800079345703,-3.2839999198913574 C-45.79499816894531,-0.006000000052154064 -50.047000885009766,6.51800012588501 -50.047000885009766,14.043999671936035 C-50.047000885009766,24.857999801635742 -41.279998779296875,33.625 -30.465999603271484,33.625 C-24.732999801635742,33.625 22.198999404907227,33.625 25.80500030517578,33.625 C39.19300079345703,33.625 50.047000885009766,22.77199935913086 50.047000885009766,9.383999824523926 C50.047000885009766,-0.8769999742507935 43.667999267578125,-9.642000198364258 34.66299819946289,-13.180000305175781z"></path></g></g><g transform="matrix(3.5,0,0,3.5,250,229.875)" opacity="1" style="display: block;"><g opacity="1" transform="matrix(1,0,0,1,0,0)"><path stroke-linecap="round" stroke-linejoin="round" fill-opacity="0" stroke="rgb(56,61,85)" stroke-opacity="1" stroke-width="1.75" d=" M-19.496000289916992,-9.069999694824219 C-20.952999114990234,-13.107000350952148 -24.808000564575195,-16 -29.347000122070312,-16 M34.58599853515625,-13.411999702453613 C36.375,-9.303000450134277 37.367000579833984,-4.76800012588501 37.367000579833984,0 C37.367000579833984,0 37.37799835205078,3.5510001182556152 36.145999908447266,7.908999919891357"></path></g></g><g clip-path="url(#__lottie_element_57)" transform="matrix(1,0,0,1,0,0)" opacity="1" style="display: block;"></g></g></svg>