<svg xmlns="http://www.w3.org/2000/svg" viewBox="0 0 500 500" width="500" height="500" preserveAspectRatio="xMidYMid meet" style="width: 100%; height: 100%; transform: translate3d(0px, 0px, 0px);"><defs><clipPath id="__lottie_element_60"><rect width="500" height="500" x="0" y="0"></rect></clipPath><clipPath id="__lottie_element_63"><path d="M0,0 L500,0 L500,500 L0,500z"></path></clipPath><clipPath id="__lottie_element_67"><path d="M0,0 L500,0 L500,500 L0,500z"></path></clipPath><clipPath id="__lottie_element_71"><path d="M0,0 L500,0 L500,500 L0,500z"></path></clipPath></defs><g clip-path="url(#__lottie_element_60)"><g clip-path="url(#__lottie_element_63)" transform="matrix(1,0,0,1,0,0)" opacity="1" style="display: block;"><g transform="matrix(1,0,0,1,327.0010070800781,99.73500061035156)" opacity="1" style="display: block;"><g opacity="1" transform="matrix(1,0,0,1,0,0)"><path stroke-linecap="round" stroke-linejoin="round" fill-opacity="0" stroke="rgb(234,111,44)" stroke-opacity="1" stroke-width="21" d=" M-0.004999999888241291,0 C-0.004999999888241291,0 0.004999999888241291,0 0.004999999888241291,0"></path></g></g><g transform="matrix(1,0,0,1,378.3340148925781,159.7030029296875)" opacity="1" style="display: block;"><g opacity="1" transform="matrix(1,0,0,1,0,0)"><path stroke-linecap="round" stroke-linejoin="round" fill-opacity="0" stroke="rgb(56,61,85)" stroke-opacity="1" stroke-width="17.5" d=" M-0.004999999888241291,0 C-0.004999999888241291,0 0.004999999888241291,0 0.004999999888241291,0"></path></g></g><g transform="matrix(1,0,0,1,409.5350036621094,219.4239959716797)" opacity="1" style="display: block;"><g opacity="1" transform="matrix(1,0,0,1,0,0)"><path stroke-linecap="round" stroke-linejoin="round" fill-opacity="0" stroke="rgb(56,61,85)" stroke-opacity="1" stroke-width="14.524999999999999" d=" M-0.004999999888241291,0 C-0.004999999888241291,0 0.004999999888241291,0 0.004999999888241291,0"></path></g></g><g transform="matrix(1,0,0,1,333.0400085449219,154.08299255371094)" opacity="1" style="display: block;"><g opacity="1" transform="matrix(1,0,0,1,0,0)"><path stroke-linecap="round" stroke-linejoin="round" fill-opacity="0" stroke="rgb(56,61,85)" stroke-opacity="1" stroke-width="17.5" d=" M-0.004999999888241291,0 C-0.004999999888241291,0 0.004999999888241291,0 0.004999999888241291,0"></path></g></g><g transform="matrix(1.0005146265029907,0,0,1.0005146265029907,333.049072265625,153.9424591064453)" opacity="0.005717610000000217" style="display: none;"><g opacity="1" transform="matrix(1,0,0,1,0,0)"><path stroke-linecap="round" stroke-linejoin="round" fill-opacity="0" stroke="rgb(234,111,44)" stroke-opacity="1" stroke-width="17.5" d=" M-0.004999999888241291,0 C-0.004999999888241291,0 0.004999999888241291,0 0.004999999888241291,0"></path></g></g><g transform="matrix(1,0,0,1,372.96600341796875,205.33299255371094)" opacity="1" style="display: block;"><g opacity="1" transform="matrix(1,0,0,1,0,0)"><path stroke-linecap="round" stroke-linejoin="round" fill-opacity="0" stroke="rgb(56,61,85)" stroke-opacity="1" stroke-width="14.524999999999999" d=" M-0.004999999888241291,0 C-0.004999999888241291,0 0.004999999888241291,0 0.004999999888241291,0"></path></g></g><g transform="matrix(1,0,0,1,395.7799987792969,256.33099365234375)" opacity="1" style="display: block;"><g opacity="1" transform="matrix(1,0,0,1,0,0)"><path stroke-linecap="round" stroke-linejoin="round" fill-opacity="0" stroke="rgb(56,61,85)" stroke-opacity="1" stroke-width="13.020000000000001" d=" M-0.004999999888241291,0 C-0.004999999888241291,0 0.004999999888241291,0 0.004999999888241291,0"></path></g></g><g transform="matrix(1,0,0,1,327.6709899902344,199.29400634765625)" opacity="1" style="display: block;"><g opacity="1" transform="matrix(1,0,0,1,0,0)"><path stroke-linecap="round" stroke-linejoin="round" fill-opacity="0" stroke="rgb(56,61,85)" stroke-opacity="1" stroke-width="14.524999999999999" d=" M-0.004999999888241291,0 C-0.004999999888241291,0 0.004999999888241291,0 0.004999999888241291,0"></path></g></g><g transform="matrix(1,0,0,1,359.2099914550781,242.24000549316406)" opacity="1" style="display: block;"><g opacity="1" transform="matrix(1,0,0,1,0,0)"><path stroke-linecap="round" stroke-linejoin="round" fill-opacity="0" stroke="rgb(56,61,85)" stroke-opacity="1" stroke-width="13.020000000000001" d=" M-0.004999999888241291,0 C-0.004999999888241291,0 0.004999999888241291,0 0.004999999888241291,0"></path></g></g><g transform="matrix(1,0,0,1,378.3290100097656,284.1780090332031)" opacity="1" style="display: block;"><g opacity="1" transform="matrix(1,0,0,1,0,0)"><path stroke-linecap="round" stroke-linejoin="round" fill-opacity="0" stroke="rgb(56,61,85)" stroke-opacity="1" stroke-width="10.99" d=" M-0.004999999888241291,0 C-0.004999999888241291,0 0.004999999888241291,0 0.004999999888241291,0"></path></g></g><g transform="matrix(1,0,0,1,314.2510070800781,236.052001953125)" opacity="1" style="display: block;"><g opacity="1" transform="matrix(1,0,0,1,0,0)"><path stroke-linecap="round" stroke-linejoin="round" fill-opacity="0" stroke="rgb(56,61,85)" stroke-opacity="1" stroke-width="13.020000000000001" d=" M-0.004999999888241291,0 C-0.004999999888241291,0 0.004999999888241291,0 0.004999999888241291,0"></path></g></g><g transform="matrix(1,0,0,1,341.76300048828125,269.7070007324219)" opacity="1" style="display: block;"><g opacity="1" transform="matrix(1,0,0,1,0,0)"><path stroke-linecap="round" stroke-linejoin="round" fill-opacity="0" stroke="rgb(56,61,85)" stroke-opacity="1" stroke-width="10.99" d=" M-0.004999999888241291,0 C-0.004999999888241291,0 0.004999999888241291,0 0.004999999888241291,0"></path></g></g><g transform="matrix(1,0,0,1,357.281005859375,303.9729919433594)" opacity="1" style="display: block;"><g opacity="1" transform="matrix(1,0,0,1,0,0)"><path stroke-linecap="round" stroke-linejoin="round" fill-opacity="0" stroke="rgb(56,61,85)" stroke-opacity="1" stroke-width="9.520000000000001" d=" M-0.004999999888241291,0 C-0.004999999888241291,0 0.004999999888241291,0 0.004999999888241291,0"></path></g></g><g transform="matrix(1,0,0,1,296.16900634765625,264.0469970703125)" opacity="1" style="display: block;"><g opacity="1" transform="matrix(1,0,0,1,0,0)"><path stroke-linecap="round" stroke-linejoin="round" fill-opacity="0" stroke="rgb(56,61,85)" stroke-opacity="1" stroke-width="10.99" d=" M-0.004999999888241291,0 C-0.004999999888241291,0 0.004999999888241291,0 0.004999999888241291,0"></path></g></g><g transform="matrix(1,0,0,1,321.6319885253906,289.77398681640625)" opacity="1" style="display: block;"><g opacity="1" transform="matrix(1,0,0,1,0,0)"><path stroke-linecap="round" stroke-linejoin="round" fill-opacity="0" stroke="rgb(56,61,85)" stroke-opacity="1" stroke-width="9.520000000000001" d=" M-0.004999999888241291,0 C-0.004999999888241291,0 0.004999999888241291,0 0.004999999888241291,0"></path></g></g><g transform="matrix(1,0,0,1,337.4020080566406,315.62799072265625)" opacity="1" style="display: block;"><g opacity="1" transform="matrix(1,0,0,1,0,0)"><path stroke-linecap="round" stroke-linejoin="round" fill-opacity="0" stroke="rgb(56,61,85)" stroke-opacity="1" stroke-width="8.014999999999999" d=" M-0.004999999888241291,0 C-0.004999999888241291,0 0.004999999888241291,0 0.004999999888241291,0"></path></g></g><g transform="matrix(1,0,0,1,276.3389892578125,283.1709899902344)" opacity="1" style="display: block;"><g opacity="1" transform="matrix(1,0,0,1,0,0)"><path stroke-linecap="round" stroke-linejoin="round" fill-opacity="0" stroke="rgb(56,61,85)" stroke-opacity="1" stroke-width="9.520000000000001" d=" M-0.004999999888241291,0 C-0.004999999888241291,0 0.004999999888241291,0 0.004999999888241291,0"></path></g></g><g transform="matrix(1,0,0,1,300.15899658203125,301.9599914550781)" opacity="1" style="display: block;"><g opacity="1" transform="matrix(1,0,0,1,0,0)"><path stroke-linecap="round" stroke-linejoin="round" fill-opacity="0" stroke="rgb(56,61,85)" stroke-opacity="1" stroke-width="8.014999999999999" d=" M-0.004999999888241291,0 C-0.004999999888241291,0 0.004999999888241291,0 0.004999999888241291,0"></path></g></g><g transform="matrix(1,0,0,1,317.6059875488281,322.09100341796875)" opacity="1" style="display: block;"><g opacity="1" transform="matrix(1,0,0,1,0,0)"><path stroke-linecap="round" stroke-linejoin="round" fill-opacity="0" stroke="rgb(56,61,85)" stroke-opacity="1" stroke-width="7" d=" M-0.004999999888241291,0 C-0.004999999888241291,0 0.004999999888241291,0 0.004999999888241291,0"></path></g></g><g transform="matrix(0.5012864470481873,0,0,0.5012864470481873,246.413330078125,295.1346130371094)" opacity="0.01286462250000049" style="display: none;"><g opacity="1" transform="matrix(1,0,0,1,0,0)"><path stroke-linecap="round" stroke-linejoin="round" fill-opacity="0" stroke="rgb(56,61,85)" stroke-opacity="1" stroke-width="9.520000000000001" d=" M-0.004999999888241291,0 C-0.004999999888241291,0 0.004999999888241291,0 0.004999999888241291,0"></path></g></g><g transform="matrix(0.5012864470481873,0,0,0.5012864470481873,270.2294006347656,313.91729736328125)" opacity="0.01286462250000049" style="display: none;"><g opacity="1" transform="matrix(1,0,0,1,0,0)"><path stroke-linecap="round" stroke-linejoin="round" fill-opacity="0" stroke="rgb(56,61,85)" stroke-opacity="1" stroke-width="8.014999999999999" d=" M-0.004999999888241291,0 C-0.004999999888241291,0 0.004999999888241291,0 0.004999999888241291,0"></path></g></g><g transform="matrix(0.5012864470481873,0,0,0.5012864470481873,287.67559814453125,334.046875)" opacity="0.01286462250000049" style="display: none;"><g opacity="1" transform="matrix(1,0,0,1,0,0)"><path stroke-linecap="round" stroke-linejoin="round" fill-opacity="0" stroke="rgb(56,61,85)" stroke-opacity="1" stroke-width="7" d=" M-0.004999999888241291,0 C-0.004999999888241291,0 0.004999999888241291,0 0.004999999888241291,0"></path></g></g></g><g clip-path="url(#__lottie_element_67)" transform="matrix(-0.5,-0.8660253882408142,0.8660253882408142,-0.5,167.49365234375,596.00634765625)" opacity="1" style="display: block;"><g transform="matrix(1,0,0,1,327.0010070800781,99.73500061035156)" opacity="1" style="display: block;"><g opacity="1" transform="matrix(1,0,0,1,0,0)"><path stroke-linecap="round" stroke-linejoin="round" fill-opacity="0" stroke="rgb(234,111,44)" stroke-opacity="1" stroke-width="21" d=" M-0.004999999888241291,0 C-0.004999999888241291,0 0.004999999888241291,0 0.004999999888241291,0"></path></g></g><g transform="matrix(1,0,0,1,378.3340148925781,159.7030029296875)" opacity="1" style="display: block;"><g opacity="1" transform="matrix(1,0,0,1,0,0)"><path stroke-linecap="round" stroke-linejoin="round" fill-opacity="0" stroke="rgb(56,61,85)" stroke-opacity="1" stroke-width="17.5" d=" M-0.004999999888241291,0 C-0.004999999888241291,0 0.004999999888241291,0 0.004999999888241291,0"></path></g></g><g transform="matrix(1,0,0,1,409.5350036621094,219.4239959716797)" opacity="1" style="display: block;"><g opacity="1" transform="matrix(1,0,0,1,0,0)"><path stroke-linecap="round" stroke-linejoin="round" fill-opacity="0" stroke="rgb(56,61,85)" stroke-opacity="1" stroke-width="14.524999999999999" d=" M-0.004999999888241291,0 C-0.004999999888241291,0 0.004999999888241291,0 0.004999999888241291,0"></path></g></g><g transform="matrix(1,0,0,1,333.0400085449219,154.08299255371094)" opacity="1" style="display: block;"><g opacity="1" transform="matrix(1,0,0,1,0,0)"><path stroke-linecap="round" stroke-linejoin="round" fill-opacity="0" stroke="rgb(56,61,85)" stroke-opacity="1" stroke-width="17.5" d=" M-0.004999999888241291,0 C-0.004999999888241291,0 0.004999999888241291,0 0.004999999888241291,0"></path></g></g><g transform="matrix(1.0005146265029907,0,0,1.0005146265029907,333.049072265625,153.9424591064453)" opacity="0.005717610000000217" style="display: none;"><g opacity="1" transform="matrix(1,0,0,1,0,0)"><path stroke-linecap="round" stroke-linejoin="round" fill-opacity="0" stroke="rgb(234,111,44)" stroke-opacity="1" stroke-width="17.5" d=" M-0.004999999888241291,0 C-0.004999999888241291,0 0.004999999888241291,0 0.004999999888241291,0"></path></g></g><g transform="matrix(1,0,0,1,372.96600341796875,205.33299255371094)" opacity="1" style="display: block;"><g opacity="1" transform="matrix(1,0,0,1,0,0)"><path stroke-linecap="round" stroke-linejoin="round" fill-opacity="0" stroke="rgb(56,61,85)" stroke-opacity="1" stroke-width="14.524999999999999" d=" M-0.004999999888241291,0 C-0.004999999888241291,0 0.004999999888241291,0 0.004999999888241291,0"></path></g></g><g transform="matrix(1,0,0,1,395.7799987792969,256.33099365234375)" opacity="1" style="display: block;"><g opacity="1" transform="matrix(1,0,0,1,0,0)"><path stroke-linecap="round" stroke-linejoin="round" fill-opacity="0" stroke="rgb(56,61,85)" stroke-opacity="1" stroke-width="13.020000000000001" d=" M-0.004999999888241291,0 C-0.004999999888241291,0 0.004999999888241291,0 0.004999999888241291,0"></path></g></g><g transform="matrix(1,0,0,1,327.6709899902344,199.29400634765625)" opacity="1" style="display: block;"><g opacity="1" transform="matrix(1,0,0,1,0,0)"><path stroke-linecap="round" stroke-linejoin="round" fill-opacity="0" stroke="rgb(56,61,85)" stroke-opacity="1" stroke-width="14.524999999999999" d=" M-0.004999999888241291,0 C-0.004999999888241291,0 0.004999999888241291,0 0.004999999888241291,0"></path></g></g><g transform="matrix(1,0,0,1,359.2099914550781,242.24000549316406)" opacity="1" style="display: block;"><g opacity="1" transform="matrix(1,0,0,1,0,0)"><path stroke-linecap="round" stroke-linejoin="round" fill-opacity="0" stroke="rgb(56,61,85)" stroke-opacity="1" stroke-width="13.020000000000001" d=" M-0.004999999888241291,0 C-0.004999999888241291,0 0.004999999888241291,0 0.004999999888241291,0"></path></g></g><g transform="matrix(1,0,0,1,378.3290100097656,284.1780090332031)" opacity="1" style="display: block;"><g opacity="1" transform="matrix(1,0,0,1,0,0)"><path stroke-linecap="round" stroke-linejoin="round" fill-opacity="0" stroke="rgb(56,61,85)" stroke-opacity="1" stroke-width="10.99" d=" M-0.004999999888241291,0 C-0.004999999888241291,0 0.004999999888241291,0 0.004999999888241291,0"></path></g></g><g transform="matrix(1,0,0,1,314.2510070800781,236.052001953125)" opacity="1" style="display: block;"><g opacity="1" transform="matrix(1,0,0,1,0,0)"><path stroke-linecap="round" stroke-linejoin="round" fill-opacity="0" stroke="rgb(56,61,85)" stroke-opacity="1" stroke-width="13.020000000000001" d=" M-0.004999999888241291,0 C-0.004999999888241291,0 0.004999999888241291,0 0.004999999888241291,0"></path></g></g><g transform="matrix(1,0,0,1,341.76300048828125,269.7070007324219)" opacity="1" style="display: block;"><g opacity="1" transform="matrix(1,0,0,1,0,0)"><path stroke-linecap="round" stroke-linejoin="round" fill-opacity="0" stroke="rgb(56,61,85)" stroke-opacity="1" stroke-width="10.99" d=" M-0.004999999888241291,0 C-0.004999999888241291,0 0.004999999888241291,0 0.004999999888241291,0"></path></g></g><g transform="matrix(1,0,0,1,357.281005859375,303.9729919433594)" opacity="1" style="display: block;"><g opacity="1" transform="matrix(1,0,0,1,0,0)"><path stroke-linecap="round" stroke-linejoin="round" fill-opacity="0" stroke="rgb(56,61,85)" stroke-opacity="1" stroke-width="9.520000000000001" d=" M-0.004999999888241291,0 C-0.004999999888241291,0 0.004999999888241291,0 0.004999999888241291,0"></path></g></g><g transform="matrix(1,0,0,1,296.16900634765625,264.0469970703125)" opacity="1" style="display: block;"><g opacity="1" transform="matrix(1,0,0,1,0,0)"><path stroke-linecap="round" stroke-linejoin="round" fill-opacity="0" stroke="rgb(56,61,85)" stroke-opacity="1" stroke-width="10.99" d=" M-0.004999999888241291,0 C-0.004999999888241291,0 0.004999999888241291,0 0.004999999888241291,0"></path></g></g><g transform="matrix(1,0,0,1,321.6319885253906,289.77398681640625)" opacity="1" style="display: block;"><g opacity="1" transform="matrix(1,0,0,1,0,0)"><path stroke-linecap="round" stroke-linejoin="round" fill-opacity="0" stroke="rgb(56,61,85)" stroke-opacity="1" stroke-width="9.520000000000001" d=" M-0.004999999888241291,0 C-0.004999999888241291,0 0.004999999888241291,0 0.004999999888241291,0"></path></g></g><g transform="matrix(1,0,0,1,337.4020080566406,315.62799072265625)" opacity="1" style="display: block;"><g opacity="1" transform="matrix(1,0,0,1,0,0)"><path stroke-linecap="round" stroke-linejoin="round" fill-opacity="0" stroke="rgb(56,61,85)" stroke-opacity="1" stroke-width="8.014999999999999" d=" M-0.004999999888241291,0 C-0.004999999888241291,0 0.004999999888241291,0 0.004999999888241291,0"></path></g></g><g transform="matrix(1,0,0,1,276.3389892578125,283.1709899902344)" opacity="1" style="display: block;"><g opacity="1" transform="matrix(1,0,0,1,0,0)"><path stroke-linecap="round" stroke-linejoin="round" fill-opacity="0" stroke="rgb(56,61,85)" stroke-opacity="1" stroke-width="9.520000000000001" d=" M-0.004999999888241291,0 C-0.004999999888241291,0 0.004999999888241291,0 0.004999999888241291,0"></path></g></g><g transform="matrix(1,0,0,1,300.15899658203125,301.9599914550781)" opacity="1" style="display: block;"><g opacity="1" transform="matrix(1,0,0,1,0,0)"><path stroke-linecap="round" stroke-linejoin="round" fill-opacity="0" stroke="rgb(56,61,85)" stroke-opacity="1" stroke-width="8.014999999999999" d=" M-0.004999999888241291,0 C-0.004999999888241291,0 0.004999999888241291,0 0.004999999888241291,0"></path></g></g><g transform="matrix(1,0,0,1,317.6059875488281,322.09100341796875)" opacity="1" style="display: block;"><g opacity="1" transform="matrix(1,0,0,1,0,0)"><path stroke-linecap="round" stroke-linejoin="round" fill-opacity="0" stroke="rgb(56,61,85)" stroke-opacity="1" stroke-width="7" d=" M-0.004999999888241291,0 C-0.004999999888241291,0 0.004999999888241291,0 0.004999999888241291,0"></path></g></g><g transform="matrix(0.5012864470481873,0,0,0.5012864470481873,246.413330078125,295.1346130371094)" opacity="0.01286462250000049" style="display: none;"><g opacity="1" transform="matrix(1,0,0,1,0,0)"><path stroke-linecap="round" stroke-linejoin="round" fill-opacity="0" stroke="rgb(56,61,85)" stroke-opacity="1" stroke-width="9.520000000000001" d=" M-0.004999999888241291,0 C-0.004999999888241291,0 0.004999999888241291,0 0.004999999888241291,0"></path></g></g><g transform="matrix(0.5012864470481873,0,0,0.5012864470481873,270.2294006347656,313.91729736328125)" opacity="0.01286462250000049" style="display: none;"><g opacity="1" transform="matrix(1,0,0,1,0,0)"><path stroke-linecap="round" stroke-linejoin="round" fill-opacity="0" stroke="rgb(56,61,85)" stroke-opacity="1" stroke-width="8.014999999999999" d=" M-0.004999999888241291,0 C-0.004999999888241291,0 0.004999999888241291,0 0.004999999888241291,0"></path></g></g><g transform="matrix(0.5012864470481873,0,0,0.5012864470481873,287.67559814453125,334.046875)" opacity="0.01286462250000049" style="display: none;"><g opacity="1" transform="matrix(1,0,0,1,0,0)"><path stroke-linecap="round" stroke-linejoin="round" fill-opacity="0" stroke="rgb(56,61,85)" stroke-opacity="1" stroke-width="7" d=" M-0.004999999888241291,0 C-0.004999999888241291,0 0.004999999888241291,0 0.004999999888241291,0"></path></g></g></g><g clip-path="url(#__lottie_element_71)" transform="matrix(-0.5,0.8660253882408142,-0.8660253882408142,-0.5,601.00634765625,152.99365234375)" opacity="1" style="display: block;"><g transform="matrix(1,0,0,1,327.0010070800781,99.73500061035156)" opacity="1" style="display: block;"><g opacity="1" transform="matrix(1,0,0,1,0,0)"><path stroke-linecap="round" stroke-linejoin="round" fill-opacity="0" stroke="rgb(234,111,44)" stroke-opacity="1" stroke-width="21" d=" M-0.004999999888241291,0 C-0.004999999888241291,0 0.004999999888241291,0 0.004999999888241291,0"></path></g></g><g transform="matrix(1,0,0,1,378.3340148925781,159.7030029296875)" opacity="1" style="display: block;"><g opacity="1" transform="matrix(1,0,0,1,0,0)"><path stroke-linecap="round" stroke-linejoin="round" fill-opacity="0" stroke="rgb(56,61,85)" stroke-opacity="1" stroke-width="17.5" d=" M-0.004999999888241291,0 C-0.004999999888241291,0 0.004999999888241291,0 0.004999999888241291,0"></path></g></g><g transform="matrix(1,0,0,1,409.5350036621094,219.4239959716797)" opacity="1" style="display: block;"><g opacity="1" transform="matrix(1,0,0,1,0,0)"><path stroke-linecap="round" stroke-linejoin="round" fill-opacity="0" stroke="rgb(56,61,85)" stroke-opacity="1" stroke-width="14.524999999999999" d=" M-0.004999999888241291,0 C-0.004999999888241291,0 0.004999999888241291,0 0.004999999888241291,0"></path></g></g><g transform="matrix(1,0,0,1,333.0400085449219,154.08299255371094)" opacity="1" style="display: block;"><g opacity="1" transform="matrix(1,0,0,1,0,0)"><path stroke-linecap="round" stroke-linejoin="round" fill-opacity="0" stroke="rgb(56,61,85)" stroke-opacity="1" stroke-width="17.5" d=" M-0.004999999888241291,0 C-0.004999999888241291,0 0.004999999888241291,0 0.004999999888241291,0"></path></g></g><g transform="matrix(1.0005146265029907,0,0,1.0005146265029907,333.049072265625,153.9424591064453)" opacity="0.005717610000000217" style="display: none;"><g opacity="1" transform="matrix(1,0,0,1,0,0)"><path stroke-linecap="round" stroke-linejoin="round" fill-opacity="0" stroke="rgb(234,111,44)" stroke-opacity="1" stroke-width="17.5" d=" M-0.004999999888241291,0 C-0.004999999888241291,0 0.004999999888241291,0 0.004999999888241291,0"></path></g></g><g transform="matrix(1,0,0,1,372.96600341796875,205.33299255371094)" opacity="1" style="display: block;"><g opacity="1" transform="matrix(1,0,0,1,0,0)"><path stroke-linecap="round" stroke-linejoin="round" fill-opacity="0" stroke="rgb(56,61,85)" stroke-opacity="1" stroke-width="14.524999999999999" d=" M-0.004999999888241291,0 C-0.004999999888241291,0 0.004999999888241291,0 0.004999999888241291,0"></path></g></g><g transform="matrix(1,0,0,1,395.7799987792969,256.33099365234375)" opacity="1" style="display: block;"><g opacity="1" transform="matrix(1,0,0,1,0,0)"><path stroke-linecap="round" stroke-linejoin="round" fill-opacity="0" stroke="rgb(56,61,85)" stroke-opacity="1" stroke-width="13.020000000000001" d=" M-0.004999999888241291,0 C-0.004999999888241291,0 0.004999999888241291,0 0.004999999888241291,0"></path></g></g><g transform="matrix(1,0,0,1,327.6709899902344,199.29400634765625)" opacity="1" style="display: block;"><g opacity="1" transform="matrix(1,0,0,1,0,0)"><path stroke-linecap="round" stroke-linejoin="round" fill-opacity="0" stroke="rgb(56,61,85)" stroke-opacity="1" stroke-width="14.524999999999999" d=" M-0.004999999888241291,0 C-0.004999999888241291,0 0.004999999888241291,0 0.004999999888241291,0"></path></g></g><g transform="matrix(1,0,0,1,359.2099914550781,242.24000549316406)" opacity="1" style="display: block;"><g opacity="1" transform="matrix(1,0,0,1,0,0)"><path stroke-linecap="round" stroke-linejoin="round" fill-opacity="0" stroke="rgb(56,61,85)" stroke-opacity="1" stroke-width="13.020000000000001" d=" M-0.004999999888241291,0 C-0.004999999888241291,0 0.004999999888241291,0 0.004999999888241291,0"></path></g></g><g transform="matrix(1,0,0,1,378.3290100097656,284.1780090332031)" opacity="1" style="display: block;"><g opacity="1" transform="matrix(1,0,0,1,0,0)"><path stroke-linecap="round" stroke-linejoin="round" fill-opacity="0" stroke="rgb(56,61,85)" stroke-opacity="1" stroke-width="10.99" d=" M-0.004999999888241291,0 C-0.004999999888241291,0 0.004999999888241291,0 0.004999999888241291,0"></path></g></g><g transform="matrix(1,0,0,1,314.2510070800781,236.052001953125)" opacity="1" style="display: block;"><g opacity="1" transform="matrix(1,0,0,1,0,0)"><path stroke-linecap="round" stroke-linejoin="round" fill-opacity="0" stroke="rgb(56,61,85)" stroke-opacity="1" stroke-width="13.020000000000001" d=" M-0.004999999888241291,0 C-0.004999999888241291,0 0.004999999888241291,0 0.004999999888241291,0"></path></g></g><g transform="matrix(1,0,0,1,341.76300048828125,269.7070007324219)" opacity="1" style="display: block;"><g opacity="1" transform="matrix(1,0,0,1,0,0)"><path stroke-linecap="round" stroke-linejoin="round" fill-opacity="0" stroke="rgb(56,61,85)" stroke-opacity="1" stroke-width="10.99" d=" M-0.004999999888241291,0 C-0.004999999888241291,0 0.004999999888241291,0 0.004999999888241291,0"></path></g></g><g transform="matrix(1,0,0,1,357.281005859375,303.9729919433594)" opacity="1" style="display: block;"><g opacity="1" transform="matrix(1,0,0,1,0,0)"><path stroke-linecap="round" stroke-linejoin="round" fill-opacity="0" stroke="rgb(56,61,85)" stroke-opacity="1" stroke-width="9.520000000000001" d=" M-0.004999999888241291,0 C-0.004999999888241291,0 0.004999999888241291,0 0.004999999888241291,0"></path></g></g><g transform="matrix(1,0,0,1,296.16900634765625,264.0469970703125)" opacity="1" style="display: block;"><g opacity="1" transform="matrix(1,0,0,1,0,0)"><path stroke-linecap="round" stroke-linejoin="round" fill-opacity="0" stroke="rgb(56,61,85)" stroke-opacity="1" stroke-width="10.99" d=" M-0.004999999888241291,0 C-0.004999999888241291,0 0.004999999888241291,0 0.004999999888241291,0"></path></g></g><g transform="matrix(1,0,0,1,321.6319885253906,289.77398681640625)" opacity="1" style="display: block;"><g opacity="1" transform="matrix(1,0,0,1,0,0)"><path stroke-linecap="round" stroke-linejoin="round" fill-opacity="0" stroke="rgb(56,61,85)" stroke-opacity="1" stroke-width="9.520000000000001" d=" M-0.004999999888241291,0 C-0.004999999888241291,0 0.004999999888241291,0 0.004999999888241291,0"></path></g></g><g transform="matrix(1,0,0,1,337.4020080566406,315.62799072265625)" opacity="1" style="display: block;"><g opacity="1" transform="matrix(1,0,0,1,0,0)"><path stroke-linecap="round" stroke-linejoin="round" fill-opacity="0" stroke="rgb(56,61,85)" stroke-opacity="1" stroke-width="8.014999999999999" d=" M-0.004999999888241291,0 C-0.004999999888241291,0 0.004999999888241291,0 0.004999999888241291,0"></path></g></g><g transform="matrix(1,0,0,1,276.3389892578125,283.1709899902344)" opacity="1" style="display: block;"><g opacity="1" transform="matrix(1,0,0,1,0,0)"><path stroke-linecap="round" stroke-linejoin="round" fill-opacity="0" stroke="rgb(56,61,85)" stroke-opacity="1" stroke-width="9.520000000000001" d=" M-0.004999999888241291,0 C-0.004999999888241291,0 0.004999999888241291,0 0.004999999888241291,0"></path></g></g><g transform="matrix(1,0,0,1,300.15899658203125,301.9599914550781)" opacity="1" style="display: block;"><g opacity="1" transform="matrix(1,0,0,1,0,0)"><path stroke-linecap="round" stroke-linejoin="round" fill-opacity="0" stroke="rgb(56,61,85)" stroke-opacity="1" stroke-width="8.014999999999999" d=" M-0.004999999888241291,0 C-0.004999999888241291,0 0.004999999888241291,0 0.004999999888241291,0"></path></g></g><g transform="matrix(1,0,0,1,317.6059875488281,322.09100341796875)" opacity="1" style="display: block;"><g opacity="1" transform="matrix(1,0,0,1,0,0)"><path stroke-linecap="round" stroke-linejoin="round" fill-opacity="0" stroke="rgb(56,61,85)" stroke-opacity="1" stroke-width="7" d=" M-0.004999999888241291,0 C-0.004999999888241291,0 0.004999999888241291,0 0.004999999888241291,0"></path></g></g><g transform="matrix(0.5012864470481873,0,0,0.5012864470481873,246.413330078125,295.1346130371094)" opacity="0.01286462250000049" style="display: none;"><g opacity="1" transform="matrix(1,0,0,1,0,0)"><path stroke-linecap="round" stroke-linejoin="round" fill-opacity="0" stroke="rgb(56,61,85)" stroke-opacity="1" stroke-width="9.520000000000001" d=" M-0.004999999888241291,0 C-0.004999999888241291,0 0.004999999888241291,0 0.004999999888241291,0"></path></g></g><g transform="matrix(0.5012864470481873,0,0,0.5012864470481873,270.2294006347656,313.91729736328125)" opacity="0.01286462250000049" style="display: none;"><g opacity="1" transform="matrix(1,0,0,1,0,0)"><path stroke-linecap="round" stroke-linejoin="round" fill-opacity="0" stroke="rgb(56,61,85)" stroke-opacity="1" stroke-width="8.014999999999999" d=" M-0.004999999888241291,0 C-0.004999999888241291,0 0.004999999888241291,0 0.004999999888241291,0"></path></g></g><g transform="matrix(0.5012864470481873,0,0,0.5012864470481873,287.67559814453125,334.046875)" opacity="0.01286462250000049" style="display: none;"><g opacity="1" transform="matrix(1,0,0,1,0,0)"><path stroke-linecap="round" stroke-linejoin="round" fill-opacity="0" stroke="rgb(56,61,85)" stroke-opacity="1" stroke-width="7" d=" M-0.004999999888241291,0 C-0.004999999888241291,0 0.004999999888241291,0 0.004999999888241291,0"></path></g></g></g><g class="com" style="display: none;"><g><path></path></g><g><path></path></g><g><path></path></g><g><path></path></g><g><path></path></g><g><path></path></g><g><path></path></g><g><path></path></g><g><path></path></g><g><path></path></g><g><path></path></g><g><path></path></g></g></g></svg>