<svg xmlns="http://www.w3.org/2000/svg" viewBox="0 0 500 500" width="500" height="500" preserveAspectRatio="xMidYMid meet" style="width: 100%; height: 100%; transform: translate3d(0px, 0px, 0px);"><defs><clipPath id="__lottie_element_277"><rect width="500" height="500" x="0" y="0"></rect></clipPath></defs><g clip-path="url(#__lottie_element_277)"><g transform="matrix(3.5,0.00002081629827443976,-0.00002081629827443976,3.5,249.9988250732422,250.00067138671875)" opacity="1" style="display: block;"><g opacity="1" transform="matrix(1,0,0,1,0,0)"><path stroke-linecap="round" stroke-linejoin="round" fill-opacity="0" stroke="rgb(56,61,85)" stroke-opacity="1" stroke-width="1.75" d=" M20.799999237060547,-37.79100036621094 C36.99599838256836,-21.594999313354492 36.99599838256836,4.664999961853027 20.799999237060547,20.861000061035156 C4.604000091552734,37.05699920654297 -21.656999588012695,37.05699920654297 -37.85300064086914,20.861000061035156 C-54.04899978637695,4.664999961853027 -54.04899978637695,-21.594999313354492 -37.85300064086914,-37.79100036621094 C-21.656999588012695,-53.98699951171875 4.604000091552734,-53.98699951171875 20.799999237060547,-37.79100036621094z"></path></g></g><g transform="matrix(3.5,0.00002081629827443976,-0.00002081629827443976,3.5,249.9988250732422,250.00067138671875)" opacity="1" style="display: block;"><g opacity="1" transform="matrix(1,0,0,1,0,0)"><path stroke-linecap="round" stroke-linejoin="round" fill-opacity="0" stroke="rgb(234,111,44)" stroke-opacity="1" stroke-width="1.82" d=" M-39.64699935913086,-21.187999725341797 C-38.02299880981445,-25.21500015258789 -35.577999114990234,-28.98900032043457 -32.31399917602539,-32.25299835205078 C-28.409000396728516,-36.15800094604492 -23.77400016784668,-38.88999938964844 -18.849000930786133,-40.44900131225586"></path></g></g><g transform="matrix(3.5,0.00002081629827443976,-0.00002081629827443976,3.5,249.9988250732422,250.00067138671875)" opacity="1" style="display: block;"><g opacity="1" transform="matrix(1,0,0,1,0,0)"><path stroke-linecap="round" stroke-linejoin="round" fill-opacity="0" stroke="rgb(56,61,85)" stroke-opacity="1" stroke-width="2.1" d=" M21.486000061035156,21.427000045776367 C21.486000061035156,21.427000045776367 46.641998291015625,46.152000427246094 46.641998291015625,46.152000427246094"></path></g></g><g class="com" style="display: none;"><g><path></path></g><g><path></path></g><g><path></path></g><g><path></path></g><g><path></path></g><g><path></path></g><g><path></path></g><g><path></path></g><g><path></path></g><g><path></path></g><g><path></path></g><g><path></path></g></g></g></svg>