<svg xmlns="http://www.w3.org/2000/svg" version="1.1" xmlns:xlink="http://www.w3.org/1999/xlink" width="50" height="50" x="0" y="0" viewBox="0 0 17.369 17.369" style="enable-background:new 0 0 512 512" xml:space="preserve" class=""><g><path d="m0 14.249 9.923 2.567V.554L0 3.122v11.127zm5.062-4.816c-1.101-.535-1.819-1.384-1.819-2.727 0-1.575.944-2.781 2.508-2.781.748 0 1.298.22 1.692.466l-.335 1.685a2.463 2.463 0 0 0-1.387-.438c-.649 0-.964.411-.964.891 0 .589.374.849 1.229 1.301 1.171.603 1.721 1.453 1.721 2.754 0 1.548-.854 2.862-2.674 2.862-.758 0-1.505-.273-1.879-.561l.305-1.726c.403.287 1.023.574 1.663.574.688 0 1.052-.396 1.052-1-.001-.574-.316-.904-1.112-1.3zM15.204 6.208c-.358 0-.69.095-.988.249L12.9 5.139c.086-.233.139-.481.139-.744a2.158 2.158 0 0 0-2.074-2.155v4.312a2.21 2.21 0 0 0 .654-.131l1.478 1.477a2.122 2.122 0 0 0-.058.475c0 .536.202 1.02.525 1.397l-1.282 1.282a2.166 2.166 0 0 0-.993-.251c-.11 0-.217.016-.324.032v4.264c.107.017.214.032.324.032a2.163 2.163 0 0 0 2.11-2.631l1.978-1.978a2.159 2.159 0 0 0-.173-4.312z" style="" fill="#030104" data-original="#030104" class=""></path></g></svg>