<?xml version="1.0" encoding="UTF-8" standalone="no"?><!DOCTYPE svg PUBLIC "-//W3C//DTD SVG 1.1//EN" "http://www.w3.org/Graphics/SVG/1.1/DTD/svg11.dtd"><svg width="100%" height="100%" viewBox="0 0 106 49" version="1.1" xmlns="http://www.w3.org/2000/svg" xmlns:xlink="http://www.w3.org/1999/xlink" xml:space="preserve" xmlns:serif="http://www.serif.com/" style="fill-rule:evenodd;clip-rule:evenodd;stroke-linejoin:round;stroke-miterlimit:1.41421;"><path d="M17.6,42.3l13.7,0c0.3,0 0.5,-0.1 0.8,-0.2c0.2,-0.1 0.4,-0.3 0.6,-0.5l8.7,-10.9c0.2,-0.2 0.3,-0.5 0.3,-0.7c0.1,-0.3 0.1,-0.5 0,-0.8l-3.3,-13.3c-0.1,-0.2 -0.2,-0.5 -0.3,-0.7c-0.2,-0.2 -0.4,-0.4 -0.6,-0.5l-12.2,-6.2c-0.5,-0.2 -1.1,-0.2 -1.6,0l-12.4,6.2c-0.2,0.1 -0.4,0.3 -0.6,0.5c-0.2,0.2 -0.3,0.4 -0.3,0.7l-3.2,13.3c-0.1,0.3 -0.1,0.5 0,0.8c0.1,0.3 0.2,0.5 0.3,0.7l8.8,10.9c0.2,0.2 0.4,0.4 0.6,0.5c0.2,0.1 0.4,0.2 0.7,0.2Zm13.7,-1.9l-13.7,0l-8.7,-10.8l3.1,-13.3l12.4,-6.1l12.2,6.1l3.3,13.3l-8.6,10.8Z" style="fill:#238fcf;fill-rule:nonzero;"/><path d="M8.7,12.2l-1.6,-1.3l16.4,-8.1l0,2l-14.8,7.4Z" style="fill:#1bbfd3;fill-rule:nonzero;"/><path d="M44.7,31.3l2,0.4l-11.4,14.4l-0.9,-1.8l10.3,-13Z" style="fill:#79bf43;fill-rule:nonzero;"/><path d="M25.4,4.9l0,-2l16.2,8.1l-1.5,1.3l-14.7,-7.4Z" style="fill:#1bbfd3;fill-rule:nonzero;"/><path d="M41.1,13.7l1.6,-1.3l4.4,17.6l-2,-0.4l-4,-15.9Z" style="fill:#1d4489;fill-rule:nonzero;"/><path d="M3.8,29.5l-2,0.4l4.2,-17.5l1.6,1.3l-3.8,15.8Z" style="fill:#1d4489;fill-rule:nonzero;"/><path d="M4.2,31.3l10.5,13l-0.9,1.8l-11.6,-14.3l2,-0.5Z" style="fill:#79bf43;fill-rule:nonzero;"/><path d="M32.7,45.1l0.9,1.9l-18.2,0l0.9,-1.9l16.4,0Z" style="fill:#1bbfd3;fill-rule:nonzero;"/><path d="M58.6,23.7l-3.9,0l0,-1.6l9.5,0l0,1.6l-3.9,0l0,10.2l-1.7,0l0,-10.2Z" style="fill:#314351;fill-rule:nonzero;"/><path d="M73.5,28.5l0,5.4l-1.7,0l0,-1.2c-0.7,0.9 -1.8,1.5 -3,1.4c-1.9,0 -3.3,-1.1 -3.3,-2.8c0,-1.7 1.6,-3 3.6,-3c0.9,0 1.8,0.2 2.7,0.5l0,-0.3c0.1,-1.1 -0.7,-2.2 -1.9,-2.3c-0.1,0 -0.3,0 -0.4,0c-0.9,0 -1.7,0.3 -2.5,0.7l-0.6,-1.3c1,-0.6 2.2,-0.9 3.4,-0.9c1.9,-0.2 3.6,1.2 3.8,3.1c0,0.3 0,0.5 -0.1,0.7Zm-1.6,2.6l0,-1.2c-0.8,-0.2 -1.6,-0.4 -2.4,-0.3c-1.2,0 -2.2,0.7 -2.2,1.6c0,1 0.9,1.6 2,1.6c1.1,0 2.2,-0.7 2.6,-1.7Z" style="fill:#314351;fill-rule:nonzero;"/><path d="M83.8,28.2l0,5.6l-1.7,0l0,-5.4c0.1,-1.1 -0.7,-2.1 -1.9,-2.2l-0.1,0c-1.2,-0.1 -2.2,0.7 -2.4,1.8l0,5.8l-1.7,0l0,-8.8l1.7,0l0,1.3c0.6,-0.9 1.7,-1.5 2.8,-1.5c1.8,0 3.3,1.4 3.3,3.2c0,0.1 0,0.1 0,0.2Z" style="fill:#314351;fill-rule:nonzero;"/><path d="M85.9,32.6l5,-6.1l-4.9,0l0,-1.5l7.1,0l0,1.3l-5,6.1l5,0l0,1.5l-7.2,0l0,-1.3Z" style="fill:#314351;fill-rule:nonzero;"/><path d="M103,25l0,8.9l-1.7,0l0,-1.3c-0.6,0.9 -1.7,1.5 -2.8,1.5c-1.8,0 -3.3,-1.4 -3.3,-3.2c0,-0.1 0,-0.2 0,-0.3l0,-5.6l1.7,0l0,5.3c-0.1,1.1 0.7,2.1 1.9,2.2c0.1,0 0.1,0 0.2,0c1.2,0.1 2.2,-0.7 2.4,-1.8l0,-5.7l1.6,0Z" style="fill:#314351;fill-rule:nonzero;"/></svg>