<?xml version="1.0" encoding="UTF-8" standalone="no"?><!DOCTYPE svg PUBLIC "-//W3C//DTD SVG 1.1//EN" "http://www.w3.org/Graphics/SVG/1.1/DTD/svg11.dtd"><svg width="100%" height="100%" viewBox="0 0 75 76" version="1.1" xmlns="http://www.w3.org/2000/svg" xmlns:xlink="http://www.w3.org/1999/xlink" xml:space="preserve" xmlns:serif="http://www.serif.com/" style="fill-rule:evenodd;clip-rule:evenodd;stroke-linejoin:round;stroke-miterlimit:1.41421;"><path d="M56.623,25.935c-1.224,0.554 -2.614,0.89 -3.935,1.112c0.627,-0.105 1.53,-1.241 1.9,-1.7c0.563,-0.7 1.022,-1.498 1.285,-2.361c0.034,-0.067 0.054,-0.152 -0.013,-0.202c-0.085,-0.034 -0.141,-0.016 -0.209,0.017c-1.474,0.791 -3.002,1.363 -4.625,1.77c-0.134,0.033 -0.235,0 -0.319,-0.085c-0.135,-0.152 -0.262,-0.296 -0.404,-0.413c-0.683,-0.581 -1.415,-1.036 -2.241,-1.373c-1.084,-0.442 -2.268,-0.629 -3.435,-0.553c-1.136,0.074 -2.251,0.393 -3.26,0.92c-1.01,0.529 -1.911,1.263 -2.629,2.148c-0.742,0.916 -1.29,1.998 -1.57,3.145c-0.271,1.107 -0.248,2.201 -0.083,3.32c0.025,0.186 0.009,0.211 -0.159,0.186c-6.351,-0.946 -11.615,-3.218 -15.889,-8.087c-0.185,-0.212 -0.286,-0.212 -0.438,0.016c-1.871,2.803 -0.962,7.306 1.373,9.519c0.311,0.295 0.631,0.59 0.976,0.859c-0.126,0.026 -1.679,-0.142 -3.065,-0.859c-0.186,-0.117 -0.279,-0.049 -0.295,0.161c-0.018,0.302 0.009,0.581 0.05,0.91c0.359,2.841 2.327,5.469 5.021,6.495c0.32,0.134 0.674,0.252 1.02,0.311c-0.615,0.135 -1.247,0.231 -3.008,0.093c-0.219,-0.042 -0.303,0.068 -0.219,0.278c1.323,3.606 4.179,4.679 6.317,5.29c0.288,0.05 0.574,0.05 0.861,0.118c-0.018,0.026 -0.034,0.026 -0.051,0.05c-0.71,1.082 -3.169,1.887 -4.314,2.288c-2.084,0.728 -4.352,1.055 -6.553,0.838c-0.353,-0.052 -0.427,-0.047 -0.523,0c-0.096,0.06 -0.011,0.144 0.101,0.235c0.447,0.296 0.901,0.557 1.365,0.81c1.399,0.741 2.857,1.331 4.381,1.752c7.872,2.174 16.739,0.576 22.65,-5.296c4.641,-4.612 6.268,-10.972 6.268,-17.34c0,-0.249 0.295,-0.387 0.47,-0.518c1.208,-0.908 2.253,-1.994 3.154,-3.207c0.202,-0.272 0.274,-0.514 0.274,-0.613l0,-0.034c0,-0.102 -0.072,-0.071 -0.229,0" style="fill-rule:nonzero;"/><path d="M37.5,70.665c-18.012,0 -32.665,-14.653 -32.665,-32.665c0,-18.011 14.653,-32.665 32.665,-32.665c18.012,0 32.665,14.654 32.665,32.665c0,18.012 -14.653,32.665 -32.665,32.665m0,-70.135c-20.661,0 -37.47,16.809 -37.47,37.47c0,20.661 16.809,37.47 37.47,37.47c20.661,0 37.47,-16.809 37.47,-37.47c0,-20.661 -16.809,-37.47 -37.47,-37.47" style="fill-rule:nonzero;"/></svg>