<?xml version="1.0" encoding="UTF-8" standalone="no"?><!DOCTYPE svg PUBLIC "-//W3C//DTD SVG 1.1//EN" "http://www.w3.org/Graphics/SVG/1.1/DTD/svg11.dtd"><svg width="30" height="30" viewBox="0 0 100 100" version="1.1" xmlns="http://www.w3.org/2000/svg" xmlns:xlink="http://www.w3.org/1999/xlink" xml:space="preserve" xmlns:serif="http://www.serif.com/" style="fill-rule:evenodd;clip-rule:evenodd;stroke-linejoin:round;stroke-miterlimit:1.41421;"><path d="M99.3,49.734c0,26.914 -22.228,48.733 -49.65,48.733c-27.421,0 -49.65,-21.819 -49.65,-48.733c0,-26.915 22.229,-48.734 49.65,-48.734c27.422,0 49.65,21.819 49.65,48.734Z" style="fill:#07bced;fill-rule:nonzero;"/><path d="M75.342,35.401c-1.212,0.329 -2.166,0.278 -2.166,0.278l0.039,-0.226c1.128,-0.886 3.973,-3.605 4.349,-4.878c0.163,-0.549 -0.03,-0.739 -0.031,-0.757l-3.634,1.514l-3.04,1.347c-2.099,-2.181 -5.276,-3.57 -8.829,-3.57c-6.32,0 -11.446,4.395 -11.446,9.818c0,0.99 0.151,2.801 0.469,3.704c0,0.283 0.011,-0.285 0,0c-4.07,-0.11 -9.287,-1.749 -13.933,-4.059c-9.165,-4.558 -9.739,-7.713 -9.739,-7.713c-1.439,1.501 -2.182,6.469 -0.723,10.363c0.934,2.493 4.145,4.731 4.145,4.731c0,0 -1.435,0.026 -2.94,-0.473c-1.505,-0.499 -2.072,-0.993 -2.072,-0.993c-0.894,2.14 0.9,5.963 4.001,8.705c1.808,1.6 5.109,2.602 5.109,2.602l-5.158,0.142c-0.29,4.922 10.513,7.844 10.513,7.844c-3.166,2.39 -6.84,3.846 -10.778,3.846c-2.041,0 -4.013,-0.299 -5.885,-0.847c5.203,4.208 11.889,7.112 19.16,6.737c19.289,-0.995 30.177,-17.27 30.696,-33.253l0.024,0.032c0,0 0.905,-0.442 2.837,-2.339c1.932,-1.896 3.133,-4.116 3.133,-4.116c0,0 -2.888,1.232 -4.101,1.561Z" style="fill:#fff;fill-rule:nonzero;"/></svg>