<?xml version="1.0" encoding="UTF-8" standalone="no"?><!DOCTYPE svg PUBLIC "-//W3C//DTD SVG 1.1//EN" "http://www.w3.org/Graphics/SVG/1.1/DTD/svg11.dtd"><svg width="30" height="30" viewBox="0 0 100 100" version="1.1" xmlns="http://www.w3.org/2000/svg" xmlns:xlink="http://www.w3.org/1999/xlink" xml:space="preserve" xmlns:serif="http://www.serif.com/" style="fill-rule:evenodd;clip-rule:evenodd;stroke-linejoin:round;stroke-miterlimit:1.41421;"><path d="M99.3,48.949c0,-12.8 -4.77,-24.48 -12.629,-33.365c-9.158,-9.602 -22.068,-15.584 -36.378,-15.584c-27.775,0 -50.293,22.543 -50.293,50.351c0,12.799 4.773,24.482 12.631,33.365c9.158,9.602 22.073,15.584 36.378,15.584c27.775,0 50.291,-22.543 50.291,-50.351Z" style="fill:url(#_Linear1);"/><path d="M81.77,59.161c0,6.741 -5.458,12.205 -12.19,12.205l-37.286,0c-6.734,0 -12.191,-5.464 -12.191,-12.205l0,-21.771c0,-6.74 5.457,-12.205 12.191,-12.205l37.286,0c6.732,0 12.19,5.465 12.19,12.205l0,21.771Z" style="fill:#f0eff1;fill-rule:nonzero;"/><path d="M45.51,39.297l15.533,8.979l-15.533,8.979l0,-17.958Z" style="fill:url(#_Linear2);"/><path d="M45.51,39.297l13.651,10.067l1.882,-1.088l-15.533,-8.979Z" style="fill:url(#_Linear3);"/><defs><linearGradient id="_Linear1" x1="0" y1="0" x2="1" y2="0" gradientUnits="userSpaceOnUse" gradientTransform="matrix(99.2992,0,0,99.4148,6.42871e-06,49.65)"><stop offset="0" style="stop-color:#d0282b;stop-opacity:1"/><stop offset="1" style="stop-color:#b4282d;stop-opacity:1"/></linearGradient><linearGradient id="_Linear2" x1="0" y1="0" x2="1" y2="0" gradientUnits="userSpaceOnUse" gradientTransform="matrix(15.5333,0,0,15.5514,45.5098,48.2761)"><stop offset="0" style="stop-color:#d0282b;stop-opacity:1"/><stop offset="1" style="stop-color:#b4282d;stop-opacity:1"/></linearGradient><linearGradient id="_Linear3" x1="0" y1="0" x2="1" y2="0" gradientUnits="userSpaceOnUse" gradientTransform="matrix(15.5333,0,0,15.5514,45.5098,44.3308)"><stop offset="0" style="stop-color:#d0282b;stop-opacity:1"/><stop offset="1" style="stop-color:#b4282d;stop-opacity:1"/></linearGradient></defs></svg>